<mxfile host="app.diagrams.net" modified="2021-02-14T08:11:56.684Z" agent="5.0 (Macintosh; Intel Mac OS X 10_14_3) AppleWebKit/537.36 (KHTML, like Gecko) Chrome/88.0.4324.146 Safari/537.36" etag="8dMEsqUKhg077kheSfuE" version="14.3.0" type="github">
  <diagram name="Page-1" id="55a83fd1-7818-8e21-69c5-c3457e3827bb">
    <mxGraphModel dx="1113" dy="1435" grid="1" gridSize="10" guides="1" tooltips="1" connect="1" arrows="1" fold="1" page="1" pageScale="1" pageWidth="1100" pageHeight="850" background="#ffffff" math="0" shadow="0">
      <root>
        <mxCell id="0" />
        <mxCell id="1" parent="0" />
        <mxCell id="3oiF2rvLH_tYz8wV3Ybr-24" value="" style="shape=image;verticalLabelPosition=bottom;labelBackgroundColor=#ffffff;verticalAlign=top;aspect=fixed;imageAspect=0;image=data:image/jpeg,/9j/4AAQSkZJRgABAQAAAQABAAD/2wBDAAgGBgcGBQgHBwcJCQgKDBQNDAsLDBkSEw8UHRofHh0aHBwgJC4nICIsIxwcKDcpLDAxNDQ0Hyc5PTgyPC4zNDL/2wBDAQkJCQwLDBgNDRgyIRwhMjIyMjIyMjIyMjIyMjIyMjIyMjIyMjIyMjIyMjIyMjIyMjIyMjIyMjIyMjIyMjIyMjL/wAARCAFJASwDASIAAhEBAxEB/8QAHwAAAQUBAQEBAQEAAAAAAAAAAAECAwQFBgcICQoL/8QAtRAAAgEDAwIEAwUFBAQAAAF9AQIDAAQRBRIhMUEGE1FhByJxFDKBkaEII0KxwRVS0fAkM2JyggkKFhcYGRolJicoKSo0NTY3ODk6Q0RFRkdISUpTVFVWV1hZWmNkZWZnaGlqc3R1dnd4eXqDhIWGh4iJipKTlJWWl5iZmqKjpKWmp6ipqrKztLW2t7i5usLDxMXGx8jJytLT1NXW19jZ2uHi4+Tl5ufo6erx8vP09fb3+Pn6/8QAHwEAAwEBAQEBAQEBAQAAAAAAAAECAwQFBgcICQoL/8QAtREAAgECBAQDBAcFBAQAAQJ3AAECAxEEBSExBhJBUQdhcRMiMoEIFEKRobHBCSMzUvAVYnLRChYkNOEl8RcYGRomJygpKjU2Nzg5OkNERUZHSElKU1RVVldYWVpjZGVmZ2hpanN0dXZ3eHl6goOEhYaHiImKkpOUlZaXmJmaoqOkpaanqKmqsrO0tba3uLm6wsPExcbHyMnK0tPU1dbX2Nna4uPk5ebn6Onq8vP09fb3+Pn6/9oADAMBAAIRAxEAPwD3+iiigAooooAKKKKACiiigAooooAKKKKACiiigAooooAKKKKACiiigAooooAKKKKACiiigAooooAKKKKACiiigAooooAKKKKACiiigAooooAKKKKACiiigAooooAKKKKACiiigAooooAKKKKACiiigAooooAKKKKACiiigAooooAKKKKACiiigAooooAKKKKACiiigAooooAKKKKACiiigAooooAKKKKACiiigAooooAKKKKACiiigAooooAKKKKACiiigAooooAKKKKACiiigAooooAKKKKACiiigAooooAKKKKACiiigAooooAKKKKACiiigAoqC8vILCzlu7mRY4IlLu7HAAFeN6x+0Vo9tMU0vTp7sA/6xzsB/DrQB7XRXjujftC+Hr1xHqVpcWLE43Y3r+lem6L4k0fxDB52lahBdJ38twSPqKANWiiigAooooAKKKKACiiigAooooAKKyfEPiTS/DGmvfapdJBEo4BPLn0A7mvCfEn7Q9/OXi8P2K26cgTTfMx98dKAPoyivk7Tvjn4zs7sS3V1HdRFgWjeMAEegPavdvAfxS0bxugt42FtqQXLWznk+pX1FAHd0UUUAFFFFABRRRQAUUUUAFFFFABRRRQAUUUUAFFFFABRRRQAUUVS1jU4dG0i61K5OIbaMyP9BQB4t8fvG7W9unhWzb55lElywPRey/jXM+Avg9DrGkJqmvPNGk4zDAnynb2J+tcpolrP8RPiWZJydlzcNPLk52xg5x+XFfSN3ci2Rba3wgQAYXsB2FcGNxPslZM3o0udnkevfAchXl0PUN2ORDP1/A15tfaR4n8D30ckyXWnzdUlRsA/iK+m01C4Qj59w96szRWGvWUlne28cqOuGRxn8q5qOYtuzNqmGsro4b4ZfGw6vd2+ieIVVLmTCR3YOA57BvevcAQelfIXxA+G934PuDf2TtNpjP8AJIPvRegP+Nei/CT4u2w05dF8SXhjkhBMV3M/BUfwk+tetCamrxONpp2Z7xRXjXiT9oPRtOmeDRrSTUGXI81vkjz/ADNcBffH7xdetItlFb26twoSPcR+dUI+pM0mR618kt43+J+osZI7jVMf9MYmA/QU4eI/iqwG2bW+Bj7jUuZdx2Z9a5or5K/4TD4p2oLvPq21eu6JiKnt/jb46sl2TTRyFTk+bAM49KE09gsfV1c1408a6X4K0hr2/kBkYYhgU/NI3oP8a8RT9o7WhbFJNItWmxw+44z9K8y8TeJtS8Z+IG1C+f8AeykKkYPyoOwFMRc17Xde+IviYuwmuJJXIgtkJKxj0A7V694I+D2naVbRXmuxLd3x+byjykftjvWz8O/BWmeFtGS8UpNfTIDLPkEDP8K+1dFd37SnbCdqDv3NeTi8by6R2OulQvqytqXhHw7q9hLYzafaqrLtDRoAyH1Br5vvre7+Hnj/AGxO3mWUweNum9D/AIivowMwIIPI561478boIjrmm3yqRJNblH99p/8Ar1OX4pzqODKxFK0eY+nNG1FNX0az1CMYW4iWTHpkdKvVyPwxkeX4c6K79fIx+prrq9g4gooooAKKKKACiiigAooooAKKKKACiiigAooooAKKKKACvO/jXqyaZ8N76MtiS7xAo7nPWvRK+f8A9pHUj5mjaWMgYaYnPBycAfpQBS+BOgrHa3+vzL82fJiJ9AOT+tejSOXdnPc5ql8PdLOkfDqwiY8yxGdv+Bc1bHpXzeYTcql+h6WHjaItCu0bh0JDA9qVVaRgqgknpWta6fHEA0g3Se/QVx06cpvQ2lJR3EurKDWNJe0vYhJFOhV1bocivn/Wfgv4htdWEGnKl1ayN8ku8DYP9qvo2ivWo1p0loccoKR5R4d+B+mWUaS65cNdz45ijOEH416BpvhbQtJiEdlpdtHjvsBNa9FE6s57sFFLYQKqjAVQPYYpaKKzKA4YYKjFVpNOspgRJZwOGGDmMc1ZoouByGpfDHwnqbMz6YkLt1aE7a4vWfgNbOhfRtRaN/7k4yPzFex0VrGvUjsyXCL3PmLUNP8AHPw/naLzLpICM+ZES8RH16VueHPi66ukGuwAqePPjHI+or36WKOeMxyosiMMFWGQa4DxX8JND16EyWEaadeZyHQfI31FXKdKtpVj8xJThrBmnp+qWWq24nsbmOeI90bOPr6V5Z8aiPP0gc52SfzFYOq6B4q+GmoRXG9hEx+WWI5jfHY+n41T8Z+L18WJprGExzQRlZPQsT2/KlhsE6VdTg7x1HUrqcGnoz6f+FTFvhropbr5J/8AQjXZVzPw9tHsvAOjQyfeFuCeMdef6101eucYUUUUAFFFFABRRRQAUUUUAFFFFABRRRQAUUUUAFFFFABXzL+0TciTxnYQAHMVqP1Y19NV82/tHQFfEulzBAA1qRu9cMaAPVPDCl/BmlIy7SbOMY/4CKrKjNIEUZYnGBTPh/K03gLRXckt9mUc+1dCkESOXVAGPevnMRS55Ho052RHa2q20Y7uepqxRRVxikrIltvcKKKKoQUUd8UUAFFJg7valoAKKKKACiiigAooooAhurS2vrdoLuCOaJuCjjIrxP4l/CpbGI6x4dtz5SgtcQKfuD1X2r3KkZVdGR1DIwwwPcVpTqypu6JlFSVmee/Bv4orrECeHdYdI7yBALeRjjzVH8P1Fe0V8p/FLwM/hbU49c0cOlnLJk7f+WMnX8q9z+FnjVPGXhWKWRgL62AiuFz1IHDfjXrwmpx5kcklZ2O5oooqxBRRRQAUUUUAFFFFABRRRQAUUUUAFFFFABRRRQAV8w/HzxHba34rttJsiJDYrskdecuew+nFe0fE/wAZR+DvCdxcJIovpgY7Ze+4jr+FeL/CXwP/AG9eS+JNaR5Y0fdCH/5avnJY+oqKk1CPMxxi5OyPXvB+nyaX4O0mzmGJY7ddw9DituiivFbu7naFFFFIApAKWigAxRRRQAUUUUAFFFFABRRRQAUc59qMUYPpQAUUYooAq6lptrq+nT6feRrJbzqVYEZx7/UV4J4d1K4+EvxRks7hydPmYRye8ZPDY9R/jX0LXkHxz8Om40+0123TLwfupiP7p5B/OurCVOWfK9mZ1Y3Vz6AgmjuII5onDxyKGVh0IPQ1JXk/wK8XnXfCraTcEfadNwgOeWjOSD/MV6xXqHKFFFFABRRRQAUUUUAFFFFABRRRQAUUUUAFITgE9KWua8f603h/wRqmoI2JUhIj/wB40AfP/wAQ9VuPiJ8UItFs3L2tvL5CY6cffb8817rpmm2+j6Xb6dartgt0Eaj2HevGfgXo4udQ1DXZ8tJGfLQn1PJP617jXmYupeXL2OmlGyuFFFFchqFFFAoAzdd1/TvDmnPfancCKIDgdWc+gHevPJPjxoC5Edhet74Uf1riPidqp174kf2Ze3a2+n20iw7xkhB3Y+9ddHd/B3TIEiKR3LxqAX2MSx9e1d1PDw5U56tmMpu9kSt8etF2jbpV4T3yQP61E3x703+DRrk/VxUb+OfhZYNvttCMzY/54j+pqGT4teDEOLTwaJP95VH9DVrD0/5Sed9zr/BnxP0rxddGyET2l7jKxyHIcexrua+Ttd8RRy+LE13SNObSXVg6xqeAw6kcDrX1Hot6dT0OxvSMNPCrkAdyK58RRVOzWzNKc+YvdqKMGiuY0CvOfiH8TD4VvIdL0u3S51F+XDchAegwOpNeiu/lxO/91S35CvlFNR1S68eTanaWrX98k7OiMhfocAkD0rpwtJTk2+hnUk4rQ9D/AOE3+KF0itBoO1W5B8g/1NJ/afxhu3+WwaP/AIAox+Zpq+O/is3EeiMPTFq3H60o8V/GBsj+y2A7k2+B+ea7VRX8qMefzGzWXximhd2eVQOdqsgJrR8C/FK6W/OgeLQ0N0rbI53XaS3o3p9a4u5+MHjeC5eCS+hWRG2sqxjAIrH8X/8ACTX8dlr+twx7LkEQXMW3D457HrRKgpKzQKdne59VgggEEEHoRVbUdPt9V06ewul3QToUcEVl+C7mW88GaXPOCJGhAOepxx/St2vKa5WdW583Wcl/8JvicsYnItSw3N2khY9/p/SvrC1uYb20iuYHDxSoHRgeCDXjHxg8KRaz4abVYYs31iMgqOWj7irvwG8ZDV/Dr6FdzqbywOIgTy8R6H8DkflXr0KntIX6nJOPK7HsFFFFbEBRRRQAUUUUAFFFFABRRRQAUUUUAFeMftD639l8MWekoSGupd7fRf8A9dez184/tGXjy+INHsTgIkBk/FmI/pQB1fwf0s6d4EgkY5a6dpvoM4H8q76sjwrbLZ+E9KgXHy2sfTp93P8AWtevEqS5ptnbFWVgoooqBhSjrQBnpUiW00n3YzTUXLRCbSPmT4haRDpHxOll1SKR9OuphMShwWQ9cH1r03TvDfwYkt0uFuYHV1BCzTMCPr0ruvEfgSy8V2BtdTt1OPuSg/On0NcIn7O2kKx36heOPYqP6V6lKq1FKSZzSjrox/iOT4W6D4bvLrSbbS7m/WPEEe5mLN0FeAxa/fQ6ml9E0SSI+5VES7R7Yx0r3/8A4Z80INnzr4+3mL/hTv8AhQPh8Kctff8Afxf8Kp1oro/uDkfc8p8eeM7PxrZ6JBY6YlveQptn8qMKGc8YAHWvf9II8P8Agq1a/O0WdoHl9sLk1k6B8KPDvh2/W8itJp50OUac7gh9QBXS61pn9raJf6dIxRbqFo92OmRxXHiKyqNK2hrThyq54fqHx41ZppVstPtViyQhkyxx71ln43+K9xKrYr7eUf8A4quG1rSbrQ9WuNPu02ywuVPofcVn12xoUraIxc5HtXg74x6rqWv22m6xDbtb3TeVuiUqVJ6dzxVbxH4V1vwD42XxJ4egeezEnmbVG7bn7yt7EVxnw00mTV/HWmoqkpDJ50h9AvP88V9YpbSz5Codp4Oelc9R+yq2po0j78fePH4/2irtMCbwyQRw2JSP5rTNY+PEur6Fe2EPh67gmuIWjWRZCdufwr2MeFdNk/1tlaE9T+5WrA8OacuALeEAekS/4VuqlS3w/iZuMe58Rf2ffOS32S5YnqfLY/0rd0fRPEfiOay0RIrs2yyFlWRSEizjJ59q+w/7DslBxFGP+2a/4VUvo9P0mON5W8sSOEGxQOaUp1baR/EuEFJ2WpnaXYrpmlWtkn3YIlQH1wKt1Jqgj02wa8Zt8Yx9TmqtldxX9sJ4OVHDDuD715s6U46tHUotx51sSPGkqNHIoZHBVlPQivnLXLaX4Y/FaG+tspbeYJ41U4BjY8r9Ov6V9H15J8ddEa60Wy1aOIs9s5jkYfwqeRn8a1ws+Wdu5jUjdHu2nX8Gqadb31s26CeMSIfYjNWq88+Cuqtqfw1sQ+N1szQHHoDkfzr0OvVOUKKKKACiiigAooooAKKKKACiiigAr5h/aBeV/H9lG5TaLRdmOoyx619PV87ftF2ccWsaLfqiiR0KMe5wc/1oA9V0JDH4d00E5xaxjP8AwEVfrN8O3K3XhrTJkI2taxkY/wB0VpV4Ut2dyFUFmwBkmr8GmsxDSnA9B1qTTrYBPNYAk9PatGu6hhk1zTMJ1XeyKNybbTrOS4dAFjUsazdF1uS/0q4vZ0VBEzYA9BWzdWsd5bSQTLuRxgio7fTra1shaRRhYcY25612qCWwRnT9m1JXlf8AAy/C2qXOq2U01xjiQhSBjiqviXVriDUbKys3IldwWx1Iz0roLSygsbYQW0YSMdBWDFo9zL4xlvrhMwIoMbGk07JI6KU6LrSqNWSTaR0y52jPXFLQOlFWcBk2HiTStT1i+0q1ule8sjiePutabxI64ZQR7ivnr4keHPEngnxvL4x8OGRoLlt8vlrnYx6qw7g1e0P9oyEW3l67pLidRgvbtwx+h6fnSaT3A7P4l/C6x8Yaa9zbAW+qwqTFJ2f/AGW/xr5OuraWzu5baYASROUYA55Few+Mfjjq3iSFtN8N2klpFKNjSD5pWzxgY6U/wn8BdQ1nR7i8124ewuZVzbx43EHruf8AwoSS0QHdfA/wfY6R4Y/tYywXN7e4LMhz5a9l+tes/Ko7ACvlOS0+IHwgv5ktGc2cn8aJvik98djRJ8R/iL41jXSLLfmU4JtItpb6t6UWW4HqHi34sTQeOdM8OeHFS6Y3CpduBuBBOCq/TqTXri5KgkYPcV5V8K/hSPCudY1krNrEnQZ3CIH3/ve9erUwMjxLJNDoN08BIcL1HWsr+y5te8JWiM5FwBuVm/rXVOiupVgCp4IPehEWNQqgBR0A7UnFM6KeIdOCUVqne5SXTkl0mOyux5oCBWz3qhonhxNHnuWWVnjk4VSOg9/Wt6ihxTIVeoouKej3Mi+shF+9jHy9x6VwnxOBb4d6uAu4+WOK9QdQ6lSOCK85+IqBPA2tBjwsB/nXn16ShUjKOzZcJNxaZy/7OF6X0XV7HPEU4kH/AAIY/pXuFfP/AOzZ9/XfpF/WvoCvROcKKKKACiiigAooooAKKKKACiiigArxz9oPQZb/AMMWepwQ7zZSMZWHZDj/AAr2Os7XtJj1zQr3TJv9XcwtGT6ZoA8n+DWtDU/BaWrPmaycxkei9R/OvRB1r538AajceAfiLcaJqPyQyyfZ5CeAD/C1fROMHFeRiafLP1OqnK8Tft1C28YH90VLUVud1uh/2RUterH4Ucz3CiiiqEFJjmlooAKKKKAGuiyIUdQysMEEZBrjdZ+FPg7XLg3F1pEaSk5LQsY8/UA4rtKiuLmG1haaeVIo1GSznAFAHN6X4N8KeD7cz2tha2ypy08vJH/Am6Ut58RPCViP32u2YI7K+a4fx98VvAtzps+kXCSauG6xwMVXI6fOK+eLqAa1qjHRdIkhjfhYIy0mPxNAH1pp3xI8HeIrttMg1CGYshJWRRsYDr14pJPGXgPwwrRR6hpttjrHbqM/pXz9onwU8Z6miyNbJZRuM5mfacfSu00z9m9igbU9aw392CP+poA7iT45eCI32i8mb3WLj+dNHx18FE4N1cDnvF/9espP2d/C4iCveX7Njlt45/Sh/wBnfwu0ZCXmoK2OG3r/AIUAdRafF3wTeTJEmsxozdPMGBXY2l7a30ImtbiKaM9GjYMK8Puf2bbMpJ9m1ycNj5PMjBGffFcFqGm+M/g3rME6XLm1ZvkZGJhl9ivY0AfWlFYHg3xLF4t8L2mrxoEMwIdB/Cw6it+gBDXj3xp1hNO8GXNvn95ey+Uv0HJ/pXr8rhI2YngCvmT47aqL3XdP0mFtzQIXcD+8x4H6VzVVzVIx+ZpB2i2dh+zlphh0DVNSOf384iGfRRnP617dXIfDLw83hrwHp1lIu2dl86UejNzj+Qrr66TMKKKKACiiigAooooAKKKKACiiigAo7UUUAeBfHvwROZo/FenpkIAlyqDkY6P/AJ9K6H4Y+L4/FPhqKOVx9vs0EUyk8sBwG/EV6reWkN9aS2tzGskMqlXRhkEGvk/xFp+qfCf4iSS2IkS0Mm+Ak5WSM87T646fhWNel7SNupcJcrPqbTZsoYienIrRrhPCPiyy8TaZFqensMjiWLPMbdwa7eCZZogymssLUuuSW6KqR15lsSUUUV1mQUUU15EjUs7BQOpJoAdRXK6n8R/CWkSmK81u1WQcFFfJFQ2XxS8GX8vlw65bBv8AbbbQB2FfMHxx1vU9S8enQluXjs4xGiRF9qMzdzX0JrvinS9B8OT63cXKNaxpuUo2fMPYD3NfI/jbxPf+N9bn1ySy8mFMRqY14UdsnuaAPYvBPwBsbZYr7xJP9rkOGW2jOI/xI5New6Zoel6NCItOsLe1QDH7qML+tc58LvEY8S+A9PunfdcRr5M3+8vFdnQAUyWRYYnkc4VQWJ9hT65XxDqmtfbW03StO3705ncfKM1M5cquOKu7GppHiGw1qGWW1chYm2tv4rL1fxauna5YWsZhe1nyJZN3KV53FphsNUubPWLqW1iVS7+Ucbz6DtRYaMmt38SabbS/Z1cCUu+Tgnr+VcbxE2rW1OlUo3v0PY7TUbS+3fZbiOXb97Y2cVxPxpsUvPhjqTMAWg2yqT2IOP611Gi+GtP0JpGs1cNIAGLNnpWJ8WkD/C/XATjEIP8A48K7Itte8czt0Of/AGf5TL8OCGOdl5Io+m1D/WvVK8n/AGfP+SdS/wDX9J/6ClepzyiGMufyptpK7BK7sZ+tXqWtszOwVEUu5J6AV8z+G7KX4h/GN7tUMtnHcebIzdBGvA/PArsvi14+IDeGtIPnX118szJyUBP3R7muz+EHgFvB3h43F6mNTvcPL/sL2X/PrWFFOUnUfUudkuVHpAAAAAwBRRRXQZhRRRQAUUUUAFFFFABRRRQAUUUUAFFFFABXOeNPB9h4z0GXTrxQr4zFNj5o29RXR0UAfImk6jq/wj8az2d7E7QbtsydBKnZlr6K8L+KdO16yW+0u4WaFvvr/Ep9COxrA+Nfg+28QeFjqPnwW11YAusspChl/u5r508I+MNQ8H6oLqzbdE3E0LH5XH+Nc9ajzPnjuaRnbR7H2vFMkqBlOQafkDrXC+DfGFr4k0ZNTsWKoTtliY8ow6g15p8TPjPLfRy6F4aMsfJSe5XqcHon+NOlV59Ho0KcOXU77xx8YtD8JNJaW7C/1EceVEflQ/7R/pXz/e+IPHHj6+cJLfXKsf8AUwZEa59hxXTeBvg/cavHHqniBpILdzuW3PDyD1PoK9y0zTLHRrJbTT7aO3gXosagfn61nVxUYu0dSo0m9WeDad8C/EF1Cst7d29q5H+rJ3sPrim6j8DPEVpA8lpc212QMhFOwn86+hutFcv1uoa+yifHV1PqloBo+oy3SW0MuXtWYgKRwcA9+td1rV8nipNO8HeBLOQaeqCWVcfNJJjJLn2xXrPjvwBp3i6wlm8oR6nFGTDKvBcjop9RXjPwu8STeCvH8UN0ixxXEn2W5DrygJ4Oe2Diu+jWVVeZhODizsP2fdffTvEGoeHLpiqzgyRqf+ei9R+Wfyr6Nr5V8bRHwF8ZItVtk2WzzLdJg5BQn5gPwzX1HZ3Md5Zw3MRBSVA6kdMEVsQT1nazq9rounvd3LYC/dXux9BWielcnqnhi41rxJHc30qnT4RlIh1J96io5Je7uVFK+pzUdrceI55Nd1wmPT4gWjgzguByBikaLRNWiGp6XqA0i8B2+W77QcdKuQ6Bo2ra5c2kmq3Nw8JJMWcKgz0BrM07w/p6eN7rSbmHz7cIWjG7/PvXE09LpanTfzN7SfEGvWV1BaapaG5glO1LqLkEeuelRfGm48j4X6mM48zYn1y3/wBatPQ/E2nJeHRGtmsZITsiST+L6GuP/aE1IW3ge3swfnubpfyUHP8AMV10mrWvc56m+1iX4BOsPw1d3wq/bZDk9/lSmfFf4kJ4csDZWrZ1G4Q+WB/yzB/iP9K5vQvEK+DfhVaQQlZdVmia6hgxnOW25x+VZnjLwNqHijQV8XTFo9Q+xq0toFxkgnn24xWEqnNK0tI/mWo8qutzqvhL8Lo7aKDxXrji6v7kedCjciMH+I+rHOa9or59+BHxAuXvP+EV1OdpIyu6zZzkrjqn9R+NfQVdhiFFFFABRRRQAUUUUAFFFFABRRRQAUUUUAFFFFABVbUb+DS9OuL66fZBBGZHb0AqzXlfx71qbTPAYtIDj7dL5Tn/AGRyR+NAHjnivxtr/wAUvECaXZh1smlxb2qcDH95vWu90f4HaPbae8eqXUlxdSJgunCxn2pPgj4Zis9BfXZogbm6YrExHKoOOPxBr1avOxGIlzcsHsdFOmrXZyPgfwNF4Msb61W7a4W6k3AkY2rjGPrT/Dfw80Lw1NLcwwC4u5HLedMMlQew9K6uiuV1JNt33NeVBRRRUDCiiigBQcdK+dPjZoQ03xXFqUKBY71Nx2jGHHWvoqvDvj3qlvJNpmlx7WnizLIQeVz0H+fSunCN+1VjOr8J5/faH4p1Pw1H4ivjPc6bENiTSzbio9ACc4r6K+B/iT+3PAkVpK+6408+S2Tzt/hP868b0z4LeMtU0m2uIjEtrcIJFV5gMA+ozUnwo8SJ4B8dXmn61L9mtpVaGct0R16E/wAvxr1TlPqyorlHktpEifZIykK3ocda8Y8T/tCWFjdyWug2P27Zx57khCfYdTXHv8T/AIoeI8nSrKaOM8f6Na7v1xQB7TZeA44dNuIZ7xzczvveaPggelWdD8G2Wjakb37VJPNt2jeeleFJpnxo1bcTLqyA9nm8v/CoF+HPxXlnV2kuxJnO43g4/Ws1SgtkW6knofSt3oum6hcxXFxbpJNEcq/cV4d+0DcvqPiHw/oMP3jlto6/OQo/ka5u+0L4ueGt19JPqTpGN7PFceaMD1AJrM0HVNY+IfxQ0q61IiSeELvZVAComTnH1NOVoptE6tpHu9n4T0yCXTbqWANdWVsIEJ6Y78fWtx1WRCjqChBBBHUGnNyx+tVJNSs4dQjsJLmJbqVdyRFgGYewrxW3I7Uj528daJN8PPH8Go6buSBnFzbn0OfmX+f519Q+GNetvE3h2y1W2YFJ4wWAP3W6EfnmvP8A4l+FP+Ep8KSJCo+22v72E+vqtcN8APFkthrlx4Yu2YQ3GXiVv4JB1H4/0r1cNV54eaOWpHlZ9IUUUV0GYUUUUAFFFFABRRRQAUUUUAFFFFABRRRQAV5L+0Fp0954HhuYkLLaz7nx2B7161VbULC31PT57K6jEkEyFHU9waAPIvg7rVvqXgiGzRl+0WTFJEzzgnIP616DXzbrWna38HfHBktWJtXYtCT92aP+6fcV7V4S8eaN4ut1FrOI7wLmS2fhge+PUV5eIoOMuZbHVTmmrHUUUEYorlNAooooAKMH0qG8vLawtmuLueOCFRkvIwAryHxj8bIoTJZeG0Ej8qbpxwP90d60p0pVH7qJlJR3O58c+N7PwbpLSsVlvpBiGDPJPqfavHvAvhPVfih4xfVdTLtYpKHupW6Nz9xat+C/hnr/AMQ9QXWtdllj0923PLKSHlHXCD096+ltG0Ww0DTItP022SC3jGAqDr7n3r06NBU15nPObkXYokhhSKMBURQqgdgK+cvjn8Pbq11STxRp8LSWk/8Ax9BR/q2/vH2NfSFNkjSWMpIiuh4KsMg1uZnzN8OPGHw40izgi1fRfKv0Hz3csfmhj6jqRXr1v8XPAZAWLWIYx6GMrj9Kfrfwi8H647SS6WtvKxyXtjsyffFcrL+zp4edyY9SvY1PQYBxQB1c3xf8DwIWOuRPjqEUsf0rAvv2gfCVujG2S7uWA4Cxlc/nWen7OOggjdq14wz/AHAK07X4AeD4JleX7XOB/C0hANAHnviH41eIfGCyaL4e0xrcXQ2fJl5WB69Oleh/CH4bN4V0qTUtUjI1e7Uqyk58pPT6nvXc6F4R0Lw3Hs0rTYLckYLqg3H6mtuhq4HOSLtkZfQ4ryj4zQz6euj+JLNitxZz7Cy8cHkfyP5167eoUuXz35rlPHejprngvUrRgCyxGVD6MvP+NePD93V1OxrmiaHh3WYfEPh6y1SLG2eIFl9G6EfnmvnfxnaT+Cfii93bgxqJ1uoWH909f1zXoXwH1KS40DUdPdiVtpgyZ7Bh0/SoPjzpCy6Zp+rqPnicwv8AQ8j9c1vS/dV3AifvQue8aRqMWraPaahCwMdxEsgx7irteWfAXXv7U8BCykfMthM0X/ATyP5kfhXqdeicwUUUUAFFFFABRRRQAUUUUAFFFFABRRRQAUHkUUUAfL37Ql9LceOYLRm/dW9su1fQnmuSuvBPiPQNK0/xBbJI0M0SziW3yTFnnnFanxdk+1/FvUEdyUDxIM9vlWvo20torfTLa1RF8lIVQLjjAGK5sRWdO1jSnDmueH+G/jnd2kUdtrln9qVRjz4z8+PcV6DYfFrwffpk6g1u3dJoyMfpTde+E3hjXGklS3NncOcmSHgZ+lc3H+zrBdSM0OuyLCOADEM/zrCMaFZ2WjNG5wR0eofF7whYodl69y46LFGxz+OK4PW/jxeylo9G09IExxLNy35V22nfs6+Hrcg32oXd1x0XCfyrstF+Ffg/QyHttJjkkxjfP85/Wt44WnHfUzdWTPm220vx38SLwOI7y6Rj/rJCViUexPFey+C/gPpOjPHe6666jdjBEWP3an+teuQwRW8YjhjWNAMBVGAKkroSSVkQ23uMiijhjWONFRFGAqjAAp9FFMQUUUUAFFFFABRRRQAUUUUAZGqLicHsRWbPEs9vLCwyHQqR65GK19VXiNvcis0cMK8fEK1RnXTfuo8I+EM/9kfETV9F6JJvUDPQo2B+hr074iafHqXgTVInUEpF5iE9iK8n1Af8I38fFliwkctwrEezLz+te2eJrc3HhvU4VIBaBwM/Sta3xxmuthQ1i4nl37N2oFdU1nT2I2vGkq/UEg/0r6Kr5V+AV39l+IxgIJ862deD0IIr6qr0zlCiiigAooooAKKKKACiiigAooooAKKKKACiiigD408XeZffFvUkGWZ9SZF/76wK+pUG1FX0AFfN+v2p0748ypIM51MSAezNuH86+kj1NefjXqkdFHqJWzpwxaqfXJrGNbOnf8ei/jUYP+IOr8Jcooor0zmCiiigAooooAKKKKACiiigAooooAKKKKAM7Vf9Wn1rL6Vqar9yP6msuvJxX8RnVS+A+fvjQjab8QLHUYycvAkmfdWI/livYLjV45/h/Jq037tZLLeQT0JFeYftAAfatEbHJjk5/Fai8deL7RPhjomh2UmJ7i3RpVU/dUcYP1Oa25HOECebllIx/gVFJN8TYHjUkJDIzH0HFfWVeC/s6+GpoodQ8QzpiObEEBI645Yj25H5V71XoHOFFFFABRRRQAUUUUAFFFFABRRRQAUUUUAFB6UUUAfKHxdWXS/jFPefdyYZUI9lUfzFfQ8EqzW0Uq9JEDD8RmvFv2itKmh8S6dqaxN5Etv5ZcDgOCePyxXqfhKZ5/B+jySBg7WseQw54UVwY1aJm9F7o2T0ra07/jzT8axa2NMz9mOf71ZYTSoVW+Eu0UUV6hzBRRRQAUUUUAFFFFABRRRQAUUUUAFFFFAGdqv+rj+tZdaWqn/Vjt1rN7V5GKf7xnVSXuo8Q/aA/wCPjQ/+ucv8xXHeAvh1rHjjU4sxyQ6bHjzbmQHGPRc9TXTfHprh/EOmQ7WMC2xKcfxFuf6V714As/sPgTRoSm1haozAjByRn+tehhv4SManxM2NJ0u10XSrfTrKMR28CBEUD9frV2iitzMKKKKACiiigAooooAKKKKACiiigAooooAKKKKAK17p1nqUQivbaK4jByFkUMAakFvCqqqxqFXgADgVLRSaT3Ab5af3F/KlChegxS0UWQBRRRTAKKKKACiiigAooooAKKKKACiiigAooooAY8McmN6g46Zpv2aH/nmtS0VLhFu7Q7tFOfSdPumVrizglK/dLoGx9M1bVQihVACgYAHQUtFNJLYQUUUUwCiiigAooooAKKKKACiiigAooooAKKKKACiiigAooooAKKKKACiiigAooooAKKKKACiiigAooooAKKKKACiiigAooooAKKKKACiiigAooooAKKKKACiiigD/2Q==;" vertex="1" parent="1">
          <mxGeometry x="60" y="1730" width="182.37" height="200" as="geometry" />
        </mxCell>
        <mxCell id="K3zmsh9aibyrLAJEjabf-12" value="" style="rounded=1;whiteSpace=wrap;html=1;fillColor=none;dashed=1;strokeWidth=2;" parent="1" vertex="1">
          <mxGeometry x="340" y="380" width="310" height="320" as="geometry" />
        </mxCell>
        <mxCell id="Nn_NQeG1ST4IdmQyPQJt-1" value="" style="shape=singleArrow;direction=south;whiteSpace=wrap;html=1;rounded=1;shadow=0;dashed=1;labelBackgroundColor=none;sketch=0;strokeColor=#82B366;strokeWidth=2;fillColor=#B2C9AB;fontSize=16;fontColor=#000000;arrowWidth=0.36666666666666664;arrowSize=0.015841584158415842;" parent="1" vertex="1">
          <mxGeometry x="280" y="-60" width="50" height="2530" as="geometry" />
        </mxCell>
        <mxCell id="Nn_NQeG1ST4IdmQyPQJt-2" value="" style="shape=image;verticalLabelPosition=bottom;verticalAlign=top;imageAspect=0;aspect=fixed;image=data:image/png,iVBORw0KGgoAAAANSUhEUgAAAPAAAADwCAYAAAA+VemSAAAABGdBTUEAALGPC/xhBQAAACBjSFJNAAB6JgAAgIQAAPoAAACA6AAAdTAAAOpgAAA6mAAAF3CculE8AAAABmJLR0QA/wD/AP+gvaeTAABW8klEQVR42u29d5wddb3///zMzOnbe7LJbnovBAIhJPReFJEiCiIgVqxfQL2ioKJfEf19Ldd7r4giXkQulosggtJ7CAkhvSck2c1ustm+p077/P6YOWfP1uymnV0yz8fjPJIzMzvtzGs+n8/78y5CSomHh8foRMn1CXh4eBw6noA9PEYxnoA9PEYxnoA9PEYxnoA9PEYxnoA9PEYxnoA9PEYxnoA9PEYxnoA9PEYxnoA9PEYxnoA9PEYxnoA9PEYxnoA9PEYxnoA9PEYxnoA9PEYxnoA9PEYxnoA9PEYxnoA9PEYxnoA9PEYxnoA9PEYxnoA9PEYxnoA9PEYxnoA9PEYxnoA9PEYxnoA9PEYxnoA9PEYxnoA9PEYxnoA9PEYxnoA9PEYxnoA9PEYxnoA9PEYxnoA9PEYxnoA9PEYx2kArhBC5Prf3KwpQA1QC7cAeIJHrk/IY2Ugp+12uDXtPHoeLDRQCFYD0fgOPw8F7eI4NAeAEYDIwFjgNKAI6gO1AA/AKsCrXJ+oxypBS9vvxOCKEgLOA/wK2Aqbb6vb3WQ2cnusT9hiZDKhTT8BHjYuAR4Fdg4i292cd8IFcn7jHyMMT8LEjAnwTqBuGcLM/9a74PTwyeAI+NhQA9wPxAcRpH6Qbnf6sBabm+mI8Rg4D6VQMJFZvGmnYVAL3Atf3ZxwM+DVOP3WmOXtadSI/P5RfVBCmpS3GX596i6079/W3v98CtwKpXF+YR+4ZUKeegI8I5cAvgKsBtffKhSdM4rZPX8LSU2fI/LyILZCqqqkgYdvORn7666d5+C+vI6Wd/WdJ4DLghVxfnEfu8QR89NCAbwN39ifeMxfP5Bc/uJEZk8dg2hLbkkgkSOceh0J+Wtqi/OBn/8uvHn4ePWVm//ly4FrXEOZxHDOQTj1XysPnMuBLvcWrKIKLzzmBn9z9cWZMHkMyZaLrJqZlYVk2lm1jWhZd0QSlxXl888tXcP4Z83rv+xTgbsCX64v0GJl4Aj48lgA/cp0yMpQURvjhv13L7376WeZMryaRNJAShFAQQkFx/pUIRYIgGktQUV7IzdeeSU11efauBPBR4EO5vlCPkYnXhT50pgIPuV5VGSKhAPfd9TE+fd25mLZNKmWCUJBWEj3ZhpVsR6g+VF8ERQtLRQsJoWgIBQoiQf77z69zx/f+wIGWzuzdvgtcDOzP9UV75AZvDHxkKQT+Hfh49sJAwMc9X7uGL99yEZZloRs2QtEwEi3Emjegx5qwpQkoKIqKUHwEIpWEymag+gvwa6BpGl/85oP85pEXse3Mb2MDP3bH2kauL97j2OONgY8s5/UWLwI+dsVpfO7G81EUQcqwEYpAjzbS0fA2ya56QKIoPhRFASmxzQTxtu3EmjeCraMbEr9f5forT6eirDB774o7pXR5ri/cY2ThCXj4lAFf7L1w3swavvLpS8iLBIglDISAeNt7dDS8jaV3oqgBEOnbLUAIhKIhVB+pjj3EW7YipU08ZnDivImcMLu29yHygK8Bxbm+AR4jB0/Aw+cK4MzsBcWFEW7/zKXMm1VLNGaAhHjzFrr2v4ttJxDKwEFfQjjG60TLFvTYXgzTJhwKcN2VSynMD/fefIHbEnt4gCfgYVMB3JG9QNNUbvrImVzzocXouoVpmsRaNhFt3gjSRoiDzwAJxYdlp0i0bsMyYsQTBh++5GQuu+DE3ptqwMfcsEQPD0/Aw+S63j7K82fV8snrziYQDJJMGiTathNr3QTYg7a8PZEoih8j1oIe349hmIRCAT59/TkUF0Z6bzzFde7w8PAEPAxqgS9kLwj4fVxx8UJmzawhFjfQEy3E27YjLXMY4nURCmCT6tiDtJNE4zonzpvIhWf3ce7wuUa0ouEdwOP9iCfgoSGA24BJ2Qtrqku5+NwTAIFhmqRijdhGHKVf8R48wsuZcmpGj7diWRK/38cnP3Y2Bfmh3pvOdZ1IPI5zvJQ6Q2MWcFX2goDfx4cuXsjc2ROIR3WkHsWINTlTtv2MexXFj20fZApXKNiWjhE/QCC/imQSTlkwhQvPns+fn3wre8sS4AbXwaMBCLvLioCg+8JpdzOCKG4Io+Kus4AtQNRN9SPcwIn3E7Xutafcj+Hej/fdHLon4KFxqTt9lKG8tIAPXrAQn6YSjxuYqXYsIwoDOMDIIbTAuGoyU+1IU8fWggT9Grd89Byee2Ud7R2x7M0+4I6HG1xhVrlCTveq2l2Bqq4jiOL+3hawHtjpZseUwF73bwKADvwF2AY05frGDwMNWOi6nV7oXkvSzfhpuQkWnnFzj9Xl+mSP5EV7DE4YOCc7oMCnKVx6/gmcNG8isVgSpI2ldyFNAyH6H5VI2xza0RQFy4hhmSk0LYhhWiyYV8vihVN55oXV2VuGgBPdz3CZ6rbK6d/fcF8Kiivoa93MIJvcRHt7XEHvAw7k+gfpRdgV7bWugEsBf38/gfsi3g38EfglEDuE440oPAEfnEnAzOwFleVFfPzK0wmF/HR0pcC2MFJdSGkN33jVC4GCtA1sy4njt21JJBTk7NNm9xbw4ZJ9or37/FXu50R36KADza4v9g63C74LeCOHoY4BtxfyOeBkIP+gt9ZxgZ0HTANmAF8fZb2MPngCPjjj3B8eXB/xE+dOYO6McSQSKYQQmEYcM9XhPCIcng+5RKKguIYwgZQ2UkouPmc+v3vsJWvT1gb1sA4wPBS3pQ+592AycKrbJTXdlLiNwGZghdtFbR2Sxe7QEO6L5UPAlW645cGE2x9B14awB/jhaLYBeAI+ONOyWyhVVRhfXUY4HCSR1AENU+/A0qNZrpKHjpQWvnA5qj/iDl3BtGwm1lTw5U9erHzl2/9NUndsMYoiEML5KEKgKFkvD3dZaXEEv99PS1sXpmkCAtOykOnsWwKkLTEte6j50BT343Ot4XOB8908YK8C/w08547BrSP0G6hAtdsbuB6YP5QZFCHEYNeT9i9/Dnj9CJ3nMccT8OAIt8UJphf4fSpTJ45B82nIhA5YmKlOpGUglMNpHCXSMvGFygiXTkdRg0hpWYAipRS2lFxz+WJhAw/+8SXCIT+TaiopLAwTCfkpKoxQM7Yczadg2zaqquLzqVRXlZCfF6KrK0FHV4xkyiCR1InHU+iGiaKqNLd2snFzPS3tUeLxFNt37aO1PYZl2aR0E9M8qA6Fm43zYneO+i3gb8Dz7tj5cErHlLvC/YI7GzAgqqoQCQeoLCtkYm0lwYCPhn2tvFd3gGgsSSrVxwhd6op4nZtkf9ThhRMOTinwtNtVA6C4IMKff/MVzl06h45oEqRF5753SbTvRFF9h9aFljZS2mihUvIrF+ALliClBU476exQgqoKNJ9KR0cCRRGUFOY5ra4TG4GUblpLWyIUAbbEsGykbaMoCoritMoooCpKposuhMAwLGxpE0+k2Ly9kf0H2jnQEmX1+vdYtnIbjU3txOMpYokUlmUP9crqgT+5cdN7hikSDZgDfN81Pg1IOORnTFUxZy+ezWXnL2DOzPFUlBTiD2i0tkd5b/d+Xnh9A7999GV21/WxweluVpXnj2LX/7DxaiMdGsXu/GoGVVMpyA9iSdsRgGVgm+kGZrjilUjbMXyFCicQLp2B4stLi9fZYdbvZlk2ti0pyA8iEcQSKXe1o1wpZfcpSKcbLSRIkT47iUQg3LG2SJ+zcAQtBAR8Pk6ZPwnVp4EiSCVS7GvqYNeeA2ze2cDK1TvYvLWBnXUHaGpuxzQHFfM44P8AnwCecl+Gb7liHox8d4x6a28DYjYVZQVMmzSGyy48kUvPOZEZU8ai+VT0lIFhWhiGSVFBmNMWzeC00+cxf1YtX/rWQ+yub87ejd8NTnnxCHb5jxleCzw4S4G/ukEMAEyqqeCFP3+LMZVFJHUb24jS0bACPd6EovqHvGMpLaS0UVU/4dKZhEtnOMsto9eLQGZElvlKd8Pcc3n2f4QzJS0zr4Ihv16k7N6Ppqr4/Rp+nwqKgq4bHGjuZNX6XTz36jpeXbaJhsZW4kmdWHxIGXDfctMQLXMtwL0fwGLXOvy1gd6IhQVhLjhzHh+74jQWL5xGZWUx0rSIxXUsW3bPxcv0uN4mGPATygvxnR/9iR/+4m/oRo9pvdfcWOu2I/TcHHG8FvjQmJw9/gWoGVdGZUURhmEihIptm66H1dDkIaUJUqJofnzBMoKFNQQKahCA3UO8aZGK7q8Z3LYz65DSFaiUvdYNQ7iZvWdZ0y3bJp7QiSckQgg0TaWyvJAPXLiQi8+ez+Zte1m7qY4DrZ2sXL2TFat3sHN3E8bA4+ZTXUPXC67leoPbIu90xfst4JP9/aGmKSxaMIWPX30GH7l8MUWlBZiJFF2dcWypOAY5aYJlgNBQND8KClKapHSDoBXgyktP4W/PrGDNxt3Zuz4NOBv436P4LB0VPAEPTlW2BVoRgrKSfEcoroXTNhPYVtIZcw6IRNq2E6GkBfAHywgWVOPPG4eiBZC2iZSm0+tJt5hZsushVLKsx+n1WUcacscp00plOuEDCj1b0KbbNSWexO/TmDV9PHNmTwBF0NHaxfrNdbz8xkb+9fIaNu9o7J3bK02+OxX0IdeZog542+1yn9PfH0wYV85NHz2TT1x9JrUTKtGTKdqbO5ykCAisVAd6ohkj2YxtJFDUIGqwiEC4DF+oFCEgmUwxbVIVc2aM7y1g1T3u3zKm/1GCJ+DBqXAdBjJkpmqk0z+1jBjS1Pv3wJIy01VW1CD+vAqC+ePxRypQtJDTxbOMHvJxd5vegbub7lY1e6o5u1Ee9oBHul3NtPVrGKSHV7puYRgJdzeCgN/HkkUzWHLKdD525RLeWbeLp557h3++tIb9TQParyKuU8WMgTY4/4y5fP3WD3LuGXMBSVdHFMuWzsvPTBJr30mycw9mqgts3RnnC6BDkAzkk1cxl1BBLZZtEwxqTBhfhqYpvcfvYw97Ej8HeAIeGNV9qDLKVBTB2MpifD6NlJ5y0sQqqiNERCa7huN8YSAQKL48ApFK/HlV+MNlKFrY2d42+hVOD4H2ahZ7t5JH4mnLdNQPScjOv7YEISVJ3SCpG/g0hZrqMiZOrOSCM+by2tub+c0jL/HEP1cOq+5WcVEen/rYWXz+xvOpnTCGeDSBrhsIoaKoPsxkG7HmTaS66h1XVUVDqIHu+yJtzFQ70ab1qL48fKEyhKYwbfJYCvPDtLRFsw+XP5Kt0APhCXhgPgIsyl6gKApTJ1ahqs70CwL8kTEEiyeQaNsBluUKQsEXKiaQPw5/uAJfsAih+AEbaelDPoFBDYlpwfUxYg0DKbMe9kN/dkWvf03TpstIoigQDPi59PyTOGXBFM5dOodf/vafbNnZeNB9Tqwp57t3XM01HzgVn1+jsz2KbdsoqoYQKqmuBqIH1qMnW1CEiujPgCgUFDWApXeSaN+JGigA/EyfVEVJUV5vAZe5ftXRg57cCMIT8MBMz3ahxJ16GV9dSsaNSdooWpC88nmoaohUtBFFCxLIqyIQGYPiy0coSneLeySRMjMe7m2zzmagdUNpveVhbJd+v8QTOsmUQXFBhM/ecC6nnTyV//3HCp57dR0bt9QTjff1Yjx7ySzu/PIVnLl4FqZl0dkZd7zNND9Im2THLqLNmzCT7SiqdpCzdNYZsf1YiXbsvDzGVhVTVlLAtvd6FJUb6362Htkf6ujiCXhg9rkeRBlf25nTxjFr2ngSSaO7dbQtFDVIuGwmwaKJTr5nNZjpkg4m3KEIRPY/qQSHIK5hW6MP4Xz77EM4UyDRWAKfT2X+rFqmThzDJ645nZ27m3h52SZ27tqHadpEwgEWnzyN88+cR011KamUgWE62U0UVUVPtJJo3UYq2oht6oiDijd9DiqWESMVP4BuVFJSnE/tuDKWvdNDqwXARE/A7x/U7PGvEDBz6liqxxSh684USeaBlhZCKGg+J39Veu7xYAxFDOJgf5NlTR5OJ1gOsL9BrdEDbDPQ9j1eHkJgmjZRM4mmqdRUl1EzrpzFJ00jZRhYpo2iKeSFAyhCIZk0kFKiKBrSMoi3byfevgMz2eVMjQ3HbdVNlGAm2zCNFMFAkNLiCKqiYNmZ3ynt2/2vYdzGnOMJuH8+6OZ+zsrrKijID6MKJeOw0+PBlXLIQfsDkXngh2NQypoGGg4HE+mh/O1QtzNNC9O0nG6xKghrAdLGd8uyMWx3DlkomKlOug6sxYg3OWN2RXGCRrKcTYZ6NpYRxzZTKOEIkUgQVVOw9IyAFdd1dlThCbgnArjdLRXaY/wrBMyfVQOKGJYldbgHh+EblAbb+rAs1YdgmR7WeUuJZQ2wfyGwzRTRlo2kuvY6fubpqbphi9fpAdhWEtNIoCgKwYDP8QvvyaiaA8YTcA9UN+LlOz1bXofJtZWcf/pcDH2ImTUOwqGMJ4fDsPY9kFAPUbwDdc+Hd+1OZhIj1uS0uoOa6oZ4VtJ2nMuFcCtE9jmLYxlrfUTwslI6KG7C9H7FW1qUx3fuuIqa6tLBXASHxVCMV0N9TEU/n2FxBFrZ3hbug9uFD4aNGsjDFy5H2sO5GwOfoKIGUbQApmERjSV7R1VJN6Z5VOEJ2OEM4J7+ci1XlBbyix/cyNWXnopuDF+8vR47y82SaB3siTwkIQ583KPOUC3iQ78ApxBcXuU8QoUTHVdUeegvTymcfGNCKCiKxLIldt8X16iLRvK60E6Q+HfcVKQZQkE/p544lTu/8iHOWTqbaDSJneX4MMwucPpVb0jQhZNETnMtn0el2zbQ1NPRYqBjyAEs3QzlnKRE8xWQXzUfKVMkO+pQVHHImU+6e8wCTRX9jYFHXYN2vAt4oRva1qNYWTDg40ufvJCvf+Fyikvy6OyI9XB6SpN+OIcw9ZLO9hjMys08vLf90TYoHaLI5UF6C4fr+iltHaEGyKuYBxJS0UbXGj28954AVF8eqi+EZZrEk27oYU9GXQs86t44R5ALgd/2jn4JBf184eYLueu2qygqDNPRHjtSusl2c1alE0ieeQoPatk+Aq6Oh77B4Vx1350Pe3hgm2iBYgrGLiJUPMV9lw3DmChtQEULFKKqfizLRjfMIc3Vj3SO1xb4IuB+N7F5hkDAx1c+dTF3fvkKfD6Vjs7EgOF5h/rMp1uscNCHP+DPPOC2aZFK6RhmdnI50e2n0TPA8JBHubLXXwv6umMOh+F6kh0q0tJRtCD5VSegaH5izZvcEMyDP8ISG0X1o2phKRSFVCIlotEUdt8WeFT5QXOcCviDwE97ixfgsx8/j2999cOE/D46ovEhZyUZeqYLiaqp5EdCHGjpYPVbm4nFdYqLwowfU8q4McWE8kPOHm0bUzdIJE1sN0gifTQhjlzgQebcjlZDfAS7/dJKIRQ/eWWzkZZOrHUr0jbcXGSDn4OiBlB8IVuAkNIWWR5Y2XQyyjjeBPxZN+NDde8Vt954AXfd9mGCQR8dXYlu8R6hsaeUklDQTyAU4I23NvGL3/6Tt1ZtJ5k0yIsEqaooZOqkKibXVDBj6jimTqyguqqU8vJC0BSwJNKySOkmhm7S8wEUQw/kH4DD7VEc6f0OtDdp6wjFT6R0DkLxk2h/z0moIAYfEwstiKKFFCEQKcMinuiT/sfyBDyy+ZZbnLsge6HPp/G1Wz/I7bdeRn44QGdnokfAvOhPvMPswabFm9JN7n/4Bf7zoWfZsqM7pK6puYOdu/fz5grHj768rICK0gKqKoqYN6uGE2bXUj2mlIk1ZZSXFpBfFHFEbdpI0xW1YWbmNYfSczicFje7+z2clvywLNJZNz/d6uaVz8YXqaCrcSWWHu2/KoabEEz1RRBqUGiaoLU9yt7G1t5b6qOx1MpIF/DJbmK5Ujfjf6FbnOrFYe7nRjdJWo8s/pFwgLv+z5V86VMXo6kKXV3JoVlNhyDe7Ic1FPSTSOrc/eO/8OD/vEw0NnghgAPNnRxo7mTDlnpeeG09xYUR8vNCFBWGGVNZzLSJlUydNJYpE6uYVFtBVXkhhUURUFWwbWJdcQzDGlTIh9MyHmqLK4a5/aD31x3/BiJjsUum03VgHdLS+4g4Xe7GHy5DVf0IVWF3fXN/qX6SnoCPHGXAXe54tdydLzXcf28Gfg/8fAiFtgRwiTvP20O8BXkhfnzX9dz40TOxLUk0msRNSdVPxM/wbUbpfaiqQjJlcOePHuM3j7yEfgiumG0dMdo6YuzZC2s37uHZlwWRcID8vCD5kRBVlUVMrq1gcm0ls6aN47wz5hIJBZ1u4qhLEtPN4L0EgbQtEDaBolpUX9gJekhkxQg7SbIJhMcQyKtGUSS2ZbJhcx3tnX20Gh2Nyd1HooCnA//uZgnsrwDXODfg4Cw3YujdQfb1Q+CW3lEmE2vLufebH+OKixdiGKYrqkyW5Awyy0p7KDilPeAHP/8bv+0lXp/Pxw033MA555xDQ0MDdXV17N27l7q6Ourq6mhtbSWV6j9NqxNfmyQaS9JIO1t3NvLaW5sI+H2EQwEuu2ABd992FTVjS4nGU8PSsJQS25aZsi3Hmt7xywft6ksnW6Y/byz5ikbswDr0+AE3OaDEF8gnXDYdRQshsDBSJg1NbSSTfeK0u7wx8OFTBfzArbUzGAG3Qv0v3cyGvVtiBfg28OXeaWHnzqzhZ9+7gTMXzyKeTGGZ9hExAvVGAgGfSl1jG396chmpLPFWVlby7W9/mxtvvJFwOIxpmpimiWEYWJbF9u3b+clPfsITTzwxoIj7HE9CMmWQTBk88tc32LhlLz++6zqWnDyNeGJ4aXxUNXfN9kHjnwe4eClNfKFSCscuItG1FzPRgmWlCBdNxB+qwLIMgj6NzliShsY2zL7VJXaNxkqFI8mRI+CWiryixwkqCuWlBUydOIbCgkjvVuFEd3ybTRi42zVY9RDv/Nm1/PcvPs/SU2YQjyexM0af/k/osB5jKfH7fOzctY8DLV2ZxZFIhK997Wt89rOfJRJxrsfn8xEKhSgoKKC1tZV77rmHJ554Al0fWHhCCBSl34gaLMtm5ZqdfPr237Bq3S5CwYNMs7wvcKON1BCR4ikUjDmJwrGLCORVY9uO67mqqbS1Rdmzt7m/HawYjVUKR0oLLNz6N19Pv1RUVeGkeZP43CfO56R5EwiHgrS0dfGnJ5fx7w8+i+5U6Au6nlQ/yeroht1yHJHsA9SOL+P/fefjzJ4+rscUwsFa3kO11qqqQiKZ4q//WE7KrSaoaRrXXHMNX/jCF1DVvtMe27Zt4+Mf/zjLly8/6P5LS0u5+qorEIqPN954g127dpFMJjEMA9udYtr2XiO3f/cPPPqrL1FaFDmkYIxjwZGdg7bdWT8FRVHdvdsIt3xMQ1M7+5v7DHUN4GUvK+WhU+h2hQMAmqrwiWvO5NtfvYLamgpSSR3Lshk/toSF8ydi25Kf/vrp9N9OcSvObxVCqEKI66WUl2S7JtaOL+O/7r2FpYumE0+mhj51IeBQfCaklISDQdZt3sM/nl+dmd4pKCjgM5/5DH5/3wyKtm1z3333DUm8AC0tLUyeMp3bbruNRCLBpk2bWLVqFW+//TaPP/44zc1OK/PWqu38zxNvcvtnLkU3DqdI4PDvwUBjaEWkSz7JzBT7kEQ87Ayc3RsqikAKWL1hN/ua+gx164C1x+zmHEFGShe61K2cDsCSU6bzna9dTe2EKtrboyTdYlWJpI6um3zqurMpLcpLb14OLFUUhUg4cFIwoN0qkZnWt7gowi++fyMXnTXXMVzIYfjiDvSgiIPvQdUUtuxopCvWLZpQKERFRUW/2+/cuZOVK1cO+YZJKdmwYUNmvyeeeCK33HILv/71r7n33nvJy3Puj2laPPHMStraY059o6OA3Y9XU3/i9flUQkEfgYCPYMBHMOgnFPQT9Gv4NLWH4axf35lhhgVnb+rzqSSTBqvW7SQa6/Mie3c0dp8ZQQKems7MH/BrfPiSUxg3poSujmifByFlmEyoKefSC05ML8oHJjlJG8S1piWnpH85v1/j21/9MBefNZ94PJUJGDjU8PDugglD2IMQ7D/Q0SNljKZpA7ZKy5YtY+fOncM6n1QqhWX17RbfcMMNzJuXeR+yZlMdL765kWAocETTAQkhsG0bXdf7FXH2dn6/hpSStZvq+Ns/V/DPl9fwxoqt7K4/QDTmDGmCAT/hcIBIJEAk7Mfv01BVZ5yfvuNyGH3tTIMtnSJt8XiSxv3t/W26ATgyqVaOMSOhC624U0cBgNkzxnPR2fOQboLwrKrzMt32aZrK4pOm8t9/ehW3RzZe09QltmVd446NAbjqskV84uozsKSNYcu+TvzDZLh/Ew75e4yxDcMgkei/G7tx40Y6O4c/i9F/S+dj4cKFLF++HMuySCZSvLFiC1deegqqovQXyH5ION1kBb/fP3B3WRFEwkF27mnigYef569Pr2DHrv34fCrhUIAJ48uZNmkskydUMnViJePGlFBdVUxJcR6RcIhw0I+qObMEti0xTBvLtLBsp9Rq76CPgbBtiaaqREKB/larnoAPnULg9PSXWdOqmTC+nFQi1f9DIR0ra211GZqmYpoWilDOBDEtpZsZH+eJNRXc9rnLKC6K0BlN4P5AEvANNfB8uGTvQ9o2YyqL8fs0YjgtTCKRGFCkmjb8nyIYDKIo/Xei0hZuAFtKOrvi2JZ9SCVUBsOpi9T/OSiKIC8SZFfdAb5172M89sSyzDrDsOgw4qzZsJs1G7oLjRXkh6iuKmFiTTkTxpczubaS2vHljKsqpry0gOLiPPLCAcK+AKgCbDDduXzdtPr39hKQ0g0KiyOceepMnnlxTcaw6HI58KBbIXFUMRIEPMn1lsLnU5k7fTz+UJDO9mjvt2rGp8KybKZMrKKkKEJTcydSylpdN2vT3bi8SIBbb7qAOdPGkUjoILGFM8bxH0461YORHe5nmhaTaisoyA/T1uF4/cTjcZ5++mkWLVrU529POOEE8vPz6erqGvLxampqBlxnGN0PaFpIaceSY4ETMuln/ZY6bv/eIzz70tBsRJ1dCTq79rJp297MsnDIT0VpIePGljBxfDnVY0uZWFPBxJpyKkoKqKwopLQ4j2DAR1c82W/yBdOysWybyy9ayB//9iYrVu/IXj0HuA+4zk15NGrItYCFmw0/BFBZXsT8OROclKK2PWC3TEonnjYvHKSJTqdLmPVkLjpxCjdcfTp+TSUeT9lCEbrryTX0CtyHc1ECdMNkTGUxFWUF7K53/ExSqRT/8R//gWVZnHbaaYwbN44ZM2bg9/u55JJLuOyyy3j00UeHdIzq6mouvPDCftelUjrbtm3PjI99msb0yWMRqpPI/Kg7WEmI5AXZXXeAL935e15+c2OP1bNmzaKqqoquri7a2tpobGwkFhvYDTme0NlVf4Bd9Qd4/e0tgDMlVFFWQFlJPuOrS5k8oZKPXr6YkxdM7bdciyIEsa4kEydU8rlPnMeGLfW9I5KuBP4MPHaU784RJdcCVl3XSACKC8OMrSoG++DzlUIR5OeH+123u66Z197ewocvXUQw6JfJlKEJMfi1DlbC5FB8odOlQq67cgkrV+/MJH1vaWnhBz/4ARUVFVRVVTF79mzOPPNMFi5cyI033sjWrVt55513Bt23pmncdtttnHLKKf0fO9lK/e4tGYNVOORnxuSxWdkdu6+026h15LzRNE1hz94Wvv6DR3uIV1EUPv3pT/OpT32KsrIy4vE4HR0d7N27l9bWVvbt28ff/vY3Vq9ejWVZbo+h/xtv2TaNTe00NrWzbnMdAG+8vYX/+dWXmDKhio7OeM+azQJsaZNMpLjuqtPZtnMfP/vNM04PrZu7gdXAliNzJ44+I0HAJZmTUVUCPvXgYzTpWJjHjSlmzYZdfVZv37Wfr3zr9wgJl194kmLZlkjXgh3IiHVILnyDnaIEXTe4+SNnsW5TPb/9Y88AqqamJpqamli7di2PP/44NTU1TJgwAdu2CQaD/bpQBgIB5s+fzyc/+Umuv/76Ace/+/dup6Wl29uouDDCmKpiTNPqrkMsHaEFA46hzTAsDDMdknh4Yvb5NB7+86v85anlWct8fPGLX+Suu+6isLCw37978MEHexj5eotXURQ0TRvQQ23Vul1860d/4oEff4pwOEAsnupRz1kIQSJpUFjo4/bPXcbzr63v3ZWeCXwauO0wf/5jRq4FTLZWVE11jDkH1a8k4PcxcXz5gNvUNbTwhW/+jqaWTnHD1UtRFYFly0MT5iGMGx1R2IRDfr5z24dBSl55ayPb39vfZ9tkMsnWrVvZunVrxkMr/fCqqoqqquTl5XH22Wdz6623cvbZZw967H//r9+yt6Elc3sn1JQztqIY3TAzxcaCAT8I2Le/DdO2KSwIU1wUAQR6ykB344uHauVNoygC3TB5/tV1PZafc845A4o3mUxy++2389hjj2UcUPr9GaSkpqaGj370o9i2zdq1a1m9ejV1dXWZbf761NsUFoT5wdc/QiQviJ4y3XOXTm5oRdAVTVJSVcJl557Au+t2YfacirsU+O5oCWwYCQLuLk4jhOMxMwTBqKpCSUneoNs07G/jBz9/nIXzJzJ72jhswzxmRhxcESeSOmUl+fzoWx+lrqGFtZvr+N9/vM2/XlpDMtW3cmHveV3bdkQUjUZ588032b17NxMmTGDGjBnMmTOHSZMmMWPGDAKBAOvXr+eBB+7nDw//CcP1/lIUwdRJYwhHAsTjTqseCQdpa4/x/+5/in88vwpV81FZVsCsadWcvWQWC+ZOpKK0gLz8MEjp5OrSLTeLo+M9NZCg/X4fr7y5iXVb6jPLCgsLufbaawdseX/0ox/xq1/9qt857WyklDQ0NDBjxgyuuuoq2traaGlp4aGHHuJnP/upk9TAtvnjX9/gpHkT+cwtF2M6Rs6e+7ElqWicT153Dk8+9y7vrO1hfJ7sJn/42rF7Ug6dkSDgzN0VfRcN+BdCCPIjocwiv0/j0vMWMH3SGB77+1u8t8cJLKnb28KLr29g5tRxg46pjiYp3SQcCjBrWjUzp1ZzwRlzWb+5jtUb9rB5+142b2tg+6597D/QNxw1neBO13UaGxtpbGxk5cqV+P1+wuEw4XCY6upqfD4fdXV1NDQ09BBCKOjjiotPRkpn3jQQ0DAMk188+Aw/e+CfPaZTXnpjAw//5TXKywqZOL6chfMmcvqiGUydNIayknzy84MI6UxL6YaJYVg97me6pfvTk2/S0dFtlJoyZQqXXXZZv/dm8+bN/PGPfzyoeNPE43GWLVvGNddcQ2VlJZWVlXznO99h0qRJ3HHHHUSjUWKJFN//6eMU5oW4+vLTiMWSfc4zEU9RPbaUH37zWr5w5+/Y2p0hRXNTL9UDvzjmD8swybWAFaC7GRWDxt+mLTCKdFvrqvLuN/qCORP44bc/Ru38qUysreRr9/yBji5nPPXWqu184iNnEg76j4C/ujyIVav/pkk3TDCcFrEgL8Tpi6az5OTp6KZFLJqgfl8ru+qa2bqjgc3bG9myo4H6vS0caOvqXQLE2Z+uo+s67e3tNDQ0DHi2H7/ydE47cSrJpIGiCHyaxpPPruSXDz7bey4Uw7RoaYvS0hZl87a9vPj6en75u2cZW1VMTXUZ0ydVMXXyGKZPGsvUSVVUlhdi2TaGGyShqSpt7TFWrNmRuTuqqrJ06VLKysr6Pb/nn3+evXv3Mhza2tqIxWKZFj0cDnPLLbfg8/n4/Oc/j67r1De28oOfP8782bXMmDaOjo5Yj1kNIQSdnTHOPWMO9935Ma679ZfEuq3S+e5Y+KmRPjecawGrQMY52LJsTMvuaT3sRvRupEuKu5NsnHbyNKZPGgOmwbxZ4ykvK8wIeN/+NnTdJBwMMDycEDXpHlqkfaDTPmHCKbol0oYhbLBt59/MSQsk3V5glmVjWwLTFE6ZDwGFhWGKiiPMn1WDbS9AN0yi0RQN+9vYVd/Mtp0NrN1cx5oNe9hdd4CUbrgt88BnLoTgxmvP5O47rgIhsCyJ36eiGwZvvbOdjs6DlwFK6SYp3aStI8bGrfU8+4qCqir4NI3acWV88IKT+NT1ZzNuTCmJpI6mqRxo7ugRLBAOh5kxY8aAx3jttdcGnULq91fJpN3tRtM0brjhBrZt28Z9992HlJKN2xr5j4ee48d3XYfP78PQzR5df1tCIqFz5pKZXH7hSTz6xJvZ9zRdseNLQPtwzu9YkmsBm24gNbgPTDJlgHIwF21nUiY/EiIU9GPZkskTKkFTsKNxqquKKS/NZ/t7+9ztxRCNV+nQGKfWr1ACqKEStFAliq8Aofi7iywoKkL1I1C7B4S2gW0msO2Ek59JqAihIaUFQkFaKexUK9KIYptJpLSQmNim4yRmIBHCaaULC0OUlESYP7sGOIlkSqe1Lcb2XY2s3bCHdzfsZtO2veyubyYaS2K6BidVVagsK+T6K0/nq5++hEhe0HlwEaiKQmc0QV1D85DuRo8743rAWZaNrpts3FrPpm17eX3FZn5+zyeYNXUcQih0xVJku7M6ftADT7+3tbUN+1wURenXAu/z+bj99tt59tlneffdd7Ftm6eeW8UVF5/CuWfOod0wkL2eBcO0CAX83HXbVazbUs+6TXsyp+5GyL0O/HrYJ3mMyLWAk26SujsBJZXS6Yomeg+Gk66fdOYXk+44rHpsEbOnj6OtI8bC+ZOQhoVhWJQW51Nc2B0OLIQ4SARS2jgjEKof1VeAFh4jfZEaoYTKD5qyNJuhbCktHWnFkdJAWimkEcO2TWy9HVvvwLbiWEYcyzKck0KiCIWKsnzGVhVz7unzsG2Lzq4Ejfvb2bRtL2s27qGjK870yWM5d+lsJtVWOONUPdsjS6GlNcaOfizhh4KUkteXb+H7P32cX/7fm5zEC5OqOOPUGTz57CoAOjs7efrpp7nxxhv7FV0kEhn2cWtqasjPz+93XWFhIWeccQbvvvtu5rf3ad0vWZE1/Ek/D8mUwaTaCr7yqYv41O0PZCd8z3eLAPx+pHpo5VrAAO8BjUB1Z1eSfU0dzli4p9r6FrGxbEqL8rnzyx+ipS3KnBnjicWS+DW1u6vrUlQYRtPUHsnRnY/tZC0UAtVfgpZfiy9cgxooldlRFEcaofoR6gCtkrSxrQR2qtU04/sMK9Xit41O1TbjWIaRmQMVQsHvU5kyoYJZ08Zy5QdPdfqE0unJxJN6n7smBHRGE/1lZDws3ly5lbqGFkpL8igpyuMzN5zHP19a64z7gTfffJNXX32Vs846q8/fnnrqqTzzzDNDTh1UUVHBueeeO2i+ruwWPxj0U1QYBstO5wnu92903eCCM+cxc1o1GzbXZ686z82r9quRWDtpJIQT6um6rG2dMTfdSUaAwnWz7NOwpf2eLz1/ATd+5Ewsy8YwTLSAj/0HOno8pCfMmUA4HHRr4aTHrhbYBoovQqB0AZFxFxEsPQk1VM7RFO9BEQqKFkGLjFeC5SeLcPUFMlJ9gQxVniaDxXOkP3+i1ELlUqhhaVqKTCRTtHd00dbaTnt7F+0dnSSSyX5tbLYtKSwIMXZMyaGc2YCYpoVhWggESd1g7sxaZk7tzp3f2NjId75zN2vXriGV6unmeN5551FZWTnkYy1evJiTTjppwPVSSjZv3pz5nkoZmXDFwbBsSXlJATdefSaa1kMW+W7h91lH9KYdIUaCgEmHcqVSBjv2HMA2zH5TzvRHPK4TjTmxvoqioAR9vLJsI1u2d1tmZ0wei6Yp3QYK2wDbRA2PIVx1FsHSkxBaeEjHO4YoQFAIRVP8RcJfME0EKxYTrj6P8NjzZbj6XBmqXCKDpSdKf+E0fOGxKP4ChBpwOonSQNpmD68207KoGVvKmYt6GpXS+bUOlYk1FVSWFyElmIZFeWk+n7vxfIKB7lxcr7zyKldeeSXf/e53efLJJ9m8eTPRaJSTTjqJG264gaKiooMeJz8/n8suu2zA+WRcD7dNmzZlvvs0J4nAwbp0Ukos2+a6K5dy6klT+1wisIgRyEjoQlvZ2RC2bG+gpbWL4oII0bg1RA8gp1hzXiRI14FOnvjXO+kQQiaML2fuzPGu1VKCNEHR8OVPIVh6IoqvYCgHGCkIECi+PKH48iBUmX4OpTQTwjKjSKMTS+/AijdgJpvB0t2eh4JpSPLzIyw+eRoR19WQLAH3Z90dCuedPpfqymIst4aTaVpcd+USGhrb+I/fP0tLqxNhtX37Dn74w3sBmDNnDkuXLmXJkiXMnz+fJUuW8NJLLxGP928dnzBhAnfccQe33HLLoOdy//33s337dve6YMbUsUwYX47ej9NMb0zLoqwkjxuuPsN+c8U2bNtOv9UCbpGB37v5s0YMI0HAKXfSfAHArj372bm7iUULp0I8OWSvZFUR+EJ+/vL35bz0RrcD/VWXLWLyhErHo8k2EWoQf8kJBIpnDamy3QinO95CC6FpIQiW4wNk4XTMxH6sRBNmqhkr2YxtxtF1jVMWTOGis07gr087vsqDZdMYCvNn1xIM+Ii5UUCWZRPwa3zrq1cwaUIFd977WJ9SJuvXr2f9+vX86le/orKykpKSkkzGkuyXiM/nY8KECXzjG9/g5ptvHvQ83n77bR544IHM92DAx2XnLaC4vICOlq6e88D97UCCZUnOPm22mDN9HGu7LdK4FUJmjrTcWSPhCe4ClgEfANhd38z6zfUsOnm6Mx88lDImUhKJhGlt6uDhv7yaybpfVVHE1ZctIuDzkUgmEGqQYPmp+Aun5fqajzpCi+DLn4QvfxK2EcVKHkDveo9UbA+VZUEuOXc2Tzy7gkyQxyF6qM2aVs2cGeOwpY0tZZZl1yQYFHzi2rPIzwvy//3XP1i9fjfxZN/x6P79+9m/37GM92ecUhSFF154gZUrVxIIBBg3bhwLFixgzJgxaJpGWVkZ69ev5ytf+UpmPwAL5k7k0nNPRE8agybZy3bNMS2b6qpicf1VS/n69x/Nvi8z3AyonoB7YQBr0l+SKYNNW+uxUgY+VUU3Bu9GS+l4+2hBH3//yzu8uqx7/HPztWcxZ0YNhmEgJQRKFxwX4u2N4stD8eWhhasxYvUgGli6uJPZUytZs6nRvY+HJuAbrj6DaZPHkEr1zEgjBCSTOqZpcfmFC5k5pZp31u5k23v72bF7H/V7W6nf10rDvjYSye7oot7nYRgGW7ZsYcuWnhF+NTU1lJWV4fP5KCsrY/PmzezY0R1ZVFaSzze+eDljx5bQ3h4dcpUJy7LwaT6uvuxU/vH8u7zS/Twp7pTSo8CRmYc7AowEAau9y32uXLOThv1tjKsuRe8Y3GNICEF+QZh1a9/jJ796ipgb3zl/di3XXbkEf0Aj2tWFLzyOQOH0XF9rThGqH3/BJGAcUxZM45OfbObf7voxsfjA6WYH8x9fvHAqH7l8MZqqELf0viGZQmBZNvFEimmTqpg5rZpkyiAWT9LaFmV/cyeN+9vYtG0v29/bx3t1zezZ28y+pvaD1pDas2cPe/bs6XddIODjm1++nMvOWyCjri0ky12u7zX2+q4bFuOrS7n52rN4653t2S6nS92x8FO5/SW7GQkCzutdjeHt1Tt44tmVfPbj5+HTlP7KYGQoyAvSsLeZr33/EdZnzd99+vpzmDmlmljCGUf7i2e4nlTvf9auXcuUKVMIhweyrPtRghV85PrP8ecnXuS1114fcF8DiXdsZTHf+sqHmTC+nK5oclBLhW1Lp0aTEKiqQl44SGF+mMm1lUhA101iiSTtHXH2NbXTeKCdHTv3s7Ouiff2NLGvqZ19TR00tw4t3dCnrz+HT19/HqmUKUzTrdI4jA6GbTvpd85aMpuli2bwwmuZ0MiIW7Pr+ZGShnYkCHiuO7bIkEjq/O7RV1h68nTmzaqhK9r/vfL7fTS1dPCNHzzKv3rlXGppizolNjHRwmPQwtUcD7z00kt86UtfYunSpfzyl78cdDquorKKiy6+hDffXDbkaCCA8pIQP77zSi44YwbRrk4yIoHuInFC9JyldPNxmablJhYgs52qKORFQhTmh6kdVwbScXFMpgy6ogmisSSdsRR76pvYubuJbTv3sW3XPra/t599Td1uyiVFEW78yJl85ZZLUBWFlG4ccoE2XTcZW1nEhy9ZyCvLNmaf82nAGNcBKefkWsBh4Pp0Stlstr+3j7qGVubNqu23G6cqCrZt8ZtHXubRJ5b1Wf/rPzzPOUtmsWjBJOzCqQh1uIEMo5Nnn32W9evXs2XLFj7wgQ9wySWXDLr9tR/5CE/87W+8/fbbQ9r/vNlT+b93f5ELLzwFO5VE0cBv60gr6cwISgnSwjZT7gyhRFqmM30n3cRCUrjedgIpFUxpY1qu0ITT21UUQTDoIxzyU1VRBAhOnFuLtCXJlEE0lqS1I059QzNbt+/DME0WnjCZE2bXEghofSKthovpZvA8c/EsTpwzkbdXb0+vmukJuJsqN6VnH2xpY9vWgGEIqqqwu/4AD//l1czb0e9TEYpCKmVQ39DGg48+z+yZn6Vo3PgjWn1nJBMKhQgEAqRSKb7//e9z+umnD+g3DDBp0iQuvPBCVqxYMaghS9M0PvnJm/m3f/sGNePHIRQVaVtuzVcnasv5r2vVth0/b4REWjqWEUXq7Uhbd9aZScdl1IyDbSAx3ThvBYnAkgLL6vmbCTfhg9+nUVqcT1lxAdMmVXL2kjluzBeuR97hezwKQDcMJo4vZ+miadkCLgQ+CqwfCVk7cilgBTjVFTEAeZEg4ZCf5tYuJoyvoHpMKRK73wdLCEFre4x9bhB8aXEeX7v1g+xtbOMXv30GgEf/uozrPno950wNDue8RjVXXHEFDzzwAPX19Sxfvpzvfe97/OhHPzqop9Vg4p00aRLf/e53ufrqqwkEunsyYpB99n5dasgeFS2ktJCWjm0lkEYndqodU2/HNjqRRhxppxwHFDdHrBOWqWBZsodDsnDXIThoiOVwMU2bvHCQqROrUBUno6fLJW4N6+NawP703G+a00+dwZ1fvoIX31hPdUUJk2sr+yvEDG6y8vFjS1mycBprNtVx920f5pbPXMJLz63mr08vZ29jKwnD5rF/rOTks68btBV6PzF37lxuuukm7rvvPlKpFD//+c+Jx+N88YtfZOLEiT3GxIZh8Morr/DnP/95wP2NHz+e3//+IZYsWXqYBb97RqgIoSIUP4ovD4LlkC8JSIm0k9hmElvvwNLbsY0OpN6JbcSccEzMTFFvcMbVTrd8aGchnQ687BNf3g+2LRGqQu34CspLC9h3IDPenuQW1dt6jH7Wge/qQG/eY1CdvRxY7vqZUlQQ5uff/wQ33HgBRnvMcZA3rEw61v7OTwAtbV3EkwYTx5fh0zQMy+Lz3/gdv//TK0gpKS4u4ZVXXmHu3Dm5vtfHjFgsxuWXX84LL7yQWVZVVcUll1zC5MmT8fl8JJNJ3njjDV566aUBszwKIbjqqqv405/+5CxwXTKP9WjE6XInsI0OrFQzZqLJCbs0k0hbR6T1OISic4BECDfHghSDVeSQEgryQuzYs1/e/JVf8frbW7I3/SHwvWNljR5Ip7lsgWuBTGmB+bMncOn5J2K2R4kndLeg1cCvVekaRCrLi1AUQUo3SKZMiiuKuOaDp/Cvl9fQuL+NtrZW/vnPZ5g1a+aQAyRGO5FIhPvuu48rrrgiM1e6b98+HnzwwWHtR0rJ8uXL+de//uUkkRe5iX0Rig/h96H4C9Ai4wkgsfUubKMTM96ImdyHnWp3xtxkR5z1vzsQQiiq20Xvf7ycfvJ0w2BsVZGYMXWs7SaVT4v4AuA/XTfgnJHLaKSZ6TDBYMDHhWfPo7SqOOOIMVTPIN0wSaSMTKZEM57klAVTmD0tky+eP/7xjxw4cCCHl3rsOfHEE/nlL3/J9OlDc17J03ycXlnN/JKeuav27NnDTTfdxNNPP33QfcTjcVavXj2s8jCHhnDFPI5g+cnkVV9EuOpMfIXTUQIlzoMgzYH71dIJahHIAes6iXRqYNMmEgwyqaZC9OqVnuBmsMwpuRTwxen/lBbns+TkaWDZh+TSl+2intJNiovymDqpKrNi9erVPPvsszm81NzwgQ98gMcee4ybb76ZcePGZe5VWNMo9gcp8gcYF8njlLIqvjRrAfctPIM75y1icn7PcL3GxsZM7eEdO3YQi8UySfV0XccwDOrq6rjnnnu46KKLeOihhw47QGJYKD60vBrCVacTHnuuDJacYAstXzrhlP2dh3QNXnY6xemAu5ZSgiKoqS4Vhfmh7A3NISZgOarkqgsdATJR2YUFIWqqy7CSh1fhUQhnGkHxacyeMc4JmXODue+//36uvPLKQ0rhMpqZP38+v/3tb7n++ut55JFHCGs+rqydwkmlVcRMg7HhCJPyCyn0B0haFlMLivnG3FO4b/0KtnV2O0k0Njbymc98hkWLFrFgwQIikQiKomTm6N955x1efNGpPvH444/z+c9/PifXq/qLhFp2EmpojEy2viusWL0jYsXXf4ssB69LKd2uXWV5sV2QH6K9M55u9CQwsA/qMSJXAj4pPf4VQjB3Zg3V48qJRxMDvQ2HXP3Ttp2ph5PnT6KqvIgdMcfvfPny5bz11luce+65Obrk3FFfX8/rrzvukoU+P5eNm8jJ5VV06jqWlCQsk5ZkwglAEAqnVFTxrXmn8p+bV7O8eV+PfS1fvpzly5cPerzq6upjYQQdDKFFxhL2F8hU6zphdGzGtpOuK+1AxWUHQdqEgn6nmkU3QTdLx/Ls4gTHmlx1oc9ybwDhkJ+li2bgC/owrX7ru9rDS+Ys0BMpZk8dx9RJYzJLLcvikUceydHl5g4pJevXr2f3bqcG77TiEuZUVWMF/KjhEP5wmLy8PPJCIVShYto2rYkEc4rL+fYJi7lxyixq8gpQh2jA8vv93HTTTYeV4eMIIRRfnghVnEqw8jRUf5Fj5BrmEE06GRQpK8lTigrDvS9qen9ehMeSXLXA89L/CYcCzJ85HgxroLf2kOYGMhsLJxa1oCSfs06dwStvbsyEq73wwgs0NzcPmGT8/YhlWaxcuRIAv6pyRs0kZlSPpy0RzwTBOnGwJvFUilgySWc8SqeeoDIU5tYZC5hWWMJ33l2GdZBnf+7cuXzmM5/hzDPPzPVldyME/sLpKIFiUs2rMKO7naHrMCzqtpSEQwFCgT7BMPm5dvHLhYAjQCYot6ggQs24ckzdGOheDPsGpbvRixdOo6Qoj737nGwQDQ0NvPvuu5x//vk5uOzcYJomq1Y5KV5Dmo/x+cUIRcGSEiUdeAD4NB9Fmp+CcISivDwamg8QT6UI+/y0JBOYWcagj370o1x66aWsWrWKtrY2wuEwc+fOZfHixcybN++Qz/VoogUrUKpOJ7lfoHfucLrTQxKxcDyyIkFKivvYTya6DkkHz5J/tK4rB8escJ3BAcG0yVWMrSohmdSPaOFpK2VQU11GYUGIve4wzrIsli9fflwJ2LZtGhudoH0F8CkCbJmZRyc9PnG7lkII8gIhKopKaGhu4kAizpP1O50i6m5x7rvvvpvp06dz1VVXkUql8Pl8hEKhQz3FY4aiRQiWn4o0ExjxBoQS4GAPnRBOrqxIJOAGVfRghusKnLPKDbkYqOSnx7+qqjCppjwz/j1SCCFIpQzGVBYxa9q4zG8kpcx0J48n0lM6ppTEzcEt/VJKTNsiPxSipqSc5xt3s7PT8TfPz8/n1ltvzcwtBwIBCgoKRoV40yj+QoJVZ6CGxgw+V5x9T2yn7pPf16e9K8wuDZST68nBMQvTxxWCPnGkRwrDtAhEgpx28jTCoW47w6pVqwatQft+JB2AEDN0Vuyrx7RM/Io68KMrIN/n5622/Ty4bQOW230+7bTTuOmmm3J9OYeNGighVHUawl8wwDxxT2w3ZXFJcR5qT+NcKteB/bkQ8NhuAQsCGcPAkS37KaUEy3aSumcJuLm5mZdffjkHl50bVFWltrYW3AfxzYY61jbvpygY6veWK0JQ6Avw8t7dfOP1F2jXnXn00tJSbrrpplHV2g6GFqwkUDTXGQcfRMS2bYMqmD2tmrLSHjWpRa6rNeRCwOPTHiyqIihwi0gfcYQgEU+xYPYEZk3vdqs0TZNt27bl4LJzg6ZpLFrUnZN8a3sL337zBba1NVMaDOJXFHzuJ+TzoQrBn7du4PMvPMWO9pbM311wwQVcddVVub6cI4q/aAZqoGxoz5+UFBXlEw71CE01cl0zKRdGrEyiJiEEQf/R8UYTrp90UUkeZy2eyVsrt5LSTSzLYt26ddi2PRLmKo86qqpy/vnnU1VVxb59+5BS8sx72+jSdW5fuIRZJeVOLK0tea+rncc2r+Mv2zfSmVWraOrUqdx1113vu2AQoWj48mqxks0H9xUSAt19frKX5rq6SU4zcgghyIuEjnTvOYOUEkyLJadMJxQKkNJNbNvm2WefZc2aNSxYsCCXl3/MmDhxIp///Oe56667nPsCvLZ3Nyv272VMJJ+gG4bZEO0ibvaMv66qquKee+4ZtMbvaEbLq4X2DWANPJSV0klGUFQQ7u2NZafLAuWKXLw9QulXXTrv0dHDCTOcPXUc47MKeqVSqR4FsN7v+P1+rr32WiZMmNBjedI0ea+jjU0tB9je3tpHvGPHjuUXv/gFH/nIR3J9CUcNNVCMFqpEHiz4QoJt9YlPbwE6cnn+uRBwptWXUh40/+/hIAToukVlRREL5k7MFB20bZuOjpze92POlClTuP/++1m6dOmgxcFw44lPPfVUfve733H11Vfn+tSPOr68moPOBwOoPrX3sCviOnLkjFx0oTNeK0KkW+Cj1IcGLGmj+lVmTatGVZ1Mlrqus3VrzrOhHFOEEFxwwQUsXryYxx57jL///e9s3bqV1tZWEgknqCY/P58pU6bw4Q9/mGuuuYYxY8Yc9nFHA77QGBTV71RzHAhVEI3rJFM9spcUpH0ackUuBJyZPddUlTEVRUfHCp1GgpUyOfmEyWiqimFYmKaZce4/3sjPz+eWW27hlltuYf369Wzbto2WlhaklFRXV3PaaacNqdTn+wotguIvworvB6Wvoc7J1KOwd28zbe2x7FW2W986d6eeg2N2V9QTOA7iR1G/IDAti/FjS8iLBDOBDQ0NDei63qOa+/HGnDlzmDPn+MkVNhBCKKihKsz4vn7t0JqmYSRSvLPuPTq7eoQAt+Q6M2XO51GsIXjCHA7pIP/CgjCTJ3RXgq+rq8vUkX0/c0wzY4xitEg1QulrUJWA36fR2Rln6859vVdvyrUnVi5a4B7t7bEI/DZNm+LCPGZMGctbq7aDlKRSKRobG5k1a1YObsHRJxqN8thjj/HKK69QWFjIlClTmDhxIrW1tdTW1h5/3eSDoPqLUZQgth3vOR8sJZpPpaU9Slt7tPefbTyuu9C4uXePdkilRKKqgjEVRSjpvIVuVfr3K52dnXzve9/LZKVUFIXy8nLKy8upqKhg/PjxTJ48malTpzJlyhRqamqoqMipX35OUVQ/wh9BxqOIrHGwEAKhCJpbumjvWylz+/Eo4EwLbJoW9Y0toBz9Vti2JWPHFGdKOVuW9b6eSiorK+Ob3/wmv/nNb1i5ciW2bfcopI0r6uLi4synurqa008/nZtvvvn4a6GFiuorwKSxb6466ZQc7Sdirv2oTqEMgZy2wIZpsWvPgSHNwR0u0pZMGFeGogps03HmqKury8HlHxv8fj+f+tSnuOiii3jzzTf5yU9+kgnsT2PbNi0tLbS0OD7PK1as4Omnn6a+vp577733ODPwCdRINaKj/+nFeDxJqq/PQs59S3PaAttSkjzMKnJDxZaSvEgIVVUwTYtkMsmuXbtycPnHDkVRMmPeOXPmcPPNNw8YD11UVEQwGCQYDDJp0qT39fBiwPvlK3SzdHQP6xS3tvD+lk46Ont0oS2gLdfnnAsBN2Wy+El3DHxUG2CReWeoisg09pZlHVdRSXPnzuWhhx7iq1/9Ks8991yPdQsWLODee+9l+vTpCCEoLy9H03JduPLYY+ut7qPZfe2qqmAYJlt3NBCL9zA4HwAacn3OufiVtqZjKG3bzppXO7rd6HQLXFQQZl/SGfvu3r2blpYWSktLc3Abjj2zZ8/m0Ucf5bXXXmP9+vWkUikmT57M2WefTU1NTa5TweYYibRSPWKSpJSEgn627tzHq8s29/Y32p7rOWByJOD96QgO25aOgI/qg+OWs7QlkUiAosI89jU5Ao7H4zQ1NR03AsYNzP/Qhz7E5ZdfjnSr/B3fwk0jnBpM2XU+hECoClvfa2TLjj6N7fbjObG7wG0VOzrjSMNEUcQhlVUZKraU5IeDFBdkwpExDINYLHZY+x2teMLti5QmbtlCSI9/keyuO0BLW5854E0jQcC5sFQo2ceNxZOkUjrqUZ5KkrYkLy9ETXV5Zpmu6xkLrMfxjgRT7+GXr2kqqaTBzt1NvTe2gNVuRo6ckgsBJ7Pdz6Tri3q0p5Ik4FMVamu6k7rruk57e84ygnqMMOysoH4pwefTaNzfzpqNfQJf9rvG2JyTCwE3AnvTX/Y2trK7vhl/wHdUu9C4VeZKi7uTktm2nQml8/CwzXhGEqrqDDGWvbON5av6+MzvGQkGLHIk4BiwJf1l7742Xl++GV/w6DoNSHdMU1zYnV0/mUwedylmPfrHSrVhpZoz9YI1TSWR0ln+7g5i8T556/6V3QjlklzN1r+TNg8nkzqbttQfG28sKaksK0RVnctOJpPU1+e0wLrHCEBKG71tA7YZBSGQroC7uhJs2tbn+WgHXsx1Nso0uRLwu+n/mJbNph17ScUS+HwHNYofVh/btqG4MEJenpNEQUpJQ0PO5+I9coydasPo2oVw5aAIUBR4b08Tazb0Gf8+mf385ppcCXhjthFg5+4D1De0Egr6DzYOPqxmWkqbUMhPONid6D0ez1ldKo8RghmrQ9qpTLEzTVUxDZvnXl3H/gM9Al5agEeArlyfc5pcCXgfkHm1ReMpWlq7UHxH1zdcSommqQR8RzMTpseowjYxE409Fqmqws49Tfz1H2/33vqfwOu5PuVsciVg250IB6AzmmDjtr2gqkc7PRZFBRGKCrvLg3jODMc3pt6GlWzL2GAU11/+lTc3sWFLj/FvEvhHLkuJ9kcuBfx8+ktnZ5wXX1uP1E38/iMt4p4CDQW1HrmovZQzxzdWbC/S7p7/VRWVaDzF86+t7/1svOEar0YUuYwZe9edUkJKyYo1O9iwaTfhSOioxkjbdjoLiIOu5zShgkcOkVYKM1oP0nJ8oYVA1QSvL9/C0y/0sVM95TpwjChyKeA9QCaeb+fuJp55cQ1CVY5ILKrsDmPos87KEvBRdR7xGNGYsXpMvSXTS1NVlc6uJA888mIme6nLeuClXJ9vf+RSwEkgE5iq6yZvrNhCtCNGIOAbTjdaDtxk910spcS2urtGx13qGA8ApJ0i1bEVbB2EgnCnjv7y1Fs888Lq3pv/HViX63Puj1wK2HBvTEZN23btY9vOfQSC/qF2o6W7H7vPckkKhEU/K7LHNkH/8Zd5wkOit23GTDZmWl+/T2PHrv38+D//jtVz7LsSeLifZ2xEkOundz2wIv3lvd0HeP3tLaAqbijXQRFubZp+0umjIBGy9+ayZxc61tEI1oEc3waPY4mZPIDesQlhGW7r6zxrDzz8Iu/t6fEsRIHfZM+YjDRyLeAY8Lf0l0RS55VlG+lq6yIY9B2OKUsI8PW9PokQZFwpATram9BbN+a60LrHsUJa6G3rsfUOEM57PxIK8PSLq3noTy/32NId4j2c61MejFwLWAeezvZsWb5qO8vf3YE/HDj8mkluOqzsvUjpVGpIY1lgdu1ExjaC7Yn4/Y7esRWjaxcSBYlCKBSgvrGF7//0cTqjPXJe7Qd+PtLmfXuTawHjpib5Y/pLfWMrz72yFitl4j9SidWyFGxLiWF0CzWSF0EVkDqwilT7xlyn+fU4itjJFlJt65G2DkLF79NQBPz4P5/i3fV9MpT+GXgl1+d8MEaCgOPAo9npSV5+YyM7dzURDPsPrxF2M5Slh9MCp/XVDSeRgqIIJtaU4Q+FMYwkyZZ3MKJ7cn0/PI4C0jZItq3FSh0ANHw+lXBxhD8+/gYPPfZq782fAr6f63MeCiNBwABrgGfTX9ZvqeOd9e+haNohF21wErb18sMSTp2kaMzpKvn9GuPHlCACGjY+pJkg2fQ2RvT4LD36/kWid2xG79yORMPn9xOJBHjiiWXcdd9fiCV6dJ3fBr4yUjJuHIyRIuB2txW2AeIJndff3kIynsTvH9acMLjj3IF8nKW0Mxn2VUUhFAiAIpA2CDWAlWomvu8VUgdWIq2cFp7zOEKYsXpSLWuQlonPFyBSkseTz7zDrf/2O3bX97A6H3DFuyPX5zxURoqAcYP8N6e/PPnPFazZsLuH3/LhIhAYppVxpQz4fZSXFYDd7Qsi1IDTEjevIHngLWe85DFqsfV2kgdWYBtdqFqAvKIIr760hju+9wf27mvtvfn/A5bl+pyHw0gScB2QsePXNbTy5L/ewTAsAn5tWK3wYFPIqZSBYTgtcCQSYPb0ccheNW+E4gdFI9W+mcT+N91cSR6jDduMkWhahhnfD8JHQUkBG9bv4o7vPcLW9/rU+n0Y+I9cn/NwGUkCTrkCzqTq/O8/v8raTXsIBHxHKOOOJBjwZzJ/zJ9Vy8xp1SRjqV5dbglCRQgNvWMLiX2v9MhY6DHykWacZNMyjK7dSEWjqDiPA/vbuPPex3h7dZ8e8qPAHSMpUH+ojCQB43aj30l/qW9s5Q9/fZ14IoXvEIL9pez+AFi2TVVFEVdcfDLjxpRw640X4Pf7SBkDpPcVCkKoGNHdpJrfRto5TwPsMQRsM0GiaRlG504QKoUFEdpao9zxvT/wj+f6RBn9C/jaSIw0GgpioGicHAW6K8CXgJ+mF5QU5/P0I1/jxDkTSCT1YXWls7aVKApCIhQFmlu7aGruYNa0aqBneOHAO7Lx508hOOYMhMh5VUmPAbCNqNNtju5CApFwmJRu8q0f/g//8fvnMM0ezjqrgOtHsqtkmoF0OtJaYNt1rXwtvaC1rYu///MdTNNGVYcnHCGyPjjJ423bpqK0gHmzapByCOJN7wgFPboLKz4qX9THBXaqncT+VzC7doFQCIfCdHUl+Po9j/BfDz/fW7yNwNdHg3gHY6QJGDdX1n9np+28/+EXWLX2PTRVOdSxsECawgncBtOy0HVzeLHAQoC0kebxWUtppGOlWojtexUzthehqoRDQdo7onzzh49x/x9eQO9pqJTAt4AXcn3eh8tIFLB0U3dm3Nia27q4/w8vkEwZKCJXpywRqh8lWJzr++PRCzu1n9T+10A/gObzE/D7WLNxN5/48n/y60de6OH77lbGvNc1XI16v9mRKGBcL5jfZldA/9OTb7Fq3S5U7SDd6B795qzPYSJtCy1/Mkqg7LD35XEESTWQ2v8aRuIAEkEyZfLo429w9ad+xj9fWtu7l9UJ/MD9vC9q6ozkMux/AS4GPg6oKd3g78++w2knT0WIYZYiPcyoJikN1GA5obIFR7kMucdQ0ZMx2ps2s+LVx1m+ah0N+7qQts2B9ijPPP8uptVv/P0fgPtGeoTRcBjJArbdG34eMA7XRzrthNEv/bW0hxuSKG2E0AiWnYhQQ4e3L4/DxjJ1Vq18i2ee+jMvPP8sy97ZymCPRC8uc0NYH3Yt0KOekSxggIbsKnABn5bxc+63BU4vO4JTYFIaBItPwJc3Idf34rjHMuI89OCvufNb32F/c8eh7KLG9XX+EHA38KfsUrejkZEu4HwgUwdl/uxafD6tt0WxL0cq06RtoPiL8BfPyfV9OO6JR1t54D9/xF3f+ymdsb4ONX6/RmFeCClAFQqKIiQgkimD9s547xf+BNfGMtvtUo/aKu8jXcCVQKYe6KITp7hj0EEEmm58D1vDEokkWDwHxZd3uDvzOAwaG+r5wfe+wa8feASj19B2/qxapk2u4uT5k5kwvhyJRFNVVCc1sezoiosdu/azYeteNm6tZ9O2TFVQzfXAKgc+63atRx0jXcDTgJL0l+LCiJNDdkj1z47A2FeL4MurPdyaah6HQWd7M1/+0q38+a9P9lg+bkwpn77+bK645BQmjC8nLy8EmuImcRAgZeZdL02TrmiSbbv28z+Pv8GDj75Ma3s0vaubgDfd5HWjjpEu4Ao36yQBvw9NUw+e3POIdJ8F0rZQA2GE4hVCyxWWGeW/fvF/+4h3+uSx/OTu67jsooUgQU/qRLviPbKNZqOqCqGgj5MWTObE2bWctnAqd/34L6zfXJfe5B43BnhEJm8fjJE6D5wm03cdN7aE4sIItjw26XmltFADpZnMhR7HGLOJd175Az/+6f09FtdUl/Gze27gsktPIRlL0t7WRTyhu+Ltv6dkWTaxuE57Sye6YXLFh07jdz/7LNMmjUlvUuV2p0ddV2ukCziY/k/tuDJKS/Kxj0kpFOcYaqAcIbwW+FhjdG4lWvcCD/7uj7S0d0/ZlpUU8P2vX81F5y4g3hEjmTIQQmRNOgz8bDj+PIJEUifaFmXhktl89obzCAX96U3OAObm+tqHy0gXcOb8CvPDBALHRkxSWqi+EGqw7IhOSXkMjrRNkk3L0FuWs2vXLv7+/PrMumDQzxc/eSHXXnMGiXgSXbd6RcyJITWgQggMw0Jvi/KxDy9hxtTq9KoQcGqu78FwGekCzvwix0q8IMC2EFoeis9z3DiWJFveIdW+AQWL3fXtNOzPeNIyY8pYPvahxfgUhVTK6Oe9KodsuFQUQTyepLK6jKUnT0fTMjI4Odf3YLiMdCNW5mcSijhmAxQpTdRQFUINHoG9eQwFo3MHRoeTEk0oKvFEqsf6spJ8KsoLMZOG09b2ehjSDj7qEMvySCkhFGBcdQmaqmKatgBOcVviUeMnPdIFnHmlSstGIhDHJIBEomh53vj3GCHNGHrbOqTlJFxH4sw4ZNHc0kn9/nZmzK4laFlIV6Qik/5bYNsW+w50kkikEIroOyPhTC8hhHDiy/e2sG1nY3YxsxKg2BPwkSPjcqUqCiKgEYAe5UGPPBKpBQlECrzx77EiVY8mutACfhAKmqYyaUIFFWUFNDU7nrSbtzdwx91/YOEJkxwXG4k7yStBCBRFcKC5izdXbKUzmhg0o4wiBLpp0t4RJxpNZBtG7eycbKOBwQQ8O9sL6hhju2/B8vQC3TB5Z8UWbAlyKFk0DvnIJkLxEazYihrqIJ0EwOMoITSSzW9hRutBKE5bqggM3WDG1OqMgJMpg6dffJenX3z3sA85CBKYD3SMsCmlGLCh39s3SE6staPRrO7x/kG8HyLujwzrpJTz+lsxmBV6VHUlPN5/eOLNMKAWBxNwAA8Pj5HAgFocbAxsuonlFO9l6OGRE4RrDxowfnYwAS9ziz1pXvl6D4+coLri3T7QBmJYuaU8PDxGFCPdldLDw2MQPAF7eIxiPAF7eIxiPAF7eIxiPAF7eIxiPAF7eIxiPAF7eIxiPAF7eIxiPAF7eIxiPAF7eIxiPAF7eIxiPAF7eIxiPAF7eIxiPAF7eIxiPAF7eIxiPAF7eIxiPAF7eIxiPAF7eIxiPAF7eIxiPAF7eIxiPAF7eIxiPAF7eIxiPAF7eIxiPAF7eIxiPAF7eIxiPAF7eIxiPAF7eIxiPAF7eIxiPAF7eIxiPAF7eIxiPAF7eIxiPAF7eIxiPAF7eIxiPAF7eIxiPAF7eIxiPAF7eIxiPAF7eIxi/n9h7Jkf/wt0aAAAABl0RVh0U29mdHdhcmUAQWRvYmUgSW1hZ2VSZWFkeXHJZTwAAAAASUVORK5CYII=" parent="1" vertex="1">
          <mxGeometry x="150" y="-50" width="140" height="140" as="geometry" />
        </mxCell>
        <mxCell id="Nn_NQeG1ST4IdmQyPQJt-4" value="" style="fontColor=#0066CC;verticalAlign=top;verticalLabelPosition=bottom;labelPosition=center;align=center;html=1;outlineConnect=0;fillColor=#CCCCCC;strokeColor=#6881B3;gradientColor=none;gradientDirection=north;strokeWidth=2;shape=mxgraph.networks.server;rounded=1;shadow=0;dashed=1;labelBackgroundColor=none;sketch=0;" parent="1" vertex="1">
          <mxGeometry x="727.69" y="-25" width="90" height="100" as="geometry" />
        </mxCell>
        <mxCell id="Nn_NQeG1ST4IdmQyPQJt-5" value="1.GET&amp;nbsp;&amp;nbsp;&lt;span style=&quot;color: rgb(51 , 51 , 51) ; font-family: &amp;#34;open sans&amp;#34; , &amp;#34;clear sans&amp;#34; , &amp;#34;helvetica neue&amp;#34; , &amp;#34;helvetica&amp;#34; , &amp;#34;arial&amp;#34; , sans-serif ; text-align: left&quot;&gt;Connection: close&lt;/span&gt;" style="shape=flexArrow;endArrow=classic;html=1;strokeColor=#788AA3;fillColor=#B2C9AB;fontSize=16;fontColor=#000000;" parent="1" edge="1">
          <mxGeometry width="50" height="50" relative="1" as="geometry">
            <mxPoint x="340" y="220" as="sourcePoint" />
            <mxPoint x="639" y="290" as="targetPoint" />
          </mxGeometry>
        </mxCell>
        <mxCell id="Nn_NQeG1ST4IdmQyPQJt-7" value="来一份&lt;span style=&quot;background-color: rgb(255 , 255 , 255)&quot;&gt;《短腿猫猫》！&lt;/span&gt;" style="shape=callout;whiteSpace=wrap;html=1;perimeter=calloutPerimeter;rounded=1;shadow=0;dashed=1;labelBackgroundColor=none;sketch=0;strokeWidth=2;fontSize=16;" parent="1" vertex="1">
          <mxGeometry x="150" y="-110" width="170" height="70" as="geometry" />
        </mxCell>
        <mxCell id="Nn_NQeG1ST4IdmQyPQJt-24" value="&lt;font style=&quot;font-size: 24px&quot;&gt;后端服务器&lt;/font&gt;" style="text;html=1;strokeColor=none;fillColor=none;align=center;verticalAlign=middle;whiteSpace=wrap;rounded=0;shadow=0;dashed=1;labelBackgroundColor=none;sketch=0;fontSize=16;fontColor=#000000;" parent="1" vertex="1">
          <mxGeometry x="717.69" y="-55" width="130" height="20" as="geometry" />
        </mxCell>
        <mxCell id="Nn_NQeG1ST4IdmQyPQJt-28" value="收到，处理中。&amp;nbsp;" style="shape=callout;whiteSpace=wrap;html=1;perimeter=calloutPerimeter;rounded=1;shadow=0;dashed=1;labelBackgroundColor=none;sketch=0;strokeWidth=2;fontSize=16;" parent="1" vertex="1">
          <mxGeometry x="700" y="-155" width="170" height="70" as="geometry" />
        </mxCell>
        <mxCell id="Nn_NQeG1ST4IdmQyPQJt-50" value="&lt;span style=&quot;font-size: 36px&quot;&gt;HTTP短连接&lt;/span&gt;" style="text;html=1;strokeColor=none;fillColor=none;align=center;verticalAlign=middle;whiteSpace=wrap;rounded=0;shadow=0;dashed=1;labelBackgroundColor=none;sketch=0;fontSize=16;fontColor=#000000;" parent="1" vertex="1">
          <mxGeometry x="361.5" y="-180" width="267" height="20" as="geometry" />
        </mxCell>
        <mxCell id="K3zmsh9aibyrLAJEjabf-1" value="SYN" style="shape=flexArrow;endArrow=classic;html=1;strokeColor=#d79b00;fillColor=#ffe6cc;fontSize=16;fontColor=#000000;" parent="1" edge="1">
          <mxGeometry width="50" height="50" relative="1" as="geometry">
            <mxPoint x="350" y="-30" as="sourcePoint" />
            <mxPoint x="649" y="50" as="targetPoint" />
          </mxGeometry>
        </mxCell>
        <mxCell id="K3zmsh9aibyrLAJEjabf-2" value="ACK" style="shape=flexArrow;endArrow=classic;html=1;strokeColor=#d79b00;fillColor=#ffe6cc;fontSize=16;fontColor=#000000;" parent="1" edge="1">
          <mxGeometry width="50" height="50" relative="1" as="geometry">
            <mxPoint x="350" y="100" as="sourcePoint" />
            <mxPoint x="649" y="170" as="targetPoint" />
          </mxGeometry>
        </mxCell>
        <mxCell id="K3zmsh9aibyrLAJEjabf-4" value="SYN+ACK" style="shape=flexArrow;endArrow=classic;html=1;strokeColor=#d79b00;fillColor=#ffe6cc;fontSize=16;fontColor=#000000;" parent="1" edge="1">
          <mxGeometry width="50" height="50" relative="1" as="geometry">
            <mxPoint x="649" y="70" as="sourcePoint" />
            <mxPoint x="350" y="70" as="targetPoint" />
          </mxGeometry>
        </mxCell>
        <mxCell id="K3zmsh9aibyrLAJEjabf-5" value="" style="rounded=1;whiteSpace=wrap;html=1;fillColor=none;dashed=1;strokeWidth=2;" parent="1" vertex="1">
          <mxGeometry x="340" y="-55" width="310" height="255" as="geometry" />
        </mxCell>
        <mxCell id="K3zmsh9aibyrLAJEjabf-6" value="&lt;font style=&quot;font-size: 18px&quot;&gt;&lt;b&gt;三次握手&lt;/b&gt;&lt;/font&gt;" style="text;html=1;strokeColor=none;fillColor=none;align=center;verticalAlign=middle;whiteSpace=wrap;rounded=0;dashed=1;" parent="1" vertex="1">
          <mxGeometry x="431.25" y="-50" width="127.5" height="20" as="geometry" />
        </mxCell>
        <mxCell id="K3zmsh9aibyrLAJEjabf-8" value="2. 返回《短腿猫猫》+&amp;nbsp;&amp;nbsp;&lt;span style=&quot;color: rgb(51 , 51 , 51) ; font-family: &amp;#34;open sans&amp;#34; , &amp;#34;clear sans&amp;#34; , &amp;#34;helvetica neue&amp;#34; , &amp;#34;helvetica&amp;#34; , &amp;#34;arial&amp;#34; , sans-serif ; text-align: left&quot;&gt;Connection: close&lt;/span&gt;" style="shape=flexArrow;endArrow=classic;html=1;strokeColor=#788AA3;fillColor=#B2C9AB;fontSize=16;fontColor=#000000;" parent="1" edge="1">
          <mxGeometry width="50" height="50" relative="1" as="geometry">
            <mxPoint x="638.9999999999999" y="350" as="sourcePoint" />
            <mxPoint x="340.00000000000006" y="280" as="targetPoint" />
          </mxGeometry>
        </mxCell>
        <mxCell id="K3zmsh9aibyrLAJEjabf-9" value="FIN" style="shape=flexArrow;endArrow=classic;html=1;strokeColor=#d79b00;fillColor=#ffe6cc;fontSize=16;fontColor=#000000;" parent="1" edge="1">
          <mxGeometry width="50" height="50" relative="1" as="geometry">
            <mxPoint x="350" y="405" as="sourcePoint" />
            <mxPoint x="649" y="485" as="targetPoint" />
          </mxGeometry>
        </mxCell>
        <mxCell id="K3zmsh9aibyrLAJEjabf-10" value="ACK" style="shape=flexArrow;endArrow=classic;html=1;strokeColor=#d79b00;fillColor=#ffe6cc;fontSize=16;fontColor=#000000;" parent="1" edge="1">
          <mxGeometry width="50" height="50" relative="1" as="geometry">
            <mxPoint x="351" y="580" as="sourcePoint" />
            <mxPoint x="650" y="650" as="targetPoint" />
          </mxGeometry>
        </mxCell>
        <mxCell id="K3zmsh9aibyrLAJEjabf-11" value="ACK" style="shape=flexArrow;endArrow=classic;html=1;strokeColor=#d79b00;fillColor=#ffe6cc;fontSize=16;fontColor=#000000;" parent="1" edge="1">
          <mxGeometry width="50" height="50" relative="1" as="geometry">
            <mxPoint x="644.5" y="510" as="sourcePoint" />
            <mxPoint x="345.5" y="510" as="targetPoint" />
          </mxGeometry>
        </mxCell>
        <mxCell id="K3zmsh9aibyrLAJEjabf-13" value="&lt;font style=&quot;font-size: 18px&quot;&gt;&lt;b&gt;四次握手&lt;/b&gt;&lt;/font&gt;" style="text;html=1;strokeColor=none;fillColor=none;align=center;verticalAlign=middle;whiteSpace=wrap;rounded=0;dashed=1;" parent="1" vertex="1">
          <mxGeometry x="431.25" y="385" width="127.5" height="20" as="geometry" />
        </mxCell>
        <mxCell id="K3zmsh9aibyrLAJEjabf-14" value="FIN" style="shape=flexArrow;endArrow=classic;html=1;strokeColor=#d79b00;fillColor=#ffe6cc;fontSize=16;fontColor=#000000;" parent="1" edge="1">
          <mxGeometry width="50" height="50" relative="1" as="geometry">
            <mxPoint x="644.5" y="560" as="sourcePoint" />
            <mxPoint x="345.5" y="560" as="targetPoint" />
          </mxGeometry>
        </mxCell>
        <mxCell id="K3zmsh9aibyrLAJEjabf-15" value="" style="shape=image;verticalLabelPosition=bottom;labelBackgroundColor=#ffffff;verticalAlign=top;aspect=fixed;imageAspect=0;image=data:image/png,iVBORw0KGgoAAAANSUhEUgAAAPAAAADwCAYAAAA+VemSAAAABGdBTUEAALGPC/xhBQAAACBjSFJNAAB6JgAAgIQAAPoAAACA6AAAdTAAAOpgAAA6mAAAF3CculE8AAAABmJLR0QA/wD/AP+gvaeTAACAAElEQVR42uydd5wcxZn3v9Vh8uZdbVDOWUIJCQSIIHIwwQEbGxvncGf7bJ9xuDv7nM1rn9MdDud4xgRjbIzJOSMECCRQQiin3dWuNk3sUPX+0T2zM7OzQdIKrWz9Pp+RZnu6q6ur66nnqScKpRQncAIncHxCO9YdOIETOIHDxwkCPoETOI5xgoBP4ASOY5wg4BM4geMYJwj4BE7gOMYJAj6BEziOcYKAT+AEjmOcIOATOIHjGMaRXCyEONb9P4GRBeHPKSUEzgkfocPDoThXHREBn8AJ+DCAIKD7/1tAHHCPdcf+3nGCgE/gcCGAGDALOBWYClQC5cAuYBOwHXgGOHisO/v3iuOVgA3/Uwc0+St+K9ADpAEbOCHAHR2YwDhgBXA+sBSoBQL+OxH++7CABHAv8HPgJcA51p3/e4M4kmCGN3kPrPmr+yRgMXASMAMYA6SAdqALeBV4CtgItAGZE8Q8LDCA2cA7gUuEEJOVUoEhKEJdYBtwE/B7nyufwAA4JJpUSh32503GIn8SbAGS/moufeLMflz/eBfwIvBD4C1Avc85TmjdDg8x4GP+2KvD/Ni+OH25/y5OoB8cEg0eJwRcD9zjE+dQJ4z0CfogsAr4b3+vFjphPjskTAJ+6iulDpd48z/NwCf993ACJfD3RsAa8Cmfqx7upJH+nmwX8Bvg7f7++XjVAbwZCAJnAI/7Y1dybAVChUMBNaahVi2aP0ktWzxFTZ7YqKoro8o09f7exx5fFD+BEjgUGjwe9sCzgJuB+f31QQiBlHKo7bn+nvk14MfAHf4EPYFeVALXAf8MTOhv6xEMmsyfNY73XHU6yxZMJVoWACFIxC06uuPccfdqfnPb41hWSd3Vo8DHgc3H+mFHGv6e7MA68DbfRFGAWCTI2DG1TJ/USDgYYMv2ZrbvaqU7nsJ23MHajAHLgOnAQuBHwN4Tyi7wifXDwL/749T3BAGL503ive9YwXlnzmPimDp0TcNxXRSgCdB1g4VzJlAWDfGjX95X6p0sBs4G3jhhLz58jHQCXgG8G4jkHxxVU87H3ncul52/iFG1FZi6zoH2btZt3MVjz2zguZe2sHtfGz3x9GCrWZUvnp/k75Ef8hVk/6jQgSt9hVVJ4jV0jbdcsJj/+MxVzJszHmm7ZCyHtGvjup4UJHSBJhwqK6Nc/0+XYjsOP/3dw1h2AScuBy4A7gN2HOsHP14xkkXoKT5RnZ9/MBYN85+fu5IPvWclZWUhpCNRCnRdQ0pFdzzJG9tbeGr1Zh596lXWvLqD5tZOpBz0OQ/4ovoP/0EnVBB4H3A9MLHUCWXRENdcuZwv/PNbGD+lCSueIp2ycKVE0wRKCRA6CIVyJYYOZZUxtu8+wHWf+G+eWLWpuMku4F99vcQJG7GPvxcROuskUIBr33oaH7zmHCKhAD3dKVzXe1hNg4ChUx4Ls3jBZObPHs8V5y/miVUbefK5Dext6VAvrd0u2g729He/OuCffC70Vd+u/I+CiP/snwVGlTph3OgaPnbtSj54zdnU1leR7IyTzji+uKyD0BEIlHQBgTBNlIJk2qVxbB3nrZjHcy+9UcyFK4DlwJ//wcZ72DBSCXgCcLGvTMlh0byJ6tMfvkjEIkHiiTRSKYSmg9CQQMaWpK0Mui4IBU0mjKtjTFMNF648iUQ8I/70t1X8+tbH2bmnnVQ6U+q+OvAuYAPwS992+feOKt+s8yn/ewE0IVg4byKf/chFXH7RUkLhIPHOBLbromsaQtMRmsB1MjjpTuxkO0IPYEaq0UQQZIDyQBmnL5vBmKZqtu1sLb5FExA+1oNwvOIIo5GOSp+CSnE1cHr+wfKyCJ/5yEVi8uRG4t0JT1mim57eSTmgQAgNTddRCJJpF5F2CBiCuuoyRtVV8pFrV7L4pMk89PhabrnzWXbsaSt1/2rgS/7Y/OEo+vEKf8HQ87S80v+eb/7S8n4jz3llONAE/JsvOvchIiEEZ5wyg+98+V0sXTwN13bo6uhBKoWu6whNQ0mJnewk1b0bq3sfrpNAaCZ6sBxdGOihKiLhuUyZOo4Fs8eXIuBqfz98AoeBkciB5wnB1UoVKlFOXTyVC89fhJ2xkQqE0JHSwU60YKcPgnIQehgjVIVuRDzi1oOkHch0pwFFOBTgrDPmsGTRVE6aM4Hrv3ULO3YdKNWHMcA3gWnAfwAdh/ksWSIN+BM16n8m+P7DUZ9wzDwvsiwxO74baNaDzPaPWf73DLAPaPHNYl2+H7jmE/lgLqRlPtf9gN+/Plg4dyJfv/4dLD15OulkmnTKAl/DLNBxMt2ku3eR7tmLk+7yFlKhodw0biKNQCFS7SSr6qmqHsfcmeO555FXSGcKBJuYL0qfwGHgiAj4aPhyaJo4SSkm5M+9UNDgigsXURYNkYqn0YSGK22SBzeT7tqJtD3FsdB0NCOEpofQAzEC0XrMSB26EUEpSKUtLNsmFAlzxRWnksnYfOV7d7B9d2uprpQBHwG2AjcO0VZs+gQ5BpjpE2kYGO3bsUf5+82I74mU5cBaHscVRU4PWYLOdxfN/p/2Awa6gNd9B4mgT7wb/E+b70WV8e81yr/2XOCaUsRrGDrnnj6Xf/uXyzll8VQS3QksWyIQCM2TcOxEC8mDm0jF96OkRNN0hN7blFAKlMR1MyS79lNePZo5M8dTUxVjb3PBehg9QcCHj5HGgUdJqZYWv9BF8yZx4cqFuBkHKUEgSHduI9n+Oko5vjZcoJSLa/Xg0oOdbCOT2IcZrCVcPo5AeRMIA9t2cbqThMMm73r7GYRCAf7jhtvZtHVfqf6Y/v7wReDpfvoc8gl2jm+OmuoTb5NPHJpPVEfbdfBkf5HJcuCET9D7fQXRfv/4Sf5edxzQ2KcVDS6/YDHf+dLVTJ7UQDyewXUlmgA0AyEEme59xA+8ipNq9xfNEgxceBppTSqS3ftwk+3MnDqa+vqqYgKO+f3R8rYJJzBEjCQC1nzN88X5B8tiId5z5Wk0NlaTSlgIoZFJNpPseAOhJEIzCh2FhCcaKAHKdcgk9uGmOwjZPYQrJqOZQZSUpFIWYQRvvWwZNZUxvnPjXTzy1PpSHl0TfUePbwJ35Zk7oj4xXO1zs3qfYMPHKGjCKHqfEV+zviBPPJf+QtJv/6ZNaOAL/3QZk6c00dOV6DW/CR2UJN21h0T7BqxUB5puIIQ+YKeE5onaiY7tREONlMeipfodPUHAh4eRRMBjfA1wQ/7BhXMmcMHK+WhSoaTCtXpItG1EOmmEppWei0L4R3WE0JAyQ/LgZlw7TrRmJnqgLEfEju1w9jnzGT+pga9+5zZ5y53P4rqyONhhoR/TmvF9g0/1XQ3P8fe2Qx5HIXxlm/Dt6EVrT+5f4f+jFEqBym0pBAqFchVSyqFqs7Ki+oAIhQK88/JTmT1zLMl4Oo94NaSbJt25g2THFlw7hW4EhrhOec9gxZtxMTCNknEk7gkvuMPDSCLgKb7omYMApk5qoHxUJRlHIqUk2bUTO9nhE+9Q4DsXoEh37QLXpmzUQkQg4mlQHZd4Z4LJExv4149fInfvbbeeWLUxWGLC1/ja6Y8Cp/ma0wE7oQmBpmkgIBgwqa+roLwszJiGasY2VVNbXU4oZHqEqMA0dQKGga5raLqGoWu4UpFJW2RsG9tWuNIlk7HZs/8gG9/Yy+597fQkUkhH5awCUipceegBJ1XlEUxDZ9OWfUyZUE8g4NlyHTtNsm0jqc5tKCV97f8hQGi40gKSlJcFi5ltNv3OCe57GBhJBFxV7L5nmjr1NRUEhI6S4FpxrO59g5ivRD+LuUBoBulEM7S/RqR2NroRBQW27RHxnOnj9C99+gqz8+tJtXb9zlINn+I33i/hakKgmzrVFTFnzrQxzoypTYHqqpg2ZWID0yY3UhYLUVMZoywa9hgsvYxMoED1PlyvBkv5oT8CpHcP23HY39LJvpYO9rd2sr+lA03TKCsLsXHTbl56dSe79hxgf2snjiuRQyDolrYuvveze7nv8bWcNGsCK06dzbJFUykzu8Daj2mAVCZS5ksEQ4SSCGljeKJH/ity/969sILBIKFQ6KhE8I0UAtZ9p42CpX1UXQXLl04nauj0JDPYqXakmxzEAD3wIAmhke7eg3QsonVzCAQrUQJs28EyNHH28tnmpz90IV/81q00t3b2ubyU3KjrGtWVUTWmsYbJE+rVKYunsmjeJH3i2FFaWSykaZrAMHQ0IVBK4ipwlULzxWPvefx++y85S9hK+TcV9BKyAl0TjGuqYcLYOpRSOK6LQEPTBam0RXdPkn0tHbz0ynbWvLaDvfvbaW7tpLm1m0Qqje04uE6hCC6lorM7wXMvbOH5l7Zy05+f4eQFUzh5Vjnjamwmj48yvilKNGLgOArbUf24qPZdRIUQSKVIpi1QBczW9JV84u9JjA6FQtTV1dHS0sKXv/xl/v3f/53Ozs5haLkQI4WAw37geIGm9vSlM1gwfyKu8kRHJ30QqdxBFScDQyCExErsBxRa/Xx0sxwhFJm0TaDc4IKzT+KJ5zbwhzue6TeySQCBgM7ohhouPPskzjtzvpg0vo7K8qgoLwthGl52Vd+/HykVUknfFpTd1+ahv9XZPy//515bk4urJMoz8KBQSFflxPX6URXMnzmed2Y8gm7vSLCvpYPX39jHhi17eX1bMzt2t9LRmSBjOTkOIZVCui5d3QkefnIdTzynEQnqNNWFWTynhotOb2LJ7FrKIyYZ2yVtu0g3f10t/SyaEcA0A8W0qg+mWDueEAgEaGho4JxzzuHXv/418XicTCZDc3Oz53I6zBgpBBzxzS85e0RjfSWXn7eQhlGVJFI2ysng2vFhup23B7MSLWR69hKuiuYcQ5JJm+qKGO99x5k0H+jh6VUbiSfTBVeHQibTpjTxlpULOffMecydMZZYJIxU0idUjyNmEyaUQr5xVwxAvANdKwGk6uXMeaShSU+Rp+saZdEQ5bEQYxprmT97HCtPn0MyZdPRGWfL9maef3kLTzyziTd2NNPVkySVzuQWDKUUluViWS6dPRYbt3Xx8KpmzlpSz0WnNbFkTi1V5SbpjCRju56ZrwQpSuVFMkWDJkJoqF4uLPz3ftwTsBCCK6+8kltuuYWenh727t3r6UAg9/9wY6QQcJUfm5vDzKmjWbRwCiBwbBfH6sGxE4jhes9CQ0kHJ92BlA66YSKEwHEclJQsnjeR//rqu7ntb89x8x3PsHd/O5qmMaaxmsvOX8iVFy9jzrQxhIMmjnTJ2BbS9YgXn2NmJ7LqZ3YWe2mU+j7QNQO2rTyilr4EIRAI4SJ0DV3XqSo3qamKMnlCPSuWzuDqy05l0xt7Wbt+F8++9DqvrN9Je4nADwXsa03yh3u38+jz+1l5SiNvP288C2dVUxkMkrYc0lZfQtYAx7VJWZl84iVvW3LcErAQghUrVtDQ0MAtt9zCnj170DTtTUl4MRII2PAjUiZkD5iGzvzZ46gdVYltS5TrYqfbkW562PyvlXK9j272GWjHlZhCY9rERj79gQtZvmgajz2znnA4yBmnzGDezLGUl0VxHUkyncGRvfJwflPZ/Wt/U1MM4Xuurews901L2ZsJ/0b5hFxwfdYUhfKYtePiKBdLgKZ5WvJgyGTm1NHMnNbEeWfOp7Wti/sefZkbf/MQe1s66OlJ9RUGFOxvS/OHe3bw4vp2rjpnHOee2siEphhlUY8j245HyABCEzi2ojue/rtTOL/1rW/l1ltvRUpZwHXfDIwEAi4Dzsp3aK+rKefkBVOoCAdIplyUdHDTcZAStCPcRyiFUi5CSfRQOaFYo+dJJHv3ukKA40jiyTSRcJBzTp/N0oWTMQydUDCIlC6JZBrbkWionCcYebGc2UWheOLnCC2PEPNFX9EPV81xZ6V6f+vn+uLnLUaBucl1sG0HTdP85zOZPLGBD73rbOZMG8uqNW/w4suv8fyaN2huS+MU0Z6Uio3buvlB80buf3Y/K5c2cPEZo5k6oZxQQCORcntT6oiSdvus3/ZxSdVXX301v/nNb+js7CSTybzp5YZGAgGX+26IOVSUh5kwphYMAyUtlLKRjuWLz4c/QEpJUA6aCBAoG02wYhyBWEPvb/kQ3uRMpjIYhk44EgQJiWQa19/f6oKcG3NOXFaigAsXcMz83mdlbKVyLz27Fxb5J6s+3erzh1AlfsvepgRnLjjm31sqRSZjk7FstLQgHAhw5hlzOfXkGbS0nMTqVc9z76MbWfVqK7ube+hJFEZaJpIuL65vZ9P2Lp5/tY0rV47j9AV1jB4VJaVJlFJoQhEKGsUPlvKDRY47Ar722mv5n//5H38+HBsF+kgg4NHA+PwDkVCQSDgIClzpi7tYKHGY5OtzXRCYoRpC5WMIlo9DN2KA6//Wl38JXxKybRfLsUEKhPAITtPy7LVCyymjhrwA53HowYxi/XHnoeybD+lY9pkUJNIZbMchGAowdux4xjTWcsYZy3h9WzNr1u3gnkc38MTqbaTThYQcTzo89kILG7Z1c/qCUVx3xWTmTi0jHDKIJ5WfdqdgstvHY/L96667jh/96Efouo5tH7uw8ZFAwFW+HTCHieNHUV1VBq6LkqCUXuhyKDQQ2ewPg0CBUg4Ig2BZI9Gq6ZjhKtAMkE4R5y0iCeWRjNAEmtJAB1XKxjng/dWAx0WJc5Twuarqyz0L9sp5l/XpQ69IUGpICq5RpdoWAttxseMp0HSCgTA19eNYPno8py5fzIXnN/O7W5/gd7c/ze59fUOmW9pT3PHILjbt6Oa6yybwviunYZqKVDJVfGrQt0IcF3bg973vfSxbtozLL7+cQCBAJpMZhlYPH8eagIN+uY7cxrY8FmbRvInU1ZZ7K5vP8YQw8jeQQxNZlALlopsxQpUTiVRMQA/EUEqipF0o2gqRZ4whzzM55yaVxwWLuGdeO0qInCic190+UzP/z2LOKvo5V/RDbMVteV1SWV+QAutswXV+X4uJv2CfjudFlU6nyWQEuqYRCBpMmTKO6z95BSfNncStdz7HC69sZX9LZ0HKHKUUr73RwQ9uShONBZg1zaGru48pMBsSOeKJ9+qrr+Z73/seNTU1OfvuscaxJuCoX2ojx4GbGqpYsmAKwYBBPJFGoRB4eyhyEp4q9ubpC6VQysYwY0RHzSFYPg6BhvS5bsn9oE+lOfdGpXLEmh93MJBIW3q/m9etIptJKYIsPl6soVb9nFd0rC9TLibiodio/e+a8MbddV1SSYdM2iIUCnD5BSdz+skzWbdpFw898SoPPbWOV9fvxnF7paM9rSm+86vXmDFxbyluvdNPLTticemll/LZz36WcePGEY1GaWtrwzAMdF0/ZnvfLI41AQeLY1JnThvN9MlNALi2i9B1b4+aLy4PQrxKSRQSPVhBpGYmofJx3jIgbY8l5UwrJSCynDv/b79d+hFpi5RJBQQmVcF+uaR2uUjRxSBi+UAETSlCHUK7A2m+C1oV3kInpSSVymAYGlVVUc5ePofli6dx9eWn8KNf3cetf3mWTKaXG+/cm2DX/kSpW+/2q0qOSJx99tn8+te/pry8nFQqRSKRGFGF7Y81AYvixHGhgImh67ktqAYgXZSUQ3LiUEqClASjdURrZxGIjvJryLi+uAtZvlqKRak8sbnYjtu/qabkV6QCV0p0JdB1rc+9cicf4So+EKEOpiQbqI1C0bxQ1M5OYsfxsm4IIdB1nbkzxvIfn76KoGnyp789T2e3F1OsSq+7ts+B04xQ1NXVUVtbS2tr61FxhTxSHOsiX9HiAAbXVUhkbqX3BTcvUmcQeNpkSah8NGUNCwjEGlFSoeh12lf9cC3l/1OgGOrHapXflsqeWGJV1gTomoYsInBFIWWpvBuqonsU/55dZPobjVLcuN/2KGqrqD/5LlKqxPPlrz9SKWzbIZmyaBxVydf+9W387IYPcMm5C6mqiJRcfIXIZQ4ZcdFIxVx2JHHdfBxrDhzL74MmBKGgFw8rfe8hoTQEGkoMvNYo5SDQCFVMIFY7E80sQ7l2bzRAEUp5K/WnbOrv1Q2mNlUSP19USWG0wH47VE7Zp41DOH/Q46r/LcNQ2szqACzbIRoJcum5izj15JmsenEDv7/9SR56Yj3JPLOTUgSF4AKluM9PW1QA7RgRjVSKk5cs4Zlnn6WtrY3W1tYRS8DHmgMXx5x5wexCePKzv0/VzAi6GRnAIuPZeIMV44nWzkE3y1HSyTUvSuxdixrIidfFKNYI94b25bXnRS30vdznlm4eCy7Vj3xtdinCLFA6qYHF3f6UYQOdU3xByT4MJuYX9ct1JZbtUFkW4tLzl/C/3/8o3/63dzG6vjD1tFIsA27wy6yMHBnV3xK8mW6Rh4Nj3buy/AgkKSU9yTQZy0HTvKqDAoWmmWhmmJJUpiS4DoFwLdHqqeiBGDJHvAOvmqpIhOxPzCx54VAG169aoPuToL/LxCB/D8WXerBuDeowIvpKCQwwPkOBUgrHcUmnbKprK/jAtefywXeeRThUsGvSfFfar/k5xk7gEHAsCVj3I5DK8g92d6eJx1O+e6JvwtF0DDOK0IqFVomSDkakhkjtTPRglc95s9qSgfNGiGyUTt7fud/6sNnS+9zBiEv4QQOU4LqlvpdEP9SnSpmsSvVDDMy18SUN1Q8h9yc1FLel+rmHVIpET4poQOeD7zmbd191OuFgn0yWi4EvlKoOcQL941gSsOa7UOaWY9PQGdtURXks7BctUz4JapihKjQjlCdGK6RrYYaqKKubTzDWBEr64nT2jIHNJv19K7bnZjXXBTGCRRcV21eV6iu+048YW8q/uQ/XU32JpI+ipb+nVaXbLFBwCV8zr0qNTN4FovDa4p/69tFvy5X0dKcY3VTD17/wdj738UuoqowWN3Gpn3OsT+rKEyiNY0nAyndk743s1gSRcIhwKIQSIhurjlKgBcowzDKUtFHSQbkOZrCaaN1cArFGn3gLlZn9iZh9nC+Kzh/QLNOP/Th/35gtOl6s4R2S0kmJPu3l32PwTUH/R7M25wILVj7lFW0rVN5CpLLZMVXvGPQ3FsU3z97XlYp4PEX96Fo+/fFLePtlyzDMgm1vEPgXv/B3cLCmjyaOtYPGUHEsCdgF1uYb8S3LYdPWvbQc6EDXvICB7DBqmokZrkUzwgihoQfLidXNIVDWhMILOSzmQH3EOt/ck09cosTvZHVoiJJcS/RzjwIiV0W2ZpX/ey+D7yt69s2uoejLmUvdv7//RRFR5h8TfTuQ67fmjxV53D63QOX9n98PMZCoLcB2JImOONU1FXz03StZPG9S8byo80Xpd+cnRHizPlIpYrEYb3/720eEq+RgONYceKtvB8xh5542du/33O0MTfPFWYkSECwbTVndXGK1s4jVz/aqLaByQQ2qWEMsREku3Mspe48VO/+LvMlKHvcqbqu0Q4gosYfu/S6VwvUj3YW/aBRLAvl71349r0RfF8/i/7NJLoUoLfaW6F7vOCg1pH02pRbCftrWNEHGckh2xDlpzgS+8tmrWDivTzniauDzwJzsYvhmfQDGjx/PZz/7Wbq6uoY6l48ZjrUduM/9HUeSyRa/0jSEI3P7Tz1Qhhks9wY7F5XulvRRhr4eTnn7O6VAinw6zgbyFrg19hV6CzhxCRfIYnicuGjq+9Sp/PDDIXlNqcLL8+3IAyH/HFWCO/Zny81KKflSRU78zv6eF8tc0GZRhpDiR9eEIGPZ6IbGBSsXommCf/mP/2PD63vzT50spfqS8krblCwjebTgOA5SSjRNG/Gi9LE2I/VJ0WA7Lum05YucefxSZb2yAKF5WtNS4YSl/TbyfkUpyAhIocgoL7G4lxQnu9HLOznfvlssFvdnXinkkkUT3HfDyj246rsGqLwbFHt9DcmWW/TA2S8DEW/xPrnP/js/w0ieWF1ScujHDJU/JEJAMpXBSWc476z5fOmTl1NTqNTSlRfo8k/F3npHExUVFXzrW98ikUgMQ2tHH8eagLuL/WDTaYuunhSIfE8cfxpIT1xW0inQNg+EInNNlvOifKcB0Q+9FxzMildFSpssAXqcXZVso6TYKj0f6X5DMkpwW4oIJN+Fs69rZ9/minUBxQa5YimgP+IWRRcUE2pJzXWp+2saQkA8mcGxHK64cAnvuPzUYp/xMHCtn1D/TUF5eTlXXnkl6fSIdc8uwEgg4Jb8A0op3Byh5M+Swk3cQE4R/Zlo/IVfA4LCy0UcUp62Uyux3ezdD+cpvwrurVSuW8Vi8kAcUtcEelGEkirBvQZqr9Qz5ivMhtKPvEcc8PxSiiqGcF3++yjlSe2VK9VIpiwMw+AT7zufJSdNLl4HxgLv9RP/H3VIKY9JbqvDxbEmYBvYlv/CgkGDsmgwt9dSJewv/ZmB+v3eG2wgVOGcEqLQl8M7PysqZwm2H7FcKa/AmO26WI6L6xZI4IXSs8hLQuDXTNL604b7fVZ5CjRVgqsWqLPp32GjDwHlXSOVxHVlH0VOKeSbx/qMcz/24VIDp/wBVf5LVkrJjGUzbXIj//m5t8rxo2vyhRMDuBC4UNMEAUPHPAofQ9eorCjnrrvuIplMDmHqjgwcawJ2fQVFTh42dJ1QwCtKX6CoKXJGoJRI2Z+jRN5EL620yY+sydsD+66AjuMi/UleYDb1RUFN1xE+MUgvB1CfvlKk8OmPcEs9G/34ZBc8A4Po03ImskLOrwnhebj5xDkg5/HHsRT3V2pwbt+n73kKfykl6YzFWafN1j/78Uv1aLSgSEejX8Z13BBvccjIdmXmzJmlSsyOWBxrLbTyQ8lyU89LdermprgSvha3xApfLHb2tesOLGurUjmn/DpFriuR/mTVda3fiCKyBc0MPden3Dm51WTggP1Si0qxR9RQTDhDFvr6y5Q5hJclDvV30T9xFxvaXFdiWw7vvuo0Xlm/k9/f9iR2b2aP5eNH116ycO6En6cy9tAUIIeAQCDId3/4f8cV92UEEHDQ94fOaRkNQycUCoAGSubxoSG4MYlDmWT9EHZWEa1pAn2QEEZRgvOXvJ9SBe2+6Sjpwy1Qsrc4maZRkD6ov+fNHyPhZzfJmspyUkXeitJHwz7I+7Ecl0goyGc+dBGvbtjBC69sz/5UYxj6tftbu55e8+r2da6Uw7ZPtW2HTZs2UV1dXdI0NpJxLEVoAZzpV2XIoaGugtGNNYDAyQYmDBZHIAYSREsf6ePp5Hvh4DsblHLEGIxYB+qBJ572ddErcCLJ7Q97vbEGmvBqiMfoR7wWwpMudF3rVQgMJEFTuNWQMuseLnqdSopEpCJPzf6JN890Zds2M6Y28ekPX0xVRa9pacv25gWvbtx9na7rVdJffIbj4y2sxz6/1eHgWBJwNZ6RvjZ7wNA15s4cy/jRNUhXIl1vlc2Jk/3OZFV6ggz2QvJcAilyHSxsv7DtwSZkv1J7ifZFUT+z5xRrb0u1Weq3kp5n/Zi5igy9g76wfO80zdDQddGnxvFA1w6IvL21Kz3dw4Vnn8TFKxfknxXoSaSuTKWt5Z4jDEf8cV3JxIkTR2S6nKHgWBGwBrynD/cdVcnK0+dQXRMjlbb9FblXG1tKHCPf1bHot5KElK/U7i3BV9hmCRT79OYrsko6Wg10/QAnllpzCrhwCZtMfxr5AgeUPlFUqmSEU8k+lrpncd4/1Wsvl4O02Z+1IB+W7VJZEeWqi5fSUFeR/9M4KeV1ruuOc12XI/0opXjkkUeoqKg4wYEPAUt97lsQFLpo/iROOXk6ILBsx4//HURULiiILQoIWpSaLMUFx4ZAfH2OqzyTTZGNqbSJpZ9AvzzNuqLgn4HvrUo200cxJnIcvR+XQCEG5fL9e2iUUMTlSQ/9okjMLmUiw7fHOpbL0kXTOGnOhOKfzwUuGw4PrZNOOolMJnNcaZ7zcSwIuNKPNinwYJ86sZH3vWMFYxqrSSUy4Eq0ojcriswzfSZevl00b0+Vv5fMN7mUopc+9uPi34puWsqNsvBA/ylsiz2cJIWSQPZp+3halehr7l7F91DKy4Od7YeUvcTcj2ZcDfD/wPcnV/5mQJ/uYpOY6vuTUpBxXGpqY5xz+hxCwQJaLQPe5Tt5HBFuvvlmmpqaThDwIdzvvX7+oxymT27kS596C+efOR/LcsjYNkIvnYcyS9OqBAEUnqgKOe0hQuUs0SV+yEPuHv3cR/Vjf+7bSOEeubfJIu+vvpcVBG+UPM8/QZboi+qHAw4Ffax0qnDB7G9chzAUCAHSdQnoOmeeMotJ4+uLT50DLDu8nntYuXIlhmEc09pGR4o3m4DnAp/IF53rqsv42uffxvuuPgvT0Ign055ms6jKXxbFblT9YTAn+5zyqsBJv7fNIbkLDqL4GZATib4EIIrbFiK3txSDtJdzLOnTRc/RrNi7bKA+lhorNci5+R3pTyzPmpiGYnpTeBk9Ldth6vQxnHvGnAL3U58Lv6dYkjsUfO1rX2P8+PE4zojLajtkvNkEfFW+N41p6Lz14qVccdHJKAHxRNqvJC/yBMiibZgqFLOyOBTzScEEyg99U73tD6rcKW5wAIXQgA5S/T1HbjtQmManz3jkbw9842zpoIIBvKzU0DnjoaLk/rrILbY/c5kErLRNRSzEeWfOY0xTTXHzK4FrhBBhkedJNpQPQE9Pj+80dPzizSTgZcDb81OlTJnYwIevPQdd0+jp8sK3sg4BxS5/pTyXhmJf7NcDSJSIWxW9nHEwbpfzRS5qdxCPo8JGSuzNS3PQvvcoKVX0Eb970970SQsrCkXnoWjOPdtvaVIfTIMr8hbJ7BOVehayr96PRnOlREnJ/LkTWdQ3e4cBvEspRnMYOB61zsV4swi4EfhXYGr2QDQa4lMfvojZ08eSSmUKTB3FE7a/yT2YL/GAUCWuz3LSEqahkiK5KMFZROlr+hwrelbBwNf1206fH4a2qDAEoi25mPTnpXUI3ktqULt+nmJLKdJJi9GjKrns/AWMqi0vOFXTxMSAoS3TNU0/lMwb//Iv/5LTQB/PeLMI+BzgjOz9hAZXXriEd1y6zPN/dYtq9A7iuD+oV0/euQOh34mtSvehT3uqUEQsERzU/z0HivoZwoCW5up92+yf0AdwJx3ovsPgZtgrHQx+TyE8kyKa4KzT53DqkmnFZ4TCkeCluq4dUibLs88+m/r6+hMi9BBQA5zve14BMLq+mo+85xyikaBn7807uc8qn+/GKHo5X/bHUl5AA7kgHuoetVROqFJzvz9OKvL6XOyJVcyNS5llSvVzqBxaFfW5sO2iyCQh0HQNw9C88DpDO4yP7n80DN3/nvd/cZWD3FiUSDBQ/A5SqQzjRtfxjkuXMaaxuuA3x5Xn6rp2sTgE3/5kMonruseV33MpHG0CFr7BfWX2XoGAwZWXnMycmWOxbKfffYgq+pKv7Om1G5YuiSKGyMXyz+9DkP0oP7JxvHrub/+YpqH7/2ePGbp/XPd+y/od67pWmNGxP1NTP5LIoL7Refv4fqWV/NzVmleEzdC8VEWOK5GSXl/h/vyI3byP9CK4XFci3d7vriuxHRcpFaapY5pG0apMriP9SkRCkE47KFdx7pnzufyCxX7IqTd2yVSmynacb6i8efaPgqMdjdQEXAE0ZA+cNGcCH3jnWZiG0Ud9r0pM0mJbb/E5g/kkDzrZS1yvaX54oPKdOX3u6breRNR0gSE8IrRdF1e6ZP0AdN0jBNuRZCzbE9EESFcRT6UxdIOayiiBgIHjuEOKox1M0dXnGYrE+FLjkNXoG4ZGMBhgf1uSR5/ewNr127FtG9P0SrxqWmHtt9x3/w+lFEJJ0ITvJAKapnmELL2kfbbjEouEmDG1iZMXTGHi2DocV2aLgIusF9eA2woBPYk0NVVlfPy689mxu427H17jPYtU2NKdALxfCPEY0O/GVinFD3/4Q6644gri8fiQJ/JIxdEm4KXA/OwfAdPg0nMXMnVCI47r9NkD9RE/h2B3HGjyD7QHzV8gRJ64GwoGyKRtXlq7jR27DyCVwso4JJIZUmnLy2XlSkzdoLw8QjKdof1gD47joADbdklbDpZPvJbt4jqSjG3T1hEnYOicunga737raUyfMpp02sJ23P4r8eUFc4hBtgeHOg6hkIEjFQ8+uZ4f/e/DPLlqLbZlD02sLLXCDiDbKzyPsOUnz+DbX3ony0+eTjKZ8fa3WX/tAZ5N4Dl2JBJpZk4dzWc/djFbd7awcUsuk6XQNDFdKRqBHQN1PRqNYprm34UW+mgScKNvNsrZfSeMreOsU+egaQJp57OJwdOzlkJ/RE8xYQ5wXfYcw9CIxSIcaOviF//3EL/4/WO0dXRjGLrHLWy3wK0xK0574mRvLSYkuCgvd08u/Yz/r1/VYNVLb7Dm1Z188ZOXccqiqQhNYNtu/1KE5tl8BJpXwJxebZkSYki1k4sRi4bo7E7wg1/cx89+9zDtHT2H3Mbh4KlVm/jY9b/ii/90KVdduhRdN0mlB/eEypoWbcfBtm2WL5nGB991Jl/7wV/o6k7i6x5nAO9USt2Qn+WlT1t/B4SbxdEk4PnAydk/dE3jonMWMG/WWOxC0VkppUR/4nF+7uViohyKSF2gNCqlpVUKw9CJRoKs37SLG/7nb9zxt+dJpA7PvCCElxZIAY5Teg5ZtsODT6wFJD/55vuYNn0s3R09SAlC03x2k5+H2bedahq40ifirPDp5+ESqmRtpD5+41IRjgTRDJ077lnNL256JEe8uq4zpmkUkZC3UGSzo1h+SiEpFY5U3pbB7dXU58qu0BvhlL17No2u46pcvu9XN+7i32+4nVA4yBWXLsWRCjvj9PFOK8677fmLC9IZh7LyMMuXTKemKpYlYJRSAeCDwMOBQOCFbIigEALbtrFtT7qorq4+bn2fi3G0CLjMNx2NyR5oaqjikpULiYQC+cQhFVjCiyrRCzTM2b1h0QssdrzoN1dUCTGwTxJyBZqhEysPs+61HXz+6zfzwGNr+1yj61mFlMDQe5VS+PMrFDSpiIUIhwPUVscY3VhFxnbYuqOVZMrKZfZI2w7bdh7ITeRnX9zCzX95jus/NYpoWYjuzpRf6kQVcNmsxVhJWdIdciCn7+Kjmi4IhgJs2rqP2+5cxYG27txvpy+dxWc/dgHVZQYZy8lJHhnb9nODKWzpYmUcLMtLfi4B188b5jjKqzrhSlzp5whzJZoGHV0pHnziNV7f5iUh3bqzlRv++y7GNFazaO4kpK/o6n3PpdP+aMKLVHJtl8kTGzjjlJns2tuev1iON03zQ7Nnz34lGAzaSilM02TPnj3s2LGDH/3oR1x11VV0dHQc9xpojiIBT/azbeRCSJYtmspJc8bj+DGYPmzhiTqBwUTdknujwSShUtUEixoIR4L0pCz+8Keneezp9QW/jm2qZva0JiorolSWR4iFA5TFQkRjAULBQDbtHtVVUWqrYkTCQSLhAOGQiSslB7sSJJJekvpwyAQBP/v9k9z21+eRUhFPpPntH59gzswxvPXSZYRCJpmM00+Xh+DvOASEQ0G6uxP84Y9PsmrNltzx0Q1VfOCdyzjz5AlYtuNlqpR+il//47oyJxHYrrfI6LrIZfRwHY+glfTjgn0vsHDQRNM0Jk+o49s/uZdWf9F4Ye1W/nDH00yb0kTQNLyFTWS9R0Wvpq34/StIZWwqyiJ88F1n8+La7by2cVf2V903W87VNG2N4zg4jpOz92YVV38PxMtRIuCgH685M3ugsjzChSvmUVEeJp3J7Xey+piQv7D2HvXRn/vkkJAfMtdPlg3TMDAFPPDkq9xx7+qcQgVg9rTRfOETFzJ/5miErhEMGOi6jqF5WRy9CSC9vWnWjis9MVL6OaLKo2HvRv75oYDBx65Zwfadraxasw2AnbsP8ONf3s/k8Q0smDcJx437hDK8E0z5Ji8zaPLKhl3c88jLJH1JSNcEZ582g+VLJpNMZ0invEXEswtn44npNYtlC5ZnRV7fi87bjWfdLVXuuKFpRKNBrrxgIS+/tos//HmVb2JSrN+8m67OJI0Nlb7LZ/7768uBs384toMmBMsWTOGL/3QZn/r339J20CNO27Ybd+3add2FF174ajgctuPxOG+88cawjudIwdEg4Ebg7PwarwvmTuS0U2d7e5jevYdUYAjQ820Tqiht6bCgH6VFKGSyv7mTm/74JFt39OaXb6qv4J+vO4uLzpmD43ia5KwCCj8Ni29hQgjPTgr02oh98VrTfO4kNJ+OBQvnjeOK8xfw6qY9HncG1qzbwQOPv8qsmRMIBAKkkunDjx7odwzIZfeMx9Mkkr17fMM06O7J8Ic/r8Ky3Nw+Phwyqa8r91LPSE95Fg4FqaqIUB4LIwR09SQ50NYDKEbVVqDrGolkBinxUu5oGihFMGBSEQszbWIDVRWRHLHt3n+QXXsP0NRQ5eXJLqhLNRAEluUQNHUuv3Ax9z76Crf85ZmsGG6m0+krgD8uWLDgqfb2du65557hnlUjAkeDgMcAU7J/BEyDUxZOpWlMNZYjUTLnQ1wyP+ObJtj4hNbWGWfT1v25w5FwgOvecRpXv2UJCJ1UyvYmlr/PFHnxhprQvBpHwsvj5PoaaalcHFuSsV1SadvfI8rcnlEpPF2AT8CJZJrXNu2ko6ObUdUx0kdpFLJiaSKZwrJ6pQ3bdnn0mY089sxGlPLs3EIIDF0QDYd8jze/wJypEQkFKYuF0QR096ToiXtlSMpiQTRdI5NxAA2hed5dIDCE8LYIll2gdT7Q1sP23QdYtmgamiZw3aHtE7ISdjJjEQsFeeflp3L3Q2tyCq1EItHw2muvXXfxxRev3rt3b8Z1XS2/FnUegkC5X8YFIYQphDB92tA8niMTQogOv5LIiNJ+HQ0CHgtUZf8oL48wc3oTYVMnaVm9LyCfVvvJEPFmQKAK4kwnjq3lnNNmIoRGc1uX52wgvWB4r3Kig0TiuBIrY5OxXNIZi/aDCVrae0gm06RSNmnLIZmy6OxOkUplSFs2luViWQ7xZIZ4wiroR2dXglQyiVYTG95VLK9sqqZ5+9PWtp4c0eFLRT3xVMnL2zi6Rb6yCsHDeWTPNqxIWTYL505k9vQxPPvC67mmW1tbz21ubj4feGD8+PHO9OnTxQUXXKBSqZQQQoyRUi6SUs4E5kgpq71hUmF/W5clYqWUOiilfFUIsQVo0zRtlxBirxAioZSygaRfZeRNx3ATcAyY5f8PQGVFmNGNNWjSy0Oc2zflqZSHUiZzuOGJa5L9LR105U9eJXjwyc08/PRmDnb2YNs2luWZUJJph0Qihask6YxDT0+SZMrGdRWpjEUmY+M40ndF9D62M7QF27I9LS659LODX9NbJHygbYe/P/dlfqkUGcsuCAsMBAI0NDRimjqWZSOlJBgMkslkaGlpKRnwbhgG0WjMkz58xWTWpdS27dyx4pItvR5t3riUl0UY3Vjla/QPbyJIV1FRHuGtlyzl+TVbcly8paVlzI9//ON/vfzyy1v/53/+Z9WMGTOoqqoKxuPxi4QQn7Bte5brulEhRJlSvcGVxUkA/X6d5rpujxAio2lawnXdHYZhNAsheoBtSqkNwE6/1lfHQHbo4cRwE3AlsDA/5nfi2FGMbazBq/LbO9GyWQ2PBfEq313ScSWbtjbntKIC2LazlZ/+3yM5E0rWHpq17hyu/dAzR+kYhjfkWe1oFrbj4qJ7jsn9ttHbltAEWb4lNE+cz+7R8zV+Snnir+tkM3soTFMg8gY+FArxrne9i8svv5xUKkkmk6Gnp4df//rXPPLIIyX7EolEuPTSSzjzzDNRSpHJZAiFQsRiMZqbm+np8bzTssTsui6GYbBz507uv/9+Ojo6vAlTHmZUTYXvqXWYBKy8cq2XX7CY+x9/hQcfexXwFpbt27cvW7Nmzfs+/vGPb2loaAh0dnZ+wLbtDyqlxvdXC6pP1hLvb1MpVZ1t13XdKbZtK03TXCFEQkrZrZSKA1uAu/zPgSOdq4NhuAm4PD/RmBCCxlHVVJRHPJNCP0np3nT0egoUmGcUkLJsUlZfaUjTdKTsf1HVdZ1QKJQrCm0YBo2NjUydOpVwOEx5eTlVVVVUVlYSCAR4/PHHefDBB7H8bYWXB7vQ26u3bQ3DMPKUBiLPccPbd7vS1wSL7Bh7LpgChdAEuml4XFIIJo6tZ1RtJQc7PfG4u7ubjRs38MlP/jONjY0A/PjHP2b16tX95ovq7u5m//79nHnmmUyePBnbtv3ADZ1MJlPAgfEVfKD4w0038eCDD+baGd3kz4+iwnCH9Dp9E9fYxhq+8i9vZeeuNjb36jWM9evXv+WBBx6IjR49erRS6hTHcYLZyKhDMSf19SNQQkppABX+B2AGcDpwEfBt4MXDnKVDwnASsAAW5DtvaJogHDK9mq8lHOyPFbIVEnRNUFURJRgy6Ul4YrSma9RUVVBRUUUoHKWiopy6ujo6Ojp49tlnPZ/nokTsSilCoRCXXnopl156MWVllYRCIcaPH0d1dXVuYuu6TiAQwLIsNE3j0UcfzRGwp822PNLzuWa2faEE7Qd76OpOeItMJsP+1m46OuO4tktnV4KOngTBgEkoGPCkBiWQrkswZBKNBBnfVMeiuRMIBAyWLZrGB645k2//+K8c7PC0wffeey8//vGP+OIXv0R3dzff+c53aG9vH3Ac16xZw5NPPsmkSZMwzd6skcFgsOT5zz33HL/57e9y7ZqGzrRJjZTFQjlN/uFCSknaslmyYArvvuo0vv6DO0AYzJ0z2z33vPNrTzrppHcmEgnhuq4oDms8/HlUkviFrwO60qeFLwKPDssNS2A4CTgGzMvf/1ZVRFk0byLlZWGsjN1v1o1jAS9SRjF5/Cga6ipoa/fE6ICu8bbLz+cjn/gs4Wgl0WgEXdf56Ec/isxPyeoj+3cikaC5uYWlS5cxefKUAe8dj8fZvHkzqVTv3ltoOpruvY6suK7rAoXgvsde4ee/f5hde9u80LqMTXdPKud9lNV+F8dS58qeABXlET71gQv4yLUrqWyo5N1vX8HGTXv57e1PIKXCtm1++tOfkYj3oIQ+KPFmn/nJJ59k8qRJhMMhamuqiMTCZNIWVsai7eBB9u1rJplM8vrrW7j99tvZtGlT7vqmhipOXzaDaDRIokipdzjwQhkdLll5Eo89u5lZ807hwx/5mDZx0mTS6bSwrCO/xyHiZKXUj4AvA3cfDQ32cBJwhe+8kVuK58wYy2knT8PQNRLu8BWjGg54YhdMHFfPSbPH89qm3QCkLYdXN27FNE2mTvUI8amnnuLRRx8dNHvDhg3rWbt2XY6A8/fLWWndcV2eeOIJ7rrrroLFYGxjNVWVsZwThOe2qfPyazv50nduZcu25iN63mQqw8/+7yEWzZ/Iyqr5NNRX8f53ncWGLXtzHlldXV3c+NOfI4QYUqZGy7L4wx/+wJ9uv51IJMTohjpCQZO0ZZFOZ2ht6ySR9LTdxXv+aDjANVcu58xTZmPbcph8kz0F3ZjJc/nK1xbQNHY6NTXVIplMHsvMk3OUUv/lm6TuHO7Gh4uATT9of1H2gK5pTJ3YSG1dpecEMMIiQBRgWQ51NWWcc/ocHnxiXU6Z9dQzL/C+93+QL33pyyxcuIhbb711SGUnE4kETzzxBOXl5ViWheO6OFaGcDhIwNTZv38fa15Zzx//eDv79/fanqsrYiw5aTI1lTGsjOPvoTUsy+HXtz7G9l2tw/LMB9p7eOK5TSxfMp1w2GTx/Il87yvv5r9+cTcPPL6OZDJzyClmskEC8USC1gODc20A09B466VL+ch7VxKNBEgkhikvlZI45ljs4GymzQwCklRqRJQLnayU+ldd1zcLITYOZ8PDRcDS/4RzDZsa5WVhAoaRV8XuTR+4fiH8spKhUICzTp/DKYun8df7e/UNL7zwEh/84Idoampiz549Q1rBk8kkP/vZz/jlL3/pDYrPVYSfYdFxJa7r9mnr3DPncsWFizENjUQi5VcN1Nm6o5Unnt2AM0RT1GBIpS227WghkckQDptYGZtFJ03kR19/H088u5GnVm/msadfY2/zwdx2J5uJMmsmMg09p8SQfu7m3Jj6WUp0XcM0PU+ugGESMA1CIR2BTjBgcNbyWbz/mrNoqq8hkcjkAv8PH8qra6FXkDGnoAj4/Ro5PhdSyvlKqcuEEDuA1DA0CcNMwAm/WDf4TvNNDVWEQoavvT3UMPSjD6UgmcgwtqGGz33sEjo64zy5apP/m6KtrY22trZDaE9hWRaHstdatnAK/3TdBYwZXUcinvT2vpqGLgT7mztpPtA1bM8rlSKRzuBY/t4ZhbJcaiqjvPXiJVxy3kI2bN7Nmld3EI+nCIeDpNI23fEUlmVTUx1j/OhaTNPAyjikMhnSactLRuCnEYqETGqryojGwgQDJrqf3cTQNAKGQVksRFlZGN3Q/Wyk8hCIt1SGLwU4SK2MtDkdyw1haoOVV3vzoZSKuq57pmmatwghdg1DkzCMBKz5yqtcxYXqqigzpnpRJvFEesQRLz5ndFyXdCrDqYun8z/f/gD/9bO7ufP+F+noSpQ4vzcPVpY7ZUULTevNdpxNwdP/fQUVZWHOXj6Lj7//PJacNJlUMtXr9CG8FdEM6p4Gf9ieVxAOBTANw/OkUX71A+ktGgFTZ8GcicyfOR5XueiahpIS2/EcPwKmZ87KPrtnlupN5Jxz+pKezT8Xzyx7k5opQEoHO2PlEtF7Y6UV2sBLmCqEfx+FzAu5dEGPYYdm4Yo6jENLyX9EY1nKGjEIJvuxAiOOgIN+iYucCB0JB6mujIEfyTKSxOd8CAEZ20ahmDNjNN/6wttZMHcC9zy8hj372wmaASorwoRCJsGASTAQIBQKYBg6ru3iSolu6gRMA8NPIKVpgoCpo/u+vfnJ5jThjc28meM4dfFURtVVkLEcLMuPhxW9yeQmjK1l/Jg61m3YOSzPGg4FmDKhnmgk6O11e5Nbeb7cGQuhKUwNdM2jPE3XCJkRhNBR6L6GXHhLttBBNxEiAJruEZcCqVyUk0G5Fgq311vHfzaEQgsBUqIcB6kclHS88EwhEIEAGJrny+TIvMQBEiE0v+QsoBzQw9ih2Th6E0K5bxqbOEynk2ievXhYMFwEXO5n38hx4KqKKLFwsCD74YiAUv4K7voROp53mJWxkE6G2uowH7h6OZecM5uDHZ4CJBw2MU2DYEDHNAw0TUf4SdykVH7UkZ6rVK+UQNc8Qu7NVgGaZuSik8JBLz44nbb9GGlvguqal0XCdV3q6yp5+yVL2bB5N4575Pu58rIwi06aRChkkkxaHgECSrmgHISSKBXAEmE0I4YwIuhmGcKMoukhlBZC07JZJYV3vaYDul8KNstBJUK5KOX4e1FV4DcrdO9/6TgoO4m0EriZTmSmHSUTKFtBlwURA4ICbAek8JlBdi65gI4bmoitN+W8zI7dtBr83kIIKYSwhtMaM1wEXAbkysfpusb0SU2MqqvwfYKPVElxOOhNAaeUBCXJc49AaAHQTTQtiNCCCN0EpWMJQbAywMR6k4kKkE6O2LPKEqSNctL4/ol++y5KqKIFqzeQICf2aaBcSTrjicyessg7zfO0koCGlGDqGu9+22k8sXoTDz2+7ohHpKY6xswpowHhpzVyUdL1CE6Y6OF6jMhY9PAo9EA5aAGEZiLEwC6ehwp3/0GcHbsxJ41Fqx/jLSCuhXSTuPFWko8/h7t+H1pDBH3ZKKgJoZIpcBzQTf9d2CijFscYh0Qg1MgvUKaU6lRKHRiJBOwAOc2NaehUV0YIhwN+ScviLFZHG7JXC6mkv88KoBlRRCCKblYiAhXoZhShRxFG0JukaDlvbSkEmvAXACl90dFrT7o2uCmUsjwCkD63QYJ0PYJHgfCHV0mUm8LJdOCm4+BkkNJGKIVm+HmblPS4t3RACZQmsDEZ21jD9R+/jDXrttN+8PATz5mGzvIl02iqL8exUrhOCqFpaHoUI1SHEW3CiI5BC1QgxNFLlabSGdJPPk3q4acJn306kSvOR4QCYITRjTC0K+TLHcgdPaidSYQbxjhrCqJK4sZbkVbGl/pNpNmIQwQhR351BZ9otziO0z4SCVjLb8uVkngqg+1IIiJP3FJHUa3vE5dSft4oTUNoIYQRRQtWYgRr0UM1CLMMTQ9DlrMMAUIvVMHlX6VQeYXHZVEmCa33u3SRMoW04riZblyrAyVtT2T2ok6906SFzHTgWl1IxyKZdFm+ZDIfuuYsfviL+/IzmhwSqisiXHn+ScRCOsmMwgjVYoRGYcTGYUTq0Yzo0VE0Zu3KfoI52d2DvXU7zp69ZNa8THDZSRgTe+t0q2QC1dMNugtKw35xD5odI/yW5chRE8m0rUemmhHBGtzAGD8BxMgl4DzRul1Kea9t28Ma4DCcBJyD60hSSc+RQZDVUIqj48uhpLcfUgqEiRYoRzfK0EKV6KFa9EANmhkBPYhgaATbH2R7J8QiaMHcVt/PcpHVP2v904BmohNCD1RhRiVK2v5iIwo0tCBRdg92cj9Oci9Oqh1duXz6g+cR7+nhxt89xqG6DZuGxhUXLub000+BcC1GuIpQpAnNLEMYwaNmIVDpNOmnngdNJ3TKIkQk7BG0AhGN4LYdxFq3Eb2pHuGPqVZdjjGuAaurC6VLyNhkXnoNY/IUwhecjtZQhtX2Cg5lSBHxJJcRaKLMQggRB9YDtyml/jLcYYbDRcAq32oulSJjO15uKC3vjGGF8rmuQuhBtECVJwaGG9DMCoQeROiBXpuMqyimX2XbuLv3oRAY45oQRv/D4WzbSeKOewksmEP4zFPAOIKhE5rXv+LD2S9GFC1YS6BiCk5iH06qmfoqm8//6wdp7zb4452P4h6C2Dhlwmg++elPEhl3NrgmARFAaENbzJLJJLt27WLMmDHEYrEhXZOFvXUniT/fB7qOXl9HYM50tGgUva4WETBRlo29bQehZKqXgKsqiVxyHgRC2K+uRyFRmQzOvt2odBozOha9oZxUsgeVcntT7o5ACCG2At8D7lNKtQDpYWi2AEdKwFm5a1p+8TJ8x/JchElOOaOGYR+cTbcqQQtgRBoIxCZgRBoRehS0wkdSlk1m1RqwLEKnLYFQqLePre30/O520DTKPnA1xpim0rd0XVJPPE/mpXWoZIrA/FnodTWDdfSIIDQDoZURKJ+KERuPUg5jZwX45g2LCFV8h9///g84zuDidDAQ4JOf/iwzF17qCf/60HmVF+DwU/74xz/yiU98gmuuuYZsruVB4UqcbbtQ8YRXgGznbsxZ0xDlMQLzZpJ5ZT2yuRVlFdXHEgJz+mRiNVUkK2KknlkNgF5bhTC9e2tmBXo4DOmDKOn6GvB+xnFo9tnhRkYI8ZIQ4htKqfuO5o2OlICD/pZwGvQWWdY0QSQc8BwBchUKDqW2XikUZjrUzEoC5dMIVEwDI9zvKmyt20D81jtB1xFNowjOnOYlz7MdrHUbsF7fhhYwcXbu7ZeA3QNtWBs3o4VDyK5uSCThKBNwDkJD03sXnYmTp/O1r32dQCDIr3/9637jdQFM0+SCCy/kPe/7QM5kNOTRVooHH3yQb3/727S3tzN69GguvvhiamqG9txKKWQiCaaBcCUqmfa0yAGTwNwZBBfNJfXEsxhj6tEioT7X67XVRK+4CKOpAXfPfoLzZiMCvSGLuhDomo4r3EH7cbjIzyJS/BNeDLhyvfQfWe7UCawC7gPuAfYc9s2HiCMl4E6/42t9/84wQDBgUl9TQThoIpWv31JHmDJIKYRuoAdqMSOjMWLj0INVA5o33P0HSD30JLI7joiEkS0HYMZUj4BTaezXXvfIPhBAZTKeIqk4VtSVZF5Zj+ro8haBWAQi4UG72x/S6TT79++nvr6eSCRyWG2MGTOGL37xi3R1dXHrrbeWPEfTNFasWMENN9xANDo00Tff/3nt2rV86UtfyoUVtre3k04fogSY5Yw5by3/z2iEyAVnYYwfgzltAiIUKn15WZTwWaeiHAeRF2+cfT7DMLAsq08KnCNF1sssm6QgEAgowFVKpYFdSqk9QoiUlFJqmtYlpWz1aeF5YI3vVvym5Mg6UgLO7ntbgZ6sGK3rWm8gf76L3GEthp7IrAWrCFTOwCybhKYFB7VLKtshs/ol7C3bEQETYZiIWCw3kdyWVpzmZi90LxZFr63uS7yATCSw121CuZ6Zx5g0Dq3y8JxpXNflzjvv5Ac/+AHvf//7+eAHPzh0kbQI48eP57vf/S5CCG699dY+nMY0Tc455xzGjRs3pPbyiWDz5s185jOfYd26dbm2Zs2aRUXF0J9bCIFW5u2wlBBosYiXYtaHPrqBcOOowV30dB1RYoyy+bcOFdlrhhK+aJomQggHeB34kxDiMaXUdqAtTxml8j7Om+2EfaQEHM7bA5dnD7quJJm2/TQvCqXcnKnlkKAU4KKHGwnXnYweHjVkbaNKpXB270PZDhgaRkMN5sTxuUJqsjvu7b9chd4wCr2hoWQ7cl8Lzu69nlkqGCA4ewaYh0d0yWSSv/71r6xevZp4PM6yZcuYP3/+YbWFn1hO1/WSYmImk+G73/0ue/bs4ctf/nIuVU5/yBLvtm3buP7663nyySdzv9XX13P11VcfmhJL1zAmjEVEI2iajjFuDBhF43YEmTGyOcYOZY+b9WUfjHj98xxgA/AbpdStQojmbJrZw+70UcCRute4/qqTAHLFVoUQ6IaG0PAdHQ7DS0a5KGVjhOoJj1qGHq4/JFOB0HXQDVQ6hRYMEj5zOXpVebaD6JUVCF1HCwYIzp+FVl1ZoguSzKYtyGQKBeij6zGnT/UStR8GbNtm924vccDGjRv5/ve/XxAXfCjYv38/N9xwA3/605/6Paezs5P//d//5frrr2fHjh39TlylFN3d3dx8881ce+213Hvvvbm44KqqKr7whS9w6qmnHnIfzUnjib31YiJXXYQxYcwhXz8YDlV68ZI4uEMh+C7gp8DlwA+BbDaFEUW8DAMHznpfveIn7xoLXiqYSDiAITSU6/rPfSh7FAWugx6qIVC7GD1Ud8gdE+Ew5twZ2Pv2E1owl+DJJ+WcCQD0xlGEzz4VmcwQWDwPYfQlStUTx9rwhldDQleY06dCJHSIPemFaZqMHes5LSiluP322xFC8JnPfIZZs2blIn0Gw/r16/nWt77F7bffXqDEEkIQCoXIZDI5YrUsi1tuuYWtW7fysY99jBUrVhCLxQiHwwghyGQyPPfcc/zsZz/jkUceoaen19srHA7zsY99jOuuu64g59WQ30EwSOj0pb4j+PCberISSLbq4DDhAPBdn4BHRDaAAcdgmNpJ+Ok0bcC0bUlXdwrLdYkchrippIUwggQrZ2FGGg/5evAmTGjJfAJTJqBVVyAChYnWRCRM5KJzPE9Ls/QwuM0HkNksEwGTwIzJiCMI74tEIlxyySXcddddJJNJ0uk0N910E88//zyXXXYZV111FVOnTqWysrLP/k4pxd69e7n//vv52c9+xpo1a/pwkiVLlnDJJZfwpz/9iQ0bNuQSBziOw7PPPsu6desYP348s2bN4qSTTsIwDJ5//nmeeuopDhwodBAKBoO8733v43Of+9xhK9u89zB8PtTF0HUd0zQH1MQPFb4OoFUp9VUhxK+BYUoTcnQxnAH98ayIkbFsmg90kUymKYsED8nQrpSXizkQG4NZPvGInOhFMIjeMGqApzcG7pl0IZNBJdOY0yZijBt9RHGRuq5z8cUX8973vpef/vSn3i2kZPPmzfzgBz/gtttu4/TTT+eiiy5i7ty5lJeX4ziOn/Z1I7fddhuPPPIIiUTfWOUZM2bwzW9+k5UrV3LOOedwyy23cNddd7FrV2/oaTweZ/369WzYsIG77roLfA5dvBBUVFTwjne8g6985StUVVUN+lzHCpqmEQwGSafTR6yJFkJI0zTX2Lb9WyFEhuOkEPhwBjO0CCEspVRQKUVrWxfxeIaGUf5eeKhjIR00I4ZZPgVhRId40dGB1jgKY8xolGURXLoAET3y/lRWVvKFL3yBtrY2/vSnP+UmieM47Nq1i5tvvpl77rmHpqYmGhsbSaVSHDx4kJaWllwy9HwEg0GWLFnC5z//ec466ywATj31VObOncu5557LjTfeyKpVq+jq6s3skU3EXoxwOMz06dO59tprec973kNtbe0xHf+h4HC1+CUghBD7TNNMZ8com4V0JBPycBGwDez3RekygPaOHj8TB7myk4NCuQgURrQJPVQ/+PlHGXplBZHLzsXZ10JwyYJh28eNGzeOb33rW1RWVnLHHXdw8ODB3iFQis7OTjo7O9mwYcOA7YwdO5b3vOc9XHvttUydOrVA7C4rK+Oyyy5jzpw53Hbbbdx8883s3LmTeDzu5cTW9dwEDQaDNDY2cuWVV3LNNdcwb968XAWJkY5SqX4PB8rDOt8xyRFCYBhGTvHFCOXI4kg6lSeyGMC1wPf98iqMH1PHT775Pi49fzGJeBLbcf2A9/4L/yhpoWkBQqOWEaicOXIc1F23QAE2XOjo6ODBBx/kj3/8I88//zzNzc2DZoU0TZPa2lrmz5/Phz70IS666CJCoYEVa5lMhrVr1/LEE0+wYcMG0uk01dXV2LaXq7u+vp4zzzyTZcuWHbK/87FGd3c33d3dORPR4UIptcM0zYuATf3ZcrP1rnL1kAcwS2V/y1UjybtmMDT0Y9IsheHcA1v5ZqmWA528+MpWzjlzHmbQwPaTkA8mSwsjgh6oGjnEC0eFePFNNG9961s588wzeemll7jvvvt4/PHH2bVrFz09PbmXbpom0WiUCRMmcN5557F8+XJOOukkRo8ePSRnhmAwyMknn8yCBQvo6OhASkkgEMhNvEgkktNKH09wXRfLso6YeL365+IO32FjwAk60rjwcBLwq74YXQ6Qztg8t2YL+/a2MWViAynNGmxovKwZWgD0wzfVHG/QdZ36+nouuugiTjvtNDZv3syaNWt4+eWXicfjRCIRampqmDJlCosWLWLy5MmUlZUd1r1M02TUqFGHde1IRDKZLLmXPxT4e909uq7/wXVddxj31G8KhnOj0wq8AUzPHtjw+l42b9nHlMlN6JqGkxWjB4Jm9oko+kdBeXk5S5YsYcGCBXR3d+M4TtYXl2g0OpwKm+Me6XSaRCKRy1d9uPC59x3A+pHGXYeC4aQUyyfiHLq6k7y+vZnzHAdd13K1fEpCKS9O1ogc1ZQuxwMMw6C6unoYWvr7hOu6xOPxXLDBEWKjpmm/yjolDaSDGO6gieHAcFJKys880JJNcBdPpFn98hu0HYwzqqoMyxrIpdKLFdb04JBT3ZyAh6ypI1uH17IsUqkU8XicZDJJZ2cnpmkyc+bMQwpIGIlwXZfu7m7S6TSaph0yQWUJ3h+z/cBXgVy5k+ONCw8nASeBPwBTgA9lU0etfmUrr23Ywbmnz0UTGrJkXqy8lyCMkZtE+hih1Mrf09PDnj176OjooLOzk9bWVpqbm9m7dy8HDhygra2NgwcP0tHRwcGDBykvL+f666/nox/96HFjIio1DslkkmQyOWTFVa4aph/8kB0713UT0Wj0B0KIvymlRm5SrUEw3G+yGXjcdwJvANiz/yCPPbuRU5fOQjc0XOtQSmmcACUCynfu3Ml3v/td7r//fnp6ekin0zmTUNZZXxbVLKqurqa6uvqY76OPRAx1HIdkMlly31vYbjYOWWAYeq4+c2dnJw8//DA7d+7k0ksvfbCysvImx3GGrU7RoSDb1yN1Az0aS/F6XxvdgF8B8OW12znQ2sHoxmpsu5QY3ZutQyl7oOyVIzd72ZuIl19+mbvvvpvdu3cXOGSUwrhx4/jc5z7HOeecw7Rp0475Hu5w7y+lJFsmNNtGLjuLL0orpfyyLg6mpshYaVa9uIHNm7ewf3+zeumll8Tq1as5//zzW6677rrbq6urWw63ZrAQgu7u7kMui5qNY+7q6kIIweLFi3N27CwOhaiPBgG3+ialBdkDL6/fwbr1u5gwpg5N0/p/aOUnquvf3iTyQpv+YQl5xYoV/OAHP2Djxo10d3ezdu1aXnjhhQJXS03TiMVifPrTn+ZDH/rQoM4eIx1SylyUVZZgDcMgHA4TCATQNA1Xutjdu7C7NxILC9Zv28O3v/ELnlv9GoYhhC+dJPbs2fOjdDp9l67r8kgWtIqKCrq6uoZExEopQqEQra2tGIbB+eefz7Zt2454XI4WAT8IXACMAmht7+aWvz7LskVTqagIk07388DCDyAYXJHwD82Jq6qquOKKK7j00kvRdZ2Ojg7uuecefv/737N582YqKiqYPn06b3nLW7jqqquOe+IlzzdZCEEkEiEYDBIIBAr28yYGuM0gWzBUmH17d7Jz1x7AJa+i657u7u4HlFIJ4IjHJhwO4zheYr5SKYeUUpimSTgcpru7m2uvvZYXXnhh2MblaGkzHgUeAd6JX63u/kdf4YGz5/Ouq05H0xy/En0+eis3DEKdb1Z5hxGNrH0YoLa2lne/+92cd9557Nmzh1AoRGNjI9XV1cNhZhkRyEYehUIhysrK+tnLKxy7ByE0XKWxY2cbXT19QnrXpFKpfatXr6arq+uIHEGEEMTjcVzXxTAMVqxYkdNDJBIJgsEglZWVbNy4kdbWVr7xjW8MK/FyFAl4P3AzcFo2yL+zO8mf73uBS89bRCgQICOL5Xw/rZAQJ7TQeciaiLIBCP1B13UaGxsHTZ1zvELX9ZwJrL9FSTlJlJ3EMEw6OuI89cImEskCHVUrcM/u3bub3//+9w9r/yKRCL/61a/IZDKMGjWKCy+8kNdff51HH32U2267jT//+c9HZVyOpj3hOZ8Tvzd74MnnNvPEqk1cet4iLMculJSFBlIhrW6UmxrInVJQUO7u7xtZ4j3WyqeRgMGkCTvZAm4CPWDy0qvbefK5DcWy2kvAM0ejb8lkkne+850ATJo0ie9+97vcfffd/O53vzuqY3I0CbgduB04CxgHcLCzh5///hGWzJ9MZXm4N8AB/DgIHSfdjpPYgx6oGChl1z/MbP57EYGPJhQgXQurawtSuriOYPWaN2ht684/rdvXzQxbce3+sG3bNt72tre9Kc9+tGfHc8BT+QcefvJV7rz3BYIBE62AqyiEpntV/Hp2Iu3EQO3+Q2uhT6AQAtCcFgz3ANFoiJ54mjWv7cQtrKm8BXhsJCamOxIcbQI+CNyb7yNt2w433/kMBw72EAwVJUoTOkLTcTNtyHTbsR6bEzgMZDIZUqkUjuNg23bOrTPrQZVKpchkMmQyGSzLwrZtbNvOuYG6rlsQdzs0SERqKwFTYUSC7NrbzobNBUURHOBJn4j/rvBm+NQ97fua5uLYXly7lT/e9RwfufYcdF0rXCmFgeumsBI70SMNCP3wqyAcTzje97m7d+/m6aefZuvWrTiOQ0VFRY4gU6lULvBA13UMw8h9z+Z21nU95+SQ//GOCzRNR9N0f4y8ovGapqPrBsruwOlah6GBEQzyzOrN7G0+mN+9pM+sFvsuvsIXpXfl17U+HjFcGTkGw1v9/Lq5+knjRtfwfz/5BMsXTyNtWXglZjwoN4Mwo0QalmPGJh/rMXpTkLVzHo6D/rGElJK7776b73//+7lsH0opDMP0OajCcXpzMQtNQ/Mrqoq8Z83/38vc4qViKjxeWOoy55ElHZTM+EQuiCcy9MQLtM+uLw32+ASs+XWL7gee8L0HR4zIdyg0+WYRsA582o/8iOEXQHvbpcv48dffS1VVlFTK6tVKSxcpbcyKSUTqT/eLT//9I+uocDwR8Kuvvsr73/9+XnzxxWPdlSL0N4YF8z3uf24CvjxSuPGh0OSbFZbiAv8HnAucDyCl4r5HXuG2JVP58HvOJRgMkE7746cZCFxkcj9OqoVA2aRjMpBvNo5HjXNLSwutrb1h4MEgjB+jEQtpOA4YhoZQOrqmIRW4UqFUry9Orii6X+BcEyYov6ZW1q1WaZ5rgPJ0l7aUWLZCQ6MialIeDaKkJGHbxOMuybSLoenYriJj214zfiq2pGXRk07hOAqfmcSAdwF3+9z4uMKbGVd2APgmMNkPOaQ7nuK/fnYvkyc0svKMuZimjmW5CKFA6Egng92zAzPSeEz2wsf7vvTNQFlZWa5qQ215hA+/y+SMRTHMoI1LwtunyjKEcHAdgWOHUboNIpMjSJQJmgVKIAghnABKT+UUxkKZCEwUDiiBkiaOdFC6RSRgEDa9pP0WkEmbZDICTShs6WDZOlJpKCkwDUkirfPoaoc7H7bo6rUyNQD/Aqz249qPG7zZgaHPAt8GfuwXB2fHnjb+9T9v4kffeC/nnDYbFFi2gxA6Sri4yX24qQMYsaFV2RsuHG+B3ccK2UACgOmjR/GWkydQJ5YRDz6FkBqusNCtsSjjIJhpdG0s6AmEU40SDm5wK0JFMNITcY2DoNsIpxw3tBPNrkNqCZTeg+aWI41WhCzDTE3HDW1FahlwI0izFeGWEXPLcCv2EXAasQN70dwqEGkQLkppoCeImTFOmhAgYm7mt3/tIOX55WcVXAvySuXK48Ft980mYBe4BZgNfDJ7/01b9/GjX95HU0MVs2aMRfakvfQ7wkA6KTKdG9FDtQjjCEp8HCJOcN6hIas9BuhIW/R0O8Rie7GTAj0xAyeyBWXpIGpQKERyCjK0G6U5SK0HMrWgSaQNjpnGTM5CcypwyuJodiVCNqBEBifYitQj6Kmp0HkGboXCDe5HyAhKM0GzUXY1Sgugus5AVj4F6XEoowtpNqPb9UiRIqGZVGgTOHWa4i+xDaTSPVlOXwf82ifgm31f/viRjs/RxrFIzZAC/h9wDjAfX6H1+LMb+eK3b+Xrn3878+ZMJN6dwHG88qROYhfpthcI1S1F/ANlrDweUF5ensuSuedAF13WGUyrmEQofQ6iPIoTGo3CBamhu/VogfFYoVdwgm9gWBMxMpNwA3tQIkGAUQTEIoQKocfiKC2JmTwJIXXs8CaUsDGZickkjFAaq+xlsEMYqcmoYDMqZKOlxqLHxuDGXkQra0O3JoAaB6EkrrIJuhOJMpMqggTY7hciBCDgJ2Sc6utpfg/cAOw+1mM8EI5VbpUDwD3APEC4riSeSPO3B9YQMk2++5/XMmH8KLrbu5FSIHCxut9AM2MEq+b/w2atHImoqqpizpw5vPTSS2QcF8YvpunCi1G28hM0XJznte7bj+TpKOWAMBEYvdJqTlhVSM5ECBdUAKG8I/kRa0ItAt6N7TgoBKahAxKFDsrCVSehCR1BDJTui9ESQw9hhKNUPhaFX/8m9xyapqlAIKDS6bQGVAAf9vU13zxa/tPDgWNFCRL4I/AWYHZ2u6mU4s/3vUB5WZivffEdNDZU093Rg5QaApdMx2sII0agYvqR3v8EhgnBYJAxY8YQDIaQ0qHHSiDCBnp0II368ElRRkmDUdinwQGua4ggTC27tKjy8vLMtddeq1566aXQmjVrRCqVCgAXAlXAR4B1x3Sg+8Gxslsof0D+Xde1zvztpuO43PTnp/nhT++mO54mWhb1F2Yd6aRJH1yHmxoxNvd/eAghfEWWQErFgebmQ04zczhQOTPU4aG7q0M5hbWVxSmnnBL82c9+Jj7zmc/kl5hZ4vswDL3eyZuIY2l4VL6f9PeF0AqCg9Npm1/c9Ci/vekRpKETjYWREoQwkVYH6fYXkc6I1y/8Q0EIgeM4bN68edD6TsNyvyOIZZFSsmXTFpLJXLC/6OrqCnzlK1/Rbr/9dq699lq+8Y1vUF5eju+E9A7go8Cbp0UdIo6150BGKXWjEPyuWOvb2Z3kv35+D/ff+zyBWJhwJIhEIdCxEztJt7+EckeE48w/NAzDoKysLJfaZseOHUedgKXqxqUVRfKwrDzd3d088eQToqOjIzvplJRSvf7663z3u9/l29/+NmeffTZXX3119pII8B5gxZs9voNhJGiDDiqlvg00grg4/4Xs3NPGv3/nj0SjYc4+Yy6u42LbrueN07kZIUKE6hYdnUoOCpS0EZoGQ000n93M/wOZoHRdZ+7cuZSVldHV1cXBgwfJZDJEIsPPrJSSpJJrSXQ/h5OKYwQqiFYvJhyZ7yvDcnCzUYal2unq6mLTpk35CSEyvh9IeSaT4ZZbbiEQCHDxxRezfft2HnroIYBJwL/6Tkid/mcNsO9Y2oqPNQcG7+m3KfiSpnGH56LTi7Ubd/GZ//g/Hn5sLZFYBF3XPIJVikzHOjLtL6PkkeXWLd0niVIWh5Tz+x80HdDs2bOpr/fqOe/bt49du45OzHzaeoUD235Fy5Nr2XdnBzv/8gw7n/8ePV0P4NKKq1qRqpNBYn6dN954o7Orqyt/nhWkQs1kMtxzzz0cOHCA008/nYqKiuxvK4D/9M2gPwW+lU1WcawwEjhwFusE4lO6LjYppf5ZSlme/WHthp189fu3M25sHVPG1dEdTyM0E1yLTNsrgEaoep5XGG2YIISG0INeqp9/UCQSCXp6epBSEg6HqaqqKnleLBZj3LhxvPTSSxw8eJBNmzYxd+7cI/btVipNMvECmXQbUqVIdjxH5+oMiVVL0a1RCPMgHa2rcMWPqRi1ACWDBCLlRGsXG7GyUxAi0KfNZDLpPvTQQ/GWlpb8uR8CQkIIGQqaKpW29La2Nn7+859jGAaZTCa7Kmu+VjqLa/w98lf9wn5vOkYSAQPs1XX9B0KIatu2PyKlzM2AZ1a/zte//yd+8q3rCAR0LNtF6AGUmyHT/jJIh0D1nOGNXDpGRdYSiQT79u0DX0QVQlBWVkZVVdVRr6yQTCZpbm5mzZo1PPfcc+zatYtMJkN1dTWXXXZZyYLiwWCQpUuX8uCDD5JMJlmzZg1XXXXVERGwUhadLXeyd82fie9Ko4SLKWtxNy4noMZSPjGCzFTRtkPR+ZBLqiyOdBzM6jais9aLUTO6qGy4MMdXhfAW9wMHDpgvvPBCXTqdzn+5WihouBedvVAunDuBX/zhEW3X3nZRKoOkYehSKeW6rtR94r3aJ+qPvRnpevr0582+4UBQnjazXdO0/wHm+lktc7j1zmc5dckMPvjOFSgJjut6XFJaWAfXIq1OAjXzMcIjUuM/JLS1tfH//t//46677sIwDAKBAEopmpqauOKKK1i8eDFlZWVEIhGqqqoIBoPDct9kMsnTTz/NXXfdxapVq9izZ08u7WrWL/zxxx9nx44dfOxjHyMc7g0uMU2T2bNnEw6HSSQSPP/88ziOcwQ1mCQ9XU+x+7k/EX9qBnp8MkIo0kkwAmWUjzUwQg7dXZ3IDKjXl6PKwwg00q9noGc77aGbkU4r0rKQuFTWn0MwOovXX39D2759e8GgBQKm+6F3n6O+/KnLjWB1OR3dSfHDX96Hm5ezrboyxryZ41g4b6ISQvT85d4X9G27Wsp9Ir4Q+AJwvR9zPBCMvKQCLnBE+78jIuDhKJKV3TIqP6Osn1d3vb+/+G9feQCA40q++993Mnl8HStOmYVEoaT0/F+lg9W9BddJEm5YjhE6/gpZp9NpfvKTn3DjjTcSjxeayV555RWeeeYZqqqqckW/ly5dyiWXXML8+fOJxWKHxZ0zmQwvvvgiv/zlL3nggQdobW3tV4u8c+dOvve971FeXs4HPvCBAn/x8vLy3P23bdtGW1sbY8aMOaxxkG43bW/8mfgLEwlnTiFWXwmGpOdAB1Y6jmNnsFKSVHeSaEM5ZihCKBxE6BqpgxnSO9P0HLiLzuRLpDMhXKeL6fbrVE/8d554+gWa9+/P3UsIoc5ePosv/NNlRn19BRkhqKstxxACFzANXa44dRYffs852mknT6eiukwPGHr53Fnj7M9+9fdO+8Ee0yfGa4G9wPd8pVgpTAcuApqAoJ9E4C9+QoHDMp4fEQUOp8N/LyHnQvge8gn434Bcsdyde9r41L/9jhv+412ct2Iejiu8wAfNQAiQ6RbSB14gVLvouOPE69ev57bbbssRrxC91k6pFJ2dnXR2dubOf+655/jtb3/L9OnTWbFiBZdffjmzZs3CNM0cMWVrBhWOtSCdTvP888/z29/+lgcffJD9eZMa386q+fd3lco5Tuzfv5+bbrqJlStXMmHChNz548aNo66ujpaWFtra2njxxRdpbGw8jEVFkU5tJb6jA7NnKZGaGCJsIQSUNUToOWDT1dyBpgkC0SCxUZUYhg6uAk0hjAwdspMdHSF2t3ZTHqljSkUVqDibX13FI488Rqq3goIKBAz30nMXavX1ldgZl3372rnr/hfJ+DW8Zk4bLb72+beJU5bPwkmkSWdshCaMKy5coq/fsCv+k98+oNJpO+BH133ST117f4kHWwD8CDg1T0sugYt97v3E4RDxiBKhi+AAv/CJ91NAWfaHTVv38al//z0//c51nH36HITAjyM2AIWb2EXKThCqW4JZNn6kKNsHhFKKF198kbY2z8tMNw3mjBpLYzCKpRRvdLXSmkhgKwflOkhXYtt2rpTos88+yy9/+UsWLFjA0qVLWbhwIZFIBF3X+xBwR0cHDzzwAH/9618LgvEBDE2jKhJjfKSC2dFqTAQvdDTzWncrLgqkyt0zn4Dr6+s5/fTT2bx5M+l0mr/85S9ccMEFhyUVKOXgiiRKy4DrenHDvi+1k7FJdcTRNIGZCRGMhjHKI1jpDJnOFPGeLrZMfZ7n21cT08cwt6aOudVthKOzeOjeLWzeuD53GwBNCCrLo0ITXqKAX/zhUV5YuzXXl7GNNaKhtgIsl2TSQilFTzxNwDTEpz50kbFhy962+x5b2+Dra+r8ubrONy9pPlE2Ap8FTsdjVjrkFtaT/aCJK30Orvlzf0g4IgI+0tKIQ0AiEAjcUFlZWdbR0fER27Zz2pPtu1r4zFdv4uuffzuXnHsSgYhOMm17b0UEkJmDpA6sBs3AjI492v08YqRSKXbu3Eki4aXTPWXURD4/Yzm1UkOi2KcstlkJ2uwkO3raWX+wmd09HSTSqVzy95aWFh544AEefvhhDMPIJZDLh+M4uU+hqCxoipaxsmkK59ZPZjQBwrpBQGhc0ZDgJ7vX8nDrNhzLpqenh71797J48eLc1aFQiLPPPpubb76Zrq4u7r33XjZu3MiCBQuGPAbZfkRis6mZMYN9G16ma3cVMVVBIKbjWA5WMoN0JcoFmUwTb+vCTVsoAVYmQyAYYmrgNAJ2lPGcwpj9FcTKn2LrzmbuvvclOg424xNIMx4VN6ZSlmg90MVDT77Kb259wvc18NB8oJNd+w4yYaxXmM9xvdpdGcumuioW/s6X3+W2dXann39pa8TnqucA/+Wbmzb6UU5v9/fJIGD8mFrGNtWwduMe1d2dEMAsPzIvS7x7hzpa+le/+tXDnnT/+Z//eVQms6FrhMMBbNtl3rx51tixY9d1d3fPTSaTU/LdXw+0d/P40+uRCmbPHENVZQzXkbhSeQnQ3BRu+iCaGUMPlI3oVNKJRIK7776b1S+8gKHg3aNnckpZnZcnSykq0ZikR5hplrE4Wsfy6jEsqG6iIhCkI5Mi6XqLqfJdBbNpXbMpXLOfbArXLFfWEIyJVHDl2Jl8dMICzqsZSx1BdCFQCKSC2kCY8mCY1V3NxDNpdF1n4cKFLFq0KKdpFkLQ0NDAk08+yY4dO7Asi8rKSlasWDFkbXR2+yREgGCsnrR4kOR+SXJ3kFRnklRPHDfj9V/TdaI1ZYRiEdI9KZy0RbS2HM3UkTsEkwKLGBOdCtJkt72ZPz38OPc+8ArptI0fQ/g3oBOlJh9o7zb+ct9qfnvbk7Qd7MY0TaqqqlQqlRKGrqsVy2aIWTPG4toOrit7E+2hqK+rNCvLo8ZdD74k/Oyquh+SGPG10lcBnwfqAaZNbuTG73yQd77lVB54bC0HDvZklVnP+Aow86tf/WrrkAZspIrQ40fXcu4Z83j46dd4+eWXMU2zLRaLPabr+pmu6xa4+LQe7OYbP/oLL2/Yyb98+AIWz5sIgO24CE1H2gdJHXgOJRdgxiZ69uMRCNd1PZur61IbiDIjVg0KXPzSKr5ziQCCaIzWQ4wti7AkUsMF1RNYdXAvqzr3sjl+kLTjEbOhaYR1A6EEEkXKdXDzai83hmNc1jCVi0ZNZnS4HAE4SuIg/R2vHxIoJDV6gIi/FbFtm+7ubmzbLuDwlZWVXH311Tz33HNkMhnuvPNOPvaxjzF27MASULYgGHmK0WBkBvXzLyd94G6691cie+rQY4pITRkhy8G1JeUNVQRjYQLRAAe27Ec30ugBDZTyROu0wogInnptF3/4y3o6O3KSadAPUih3XGU8t2ZLrthedXU1559/PsFgUNx88610dSfYu++gRCF00xDKsnOJB6VSOI4tzlg2Q7z14qXc+tdns+0E/Txb2WimKEA0HORTH7yQ8y5awoP3vcC+1s5ijqIO1atrRG4OpQLLznGJ8bZtf7Orq+uzxcSbRSqV4U93Pcc/f/l3rF6zjWgsiGFoXvI0oaOsLjIHXiRzcC2u3YWSR8dX90jS8DiOQzzhKa9qAiEaQzEcJfNKn3vRri4KRwNXeANVrgdYWtXI56aczNdmnM7ssloAQmaAi5um8flpp3D9tFP43NRTWFk/GcN3C60JhvnExEV8dvJS5lTUEdQ0HCWx8+6Z/z50BUF6C2uXijjSNI0zzzyT6mpP57hjxw5uvfXWQcclmxc6f78sMInGFiKExAxD9YRR1E1qonrsKMpqKxFKw+5xcG0X13bQ0Mkk46TicYSugdQIhwK0dnZx9/3bad5dsK0M+2bKCaD0LPGOGjWKG264gRtuuIH29nYsK013PK0efOpVd9uuVhUImmiaTm/4K1iOpKIswjeufzvnrpiXf48oMCZLvJouePfbTuNdV59BsiPOrX9+hngil37LBnb4++YDhzJvRiQHFgIMU0cIsczfS5wjpeyjDdE0oaRUuVVs565WNry+h9OWzcAwdE87jfBDEeNkOtbhJPdilk0kUD4FoQ+vv+6RaOXT6XSuQHcsECSsmx4hFWuQEQSFhqlpOK4iIR2klMT0AFE9gOGLq4urR/PPExZSY4aRKEyhsbS6iaST5qm23Who7E8n+Mv+zXQ5GRqDMeZX1BPQNdy80q8eSxAEdJ2oL70Ypkl5eXkumV0+JkyYwBlnnMFtt91GKpXi17/+NVdddRWTJg2cWbRg7JQkGX+Nnvj9njurCKAbOmZAx7VcLMtGiwiS3d1kulMIF4xRLt3mRqYuewsiGSPd3EaP6uS2dQ+xZvMb/nzxip4bhiEcxxHZUMhYLMbEiRP58Ic/zDve8Q7uu+8+Vq9enZtmT6/eJO5+4EXxzx++iGDYJNGdQtN1sjsDx5VMmDCK//iXq9jf2sm69Tv7zOerLz2FL37mrVSOquK5R17h4adexXFyi2Czn8qn5VCZ6ogk4HTG1ppbO65IZax/A04qdU5NdYzTT54p1ry6nT3725FSeXNd4Eci5E184REx0sFJ7sdJH8BJ7CNUNQ892nSsHxd8EdryTRemv8orkTOO5z2LosvOsDXRwabkQdqtNB3pJBnpYkmXTd1tmIbJstqx1BkRbOniCoUmYEK4nMWVjTx/cB8HMgl+u2sdSils5TI2XMEXp53K4qoG0spBqt54WyHAlpK09PoXCgaprq4u6QcQDAa57rrruP/+++nq6mLXrl3ccsstfPnLX4YSmT5LZf507IPsefknJPa3oaWmgArR3dZOMq4Q0sBsiMDUVlrXrWVUZjEN8+bSVreGjuZt9Mxpp9KMknjsBV58fR9/Wv03MpbH6UaPHq3e9ra3icbGRpLJJOFwmOrqasaOHcucOXOIRqPcdNNNfPOb36SlpSXXn86upHj4yde4/PLljJtYj2t7Oob8Z0jE05xy8jS+fv3b+Ojnf8X+5g4CpkF9XQUXnT2fz3z0YsZPbsTpSvLsi1vo6MqFMiq/hli2lMQhmZJGIgFrB9q7r37s2Q3fSKWticU/VlVEmT61SV1y9kniqkuW8uwLW7j/8bU8/NSrTJ5Yz/QpTSCEv7rlTwwBwkCgUNLG7tmGsuKEGk7BiIw+tB4eBQSDQcr9IHLHlb5dXPi5kT2YQictbW7Zu4G79m/hoJ3CKVFDKBqKMCoYxVGSlHSQvh05JEwiuoGhaVjSJeH0hmPuSHZywEqgqWIpQiAQpKVD3N9bZ7Xe/eHMM8/kmmuu4cYbbySZTHLTTTdx3nnnsWTJEvCVbP3W+FUKR3WQPNBK+oXTEZl6TBnFcW0SiSSGESFcGcUdlaRFe47guEpS8x02dT7ITnMtG9fdwMoZb6f5wLP84cmX2bZ3X7ZpNxqNqpqaGr2hoUFIKXP1hru6urjrrrt44IEHeOqpp2hvb0eACoUCmIYuuuMpnly9id/934N87IMXUltfiUrbpBIZLMfxY6Fd7IzFyjPm8eVPXs6jT69nbFMN554xh5MXTKG2ugzSFrt3t3LvIy8TT+Rs0Wng1kMxHeVjJBLwFbbjftOOpyYUHhYsmjeB9779DM45fa4Y21RNNBJkwvhRnHvmXFa99AbhsMmcaWNIJTI4UpYODBICIYIgbZxUM+m2l4k0xNACFUPt31GpSxwIBIh5AeRY0kEX2eCmXkcMTdNwJexJddOSjmMIjUojSIUZoNwI4qDYkezCcmz2WQkCuo6uCSQQ0XVQ0GVnsFwXU9MZEypDB+LSZnK0igmRClxkkdTuSTOm0Ahq3i4mnU7T2tqKZVkEAn0DBoLBIB//+Me54447aGlpYdOmTXznO9/hv//7v/0C5L3DV8x9hQBN6OhmAJKjSO42iMxyMBwDt9nASVhkWhMYdSbKkLyiPcCO3S10du4ngMnc0ERqwhP57eoWHnlpX75KSN+5c6e68cYbhWmaaJpGMBjMFV/r7u7O936TDfWV6fe9bYW5fXer8ad7Vouu7iT/9b/3sWNPG+eeMZcpkxuZPK4eXddyUkQqZREImLzv7Su44sIlRKNBKipi2LaDC+iOw533v8CL67blP/IffSeOw1KgjDQCnu/7k04o/uGScxbwn194OyfNGY+m69gZi0QyQyBgMLqxhre9pQ4lFalkmkzGGWQnofzEeAonuRuraxPBmkWIoSXLk/4+ZViJOBKJUOlzhLiTocO2qDXDBW/VQRLQdC4fPZOpZbU4rsu4cBljwmU0hWKkpMP3t73Ioy3bePTAdhbGapgdrkIAbXaKp9v28MiB7ThKMrOygX+auJCxgQhx26IiEGJUIEpGujkddC7aHQjqBlHD2/MmEgl27NhBPB7PKayKMXXqVN75znfywx/+EIAHHniA//3Fz7n++usJhgZK0i8w9Foi9bUkyzfhmtN4ufxpYlqMsbvnUGE2UT6+luae9Qg9TCLShexJMS44hYmRMSwe9Q6eeHQ/f35qO06hMKpSqRR79w5oYlW6rtE4qpJPfvBC+ZmPXqTuefhl8eTzm9jX3EFnV5Lf3/E0dz24hjkzxvDlT13JaUunYVm+wlUILNshHArQ1FiN60ri3QmUgrKacta9spWb/vQU3T055dVuPzQxyWFiJBFwJfAhX71fgKULpvCNL76d+YumkulJke5Jofw6QqmUTTptY5reo9iOzCU/HAxCM1DSItP9OlqgmkD5lKHE8x625j4ej3PgwAGam5tpa2sjnU7jui4TJ06kpqYGQ9fRDJ39qR5e6WjmvPpJCNm7NDuuiyY0Tq4ewym1Y9GlJCg0hBLoQmNfpodyM4QuNF5r28v3HJdTyhsI6jpbE52sat9Du5UCIVCaxkHXZqoRYly0CkNouK6LgYarFI5ycbPiMuBIieVr713XZd++faRS/RcxCAQCfOITn+Dpp5/mxRdfJJFI8POf/5TqMp33XPdhKqrq+x9gPUb1pItIzLyJ7pRinXgAhMsZVQYNC2ahT9VpfWgzugwyUU1kqjuR6nCjsg5IddeLq/jfPz0gOjvaha/d3eUTSKXvKZUfSqWCAcM1DV2PRsPMnNokF86dIE5ZPE274Mz5YT0a0lacNpuPvGclP/rlfRzsiGPbLm0He3j82Y1ceu5Ozlg2AyHcAqklmbJIpS2k9JIQVFVG6Wjt5Ke/fZBXN+bKnio/D/XrR0I0I4mAJwAXFB+cNG4UX//825i/cArx9m7Pvivyq9Z551mW4+lLhTiEmHqBECbK6saNb4ZYA+g5j82cM0TW8cFxHNra2kRnZ2fOjJIVxQzDIBQKUVZWRjAYxDTNXKbGA60trHr2KR578hleeull9u/fj2VZuXZjsRhjx46lo6MDXWgkpc3WeAeqXuV0WAKBLjwnFwOJLjUsx2Wf1c32RBevJw7yas8B1nS2+Fpkxbr2fbze0eL5PrtOXtZWxdbOVv4r3klTqJwplTU0hWLMCFUyLVZJhREmLAwU4AqXoPAEjnSePDCU+r2TJ0/mW9/6Fh/96EfZtm0b+/a38m9f+SZPPbOKD330k5y6/AwikVLcWKOy7jxCF7RB1Z1U7e1if5fF6+Oewq1MU7eukszBfZhRC6PZwtDDzpZki/Xgi7v0Z199w+iKJ7KLbNwPvH/e91O+Iu8masqEBvWOtyxz62rKxdiman3enPFafUO1KAsGsTK23tXcSaw8zKc/chG11TF+8X+PsnHrPizLpqoiQn2tH7JeNAzZ+acJRSgcwnZcbr7zae64ZzV2b4TTOp+Aj1000jBC90tbFEQfVFXG+MyHL2TFWfNI9SRwHBetH+rMKX0GQLHGU9MEumaiK9A1C8dOkskEOdjewmuvvcb69etpb2+nvb2dZDJJIpFg+/btBQEF+DG7hmEQi8Wora2loqKCcePGMWPGDLq6Orj7r39l4+bX6ezqIpPpm8erpaWFrVu3omkaUkkMTcc0DUyhoYRCotCEF1yQchx2xDt5PX6QLYkONsfb2Z7oottJk3J7tcdkgxayNm8BVZVVTJgwgT179nDgwAE6XIeOTJKNPa0ENYNyM8CUWA0zolUsrGhgTnktMSOIpmtkdIWr9bZbX19fEFJY+p0IVqxYwec//3m+/OUv097eTlc8w5/uvI9VL77KxRdfwqWXXsqkSZMIh8OYpomUklAoRCgURS+/lMrpO5ncvYGW+H62BjfivuEiDswAI0MyHccWYfX6gZ7UX55cm97X2lEtXTff3BgFlvn/z8+f7xPH1YnPf+IS3vGuswNhXQhTgZRK2K5LIpnCtj2uGu9JE4sG+OC7z+bkBVN57KnXWL9lD5PG13HqydNxXFkw5r1zDQxDJxgNsGrVZn71h8eV73WFr7j6ObCfI8RIIeBaPxt+Lho/GDT48DVn8+5rzkHYkkzKPiI7q5Qqb2UUaLrwFBASOuMW215/g1WvvcJTz2/m9U0bOHCghWQylfMbzlaNHwqy9sVQKITruiQSiSE5eWTbV0h2p3toySQoN4LY0qXVTrEn2cPzB/eyunMf+9JxHOliSZmLFMJfTAKBAKNHj2bp0qU5L6fKykqWL1/OKaecwp133snvfvc7duzYQSqdxnUcUtIi5Vi0pBO8eHAvf23ewil145lZWU9E11nduZ+9Ca8aWCwWY/LkyXmpV/vX6wUCAd773vcSDAb5+te/zrZt25BSsWvXbn71q19x++23U1FRQTQaxTS9msLlZWWUV1QQCEZxrXY6O2F/0kQplz1umk3hfXRZ2+mKd9NtB8Te1u5od08y7DMCdE1zXc9vIODnHr84Kzprmsb5Z83j+n+6lGULpggciZV2yCiF6/ZKFVlJTilJPJEhYBosmDOeuTPGkExl0HSvALltl1YeC6GIREN0tCf4/R1Pq1c37c4foCeAO4+U+/Im1gceDBcDvwNqsgcWzBnPb3/yCebNnUD3wXgBAR4OstxX0zR0TXCwK86efQdZ/fJWHnnmNV5au4O2g3Fs2z6qeY01TXgV6kVv3SwJuI6L70sLvi14ee1YZlfW0uO4rO1oZkfyIEnLxs4zLWW9mKLRKJMnT2bZsmXMmDGDBQsW5NLaKKXQdT0n6tu2TUtLCy+88AIPPfQQL730Elu3bqWrq6vAvqkLDVPXEQgs6eD64zJ16lRuvPFGVq5c6Y+t629HBlYPPL/qGb7/na/w4CNP0JP0OFx/80/4+cVEvipNgSY0NE3gKrfX9u+Po2HozJ81gfFjqzL3PbIukEpbfWbMxecu4P/9+7uZOWc8qa44Vsar7DAUvYk31t79UZ67bramc/FcC4UCGKbOr29+VP7Hd2+npa07OzgtwHXAfQPN1aFiJHDgcp+Ac7mGQkGTi845iUmTGsikrJKDdKjIXq9psGrNFn70y/tYteYNOjoSni1V5g+aQNNEr7guQPM9GjRNwzR0ggED0zBQ0guecKXEtl0s28Zx3AJvJiEEhq5RXh5hzvSxXHruQqZPacSxXSzHpbMrwSNPv8YDj6+jq9tTSNrS5ckDO3m6bRdKUeDDLIQgFArR0NDA1KlTWbRoEcuXL2fOnDnU19cXxAOXgmmajBkzhtGjR3PJJZfQ1tbGa6+9xn333cdzzz3H1q1b6ezsRClFRrqovAWtrraWD3/4wyxfvjxvtIaGpctO5de/+h6vPP1nHnr8FZ5/ZRebtuyjpa3T95rzRM9iP7BscV+pQCqnwNXB45QawYDB5Rct5sv/fAWRcCBYUfYXbr3zWVLp3i3LyjPm8t0vv4uZM8cSP9iD48iCmOvB4OlBBnbDdV1JMGAQCgb420Mv8l8/v1e0tHXnK/T/5u/JhwVHxIEj4SNP56KUGpXO2H8AVmaPTZ4wip/d8AFWnrWAeJe39z1SAtY04WWSf+RlvnrDHby+fV+xlyJCCMKhAOPH1DFz+nga6qswdUl5JERDfQWV5VEi4QDBkEnIMDBMw4v8kRIpFZblsq+lg+fXvM6qNW+wc3cbmoDFC6Zw3ulzWLpoCjOmjqGqLILys48IBIGwSTye4X9+dR833Pg3OrtKWxV0XaeqqorzzjuPlStXsnjxYiZMmEA4HEbTtJxzxECOEv28A/CVdh0dHWzatIm1a9fS0dHB+vXree2118hkMowdO5YPfOADXHXVVYPuf/u9l5vAaV+Fm9hOMq3YtusAa9fvYOuOVnoSKWzHRUnlR1W5SOkp7loOdLN56z7iyQxCaDiOi2no1NeUM3N6E2csm8nF5y6kqiJGKGjyxLMbeNcn/pt9zZ6D09JF0/jRf76HpUumEO9J+8R7xNM3b+6A43jjXllTxjPPbeDjX/i1WrdhV/5dNviZO14ayvsYCo6IA//3t993RA9t6Bp7mzuML33rtoJ0hzOnjGHqlNEgFa4zDNzX3/d2x9P8/van2bxtX8Fvuq5RP6qSlafP5ZJzFzB/9nhqq8rRdW911nTN/57VfHuRKLllNSt++Safd1y6lAMdPezY2YojFbOmjaGuqgyheS/Zsp2CIAXbcSiviHHFhSfzl/te4IVXeg39WU47ZcoUVqxYwYoVK1iwYAGRSKRAG5//8m3bJuusUIxSrovZv03TZNSoUdTW1nLqqaeilCKdTtPc3JzbR9fW1h5RKiWhR9HK55FOdWDqB5g9fTRzZozFdVwcV3lFzFSuY2gCdu5p55XXdlJZEWbqpEYA0mkL0zQpLwsTiwUJBwK4ruvtSQ2Np1Zvpv2gl56qqb6KT7x3JUuXTiedTGPbricGDyOUgnA4gGEYPP7Eq3zhm7cUE+9Bvy722uG87xERcFbcO1zoukY6bVfWVZdXHjjoKUhMw2DKxHqqqsqwfTPLEe+1RTZOVqFpgpqqGJFwgFg0TG11GactncZF5yxg3szxhIIBXNdB5vZWwieKXtlO5f1bfCOhgW7oNNVVMrq+ChRIJLZ0UY5/Zd4KK5VCM74Cs/AAACCbSURBVHQI6AhN4LqFovfYsWP53//9X6ZPn051dXVJz6eCHggxYKK7oYxlPjc3TTNXPnS4oIdqCZTPINXaicxk0PQAmgaGoXlmdn8IdEMjEArw8msv8rn//ANzZ4zjJ996H7PmTiDdnfRjcz3iye5HgwGDDet38ts/PkHGsgkFTd5+2TJ16XmLhLJdMmlr2IkXwNB1UqmM/J/f3K1+dtPD2r79Hfk3cXwdzx8P12Wy3/seycW3/vW5I7q5EIKMZYfjyXRuxgUCOjWVUYKGjnKHR5mklCdWhkMBPvPhi+i55mxqq8uorAhTURalqiJKIGB4+1jLxlWSw9tZKC9TRHZvJrPhd6Xbk0phGjqxmnI62rr5/R+fZMu2XsuCUoqysjKWL18+LAkEhxNHtrAKzNhYrO4tOIn9XrSY7NuWVIpQQFJfV0kwaPDoM69x428e5Bv/fg3lkSA9XXGEJvIKYgiEpnPfo6+wa7cXlTdpQj3Xvv0MUVlbQU9HD0odip8AOUlroGcVAoIBw73rwRfT/++n94R74snikx8AfgJ0DPd7OKJZsXrN1iO5PIuCqe1KSSpt40qFaQy2j/v/7Z15kBxXnec/LzMr6+pT3WpJbUmty7ol22BjY2NbYGzGRmNjBtg1e8DiJTbYZSGW8Iw3lhh7DiZYNhaYZRjYmR3AHrDHJwZsgw8sLFuSZVmSLaklWWfranW31PdVVXm9/SNfVmdV361udbVU34iM7qrKyqzMfN93/I7vT4w5hFRK0HXBjdctx9B10GQ2aclxPRU5I7PqmBd8UaME/EsJpmGQLIlxsP4k3/3R8zz562309g8IGhqGkaN6EQRPuK6b/T9wb+X/H2z5r/M/C//W4D3btrEsC8uysG0b27ZxHAfLsnAch0wmQyqVora2luuuuy4oAjYuCD2JkajFSTUjpZfVMwvD83wf6+oVC7h67WLOnG3nVy+9w223rOXeu2/AiOjYtpsT1COl5OjJZmzHxTQN7rhlPauuvALPsvw4gnGMvlKG5FJHgCYEnd192jMvvh3t6e0PN1qpBO7+HGi48FY1GIXQrdvhFKpMxqH5fBf96QyVZclRTJzjHyZt18V1JZ4MGn1ANHHRKqNIZVRLJqMcOHSaP/vrx3nx9+8O2i+RSJBMJnn22WexbZt0Ok0mk8kSKyBZEDEW/B+OIAvcYsHrwKftum52C4gfJmtYNyt/X8dx6Ovro66uju985zts3Lhx3PdAaAaR5HzsrkN4Tn/gws29T1JiOR6V1WWsuXI+L216j8bmDh598nWuu245V8yuoLuzN7S/H7E2e5bfoSyoreIzGz9ELBahtzc97hmDv7s2YjsTAoSmc+xUo9j69qEwn3qBp4FvAcfHcr6JoBAI3Ad0By+klJxr7aa/N0N1RemkStcCOLaXVfXMeokudj0jKYkmovSmbX7+1Ju8snlw7Wg/zjvFE088weOPP54lWRB+Gfwf3LPg8/EEnFwojh49Sn19PbfffvuEBOa1SAV6bDZe78lhRzrXdSlJxli74grKSxO0dfSwZcdh3nijns9/7hYM08C2nGzWlpQut928lp17jrHhw2u4au0iLMuZsOFqLBF+Qv3OdCa7vHWBF4CHVcLClKEQCNyjeqi1wRvpjO0HDUyBsWEsD+RiIGJGONvazls7j+SoIAYIrMnNzc1T9huCIBBN07JBLmR9qyLHym0YBslkEiFENrQ0Go2STCYnXEJFGFE0swo4M3Q0lxC4tp/XvXrlfBbUVtHW0UNbRy9P/nobG25Zy9xZZTih+5exHK67eik//NZ/YHZ1GZoQpNPjjuLL2sFH3VEZO5OJGNGoEdRlcICT41GXnCgKgcCWik7JPsHW9m66unpBm+e7bCYhkKOw4BPDdb1hQ/FKS0uZM2dOdqQNLMNh0uVvga5UEMhhGAaRSGTQZppm9m94MwwjS+TgPJFIhHg8TjKZzGpXP/XUU/T395NIJKirqxtSWmdMd0FoaEYMIXQ1aOXfJZBIPNdjXm01q66s5b39JwB4a+cRdu46wt1/9CE/hjy7nodY1GT16oU4GZvelKXONUVPUviSQ7bjhmV6TVW1sHwqDFdhFAqBT6i/UYATp8/z1o7DXLV2MRHTIJOyCmHQnERIXMefGi6cX8223UcG7bFgwQIeeughFi1alCVjMCKGR8zw/9lQUVUQbSSSD/VZcIyh0NzczMsvv8z+/ftpb/eDI6qqqkZVnBwZGkKP+eFx3tAdmZQS23UpLY2xaMFsomaEjGVzvqOHN7Yd5GO3XYtuaLgZNxu/bNsO3d1uVs1zAhj31/Rcn7xQBQmmnF+FQOA0cCxM4M7ufp558W0+8fFrWLKgBisz5QLyFxH+uGJnLOZUJLj1ptW8/MY+OjpzayG1tLRw8OBBli9fzurVq9F1PceiPJzlObxODlus8/cf6lj51mghBC0tLezYsYNNmzZRX19Pa2srruui6zobNmy4QAKDZsQRQscbgTWe7VKSiLLqyloqSuO0tNkg4Q/bD/KfzrSweH41tpXbAXjehMk7LvhTaI+qyhLisaiyXQGQmmi9o/GgEAgsgbb8OVT94Ube29PAkkVzMAwtx10ws+Eba2zLIZ6MseHmtax5dgtbdhzK2autrY3vfe97PProo6xYsSIbwBEmZ77RKng/nJAQFnEP/x/O5x2KwIG1ure3l66uLvr7B4J2Kisruf/++/na175GdXX1Bd0NoScQmolw+odksBAC23aIixgf/OCVLFlUQ0ubb/M8cryJN7cdYPG/3pAzjWaKrRxDuQdt18tqSysBgXploJ1SFAKBUVq4HUo1AYD2jl627DjEx2+7mmgkMqShZ6ZCqACBTMpi+aI5fO7u69l/+AwdnbnPu6enh56eHk6cODHdPxmU1tX69ev5+te/zqc//ekJx0Pn3AsjhogkwOocNi3RjzN3WDy/httvWc+eA6foT1n09WV4592jfOaeDxMxNCzr4ljfc36/SqbYU3+Szp7s82sHNqnZ5ZSiUITdT6osjWzqiOO4vPrmPt5//zRRQ7/gau+FBr9CoIUmBJ/54w9z9x0fJGpOX38aGKwMw8humqZl46PvuOMOvv/978unn37a+/znPy8ng7wAmhZBj5QhR5pdCXAsm3giyrVXL6Fa+Xk9Kdl/pJGuzl70izg7C1voNU1g6IKt7xwmk87OfPqVaX3KUSgjcCfwE+AOYGXw5pHjTfz6pZ2sXlOHEdGxMs5FCbS4WJBAd2+K2ZUlfOvBf8W6lQt55KnNHDrW5BcvD+3oISeoWzg6kskk99xzD8uWLcOyLIQQ9Pb2cvz4cVasWMGnPvUp1q9fT2lpKZqmeUEsyqSI+wkDzazyLdHDRj0JX+sMydK6OVwxp4JTjX4Vx+Mnz3GutZt5NZWDJLSHuN2T3nqE0OjpS3Pw8OmwMsepcGzDVKJQCIwqK/GmKoIsUD69TVv3c/+/+Rh186sGGSoKE+HUz9H3lJ6kL2UxqzLJV774ce7YsJ5NW+rZva+Bnr4MQkCq3+bAkUZOnz0fXmflWJ/HEps81Oe2bbNy5Uq++c1vsnr16mzFycAPHXYvqZ9sTKpxRmgYiRq0SBme1THkpFAI/ELunkdlVRnz5gwoYfanLfpSGRBytNDaySev5ud5b9vbwNvvHgvW4Ckl1N554WcYHYVE4FbgR8D1QLbIzJGGZvbsP8GSxXPRNGs8UUZjdsZPLsY7TPr7+5FCGksXzWHZ4hocV+LYDgKB43nsP9TIt//u17y6eU+WxGVlZdx2220sWbIEy/JXH2EXUuDLDV7nu6Icx0HXdW644YZs6ZOwT3eEzKdJXc9oRil6dBZepiNExPy75MepR6I68fhAs/U839I+9rT8SfzdQkN6kid/s52unqyRrwf4A5C5sKOPDYVEYFRAx/thAre19/Avz23jpptWUZGI069GpUsDfrUIP5F4wLWjaQINME2fTFFNcMuHV2K7NoeOneXEKb/6ZFlZGV/4whe4++67sSxrSOuoGFYEcGDUDo2w0wM9gjBKQIxcDNzzJLFIhFmVpdnaVxnLZu+B03zkhlWjTaEnFUIIoqbOkYZmfv/mvnAaaAdw5MKOPnYUmmWoDXgn7EwDePG13fzzLzaBrhGNGmNVLBAFETM54s9DzUZDIjJKXM1xPRzH9RtpxsZzXVZfuYC5c7KyYTmzEdM0vWg06kWjURmNRt1gM03TM03TUX+l2nIisqbbPScIgiBGShoQOJZFSSzCVavrmFXh6x9m0jY73jtGejLyxv2HMeoUT3qSqGngeZJ/fvoNzjZlg61c1X7bRz3TJKHQCGwBv1E3IYv+fovv/ePveOmV3URLExiGftF62qmD0nuS3siWFynRdQ09FuXU6fOcaxloG9FoNEi2l6HNVRleGRWTayt3RvA6vO9oCI5lqS04VreytIaFRYY63tifknRz1DXzIYTAslyIGKxduYDK8pLsCY6fbKG3rRd9bJ6K4U7iqnWrNdKXPSkxTYNozOTVN+p59Kk3wzpZPcC/XEilhfGi0AiMUqr/J1VyMYumlk7+4rvP8O7Ow5SUxIkY2gXV4516jLtWc+631YgSj0cprSih4VQLP/zZS5xsHCgfu3z5cpYuXRq81ENbREW1RdQyKar+hi3H4eFKDrNl1JSwXf3tUsbGY+q1HOX7MhDdHDTVyIPQ9FHXsZ4nwYWa6jLm1WRDBmg4eZ4Tp85hmiNPwUc4f3Ct7pB5jaFnomsaiZI4J0608N0fv0DzuaytylMZSH+Y8EOfAAqRwCgr3qCSE+/uO8EDf/kY77x3lGQyjmlGJkYRMdWXLSbsYfHVQySGoVNaFkfXNfbuOc7D336Sp194Oys9W1VVxT333MPChQvJO5EIEVkLEToyQuMUQ2yo7ySAEqXZHVfBNvNVrG9wI/M7BjHETRCqkfeqkWogMkdoCLNyDM9FIl2H0mSMhQuqs7EBnd39HDx2NidFdJTrHAqmUkYd0i4UDBalpXF6e1P87U9+x1u7cprofuDbygp90VCoBB72Rr/+1gEe/Nbj7N57nERJjJhp+CqG42Cyn/0ypcF2IHSENvYsHV8j2dd4Ki2JUVKW4PTpVn78s5f5yoM/4fFnt/pTSIU1a9Zw5513TuE1IBSBS0JbUhF3tiLzWI+jhwh8GNiR6ycVaJEK34g1yoOUEmKxKHOqy4iqEddxHLa9c1ipmUzouQbuMWOoA2TJW5ZEaBqPPfMmP39mC5kBt6YN/I1SnbyoKFQCL8gvsxLG61sP8md/9Rjbtr9PLBYhETeVm2Gs8jruBU1vx3YSb8wmUU/JqMZjUcpnleBJ2Pzmfh74y1/wF9/9Jdt2HcmKqgPMnl3Dl770Jerq6qb2GiYfuhrRB/mnhB5FaOaI/JPSl1yKxyLUVJVjqoJ2rifZvaeB041tJGLmpD7bAfIm0CMGz724g//9f1+kvSPHzvqyqrRw0VGoBF4cjovOh5SSTVv3842Hf87mbQcxEyZlpXE0Jfc6KuTFiJn1kHLkwBN/nQuxqEFFWZxoNMLJE+f4wT/+lv/yP37KMy/uoD0vS6myspKvf/1r3HfffcFRJqvBynEauCYCDViq6mDlCGkJLYJmJEbu9IQfYqtHdJbU1ZBMDhQaPNLQxPOv7AKkygoa40WPolumC42yshI0TeOZ57bw5995kqMNOeaZA2rqfFH8vvkoND8wagpjjta5SODtd4/yjYd/zsMP/Al3fvRqysoSpFIWtuPMACu1IGpGiEYNNF3Q2tbNb1/bwyNPbOadPcfCFdyzqK2t5cEHH+TLX75fBVm4KkBwzP1wOLhF5sW6yDxDkzFF64xgPZ4DTY+gRUpxUs1qiTMYmp/FJeOJqFi7cgFXzKnkbLPvwuntz/B3P32JxQtn85lPXk8sGiGdsUfVpBvO9SQBI6JRkoiRydg8/txWvv2DX3Ekl7zNwH9XNptpQSESOHCF5FDQT0YXg7KSdtef4L899HP2f/4M9917IwtqqzAMDct28VypRuTCYrOuaZimgSclJ8+cZ9feBp55YTuvbdlPa1vP4P11nXXr1vHQQw+xceNGP1oqmKIP2QCHDUITId4KSShndrqdwejoZvmo0hmuSp+cW1PBskVzeWfPgF5cU0snD/zVY3T1pLjv3puIx0zSGWuc9hFfTN4wdMxIhNNnWvmHX7wm/+mxP9DS2hX+cT1q3fvSdDawQiTwkFi+ZC6f+sS1/Oqlnbx/7GzOZ8dPneNbP/gVr22p53P33MhHb1xN7bxKotGg9IlUhi6fzNMxOvuKlwJd04lHI5xv7+ax57by2C+3cOhoE6m0lVPcDEXcuXPncu+99/LlL3+ZdevWDfBMaCOMvKNwMVvyadD3p21JJcGPxiKQlx32GoTneJgRnUV1s4nHTVKpAddtY1M7D/2vp7Fsh/943waSyRjptKOCXkLC+oP6OL8Wlq4LIoZO2nLY8vZ+/vb//ZaXXt+D6+YIVzcrnedHJ6PC4IWgEAmsKwtndh4lhOC6q5fyp9/4NB+5YQX/9ZuPcLKxFS9UxaC/P8OmrQfYtusIa1fM566PXcNNH1rO8qXzKCtJEItG8GQuiQNBsqkidBD/H0i96LqGlbbZvec4f//IKzz30k4y1tDPv6Kigrvuuov777+f66+/nmQyOd7TD/erpuZiJ+FeaUYcTdNHsR341St0Xad2TgUxM5JDYIBzrV389fefpbc3xWf/+MPMqijJEhMhBoT2VT8hVFYRSNo6+ti1r4FXN+/l+Vd2caqxLf+m7VXT5t9PN3kpUAKbSgwsu07SdY3qWaXEYhFuv3U9P/qf9/PDn77Cpq31pNMDUyQpJamUxc49x9m9r4GK8iSrltbygasXc8PVV7Jk0Rz/oceiJOIR/6FJXyN6wMg7CYQWAl2VopRS4ngenZ391B86zfOv7uKFV3Zz+mz7MF8VXHvttTzwwAN88pOfnETiFjrEwKxiJH0d4YeQmqbJnKqKrCU6BAmI8609/PX3n+OJX29n+dJ5rFg2j5VLa5k9q5TqWWXUzC7zC955Hum0Q1tHL2/tPmy/+PJu7Z29DXpvXzrH8q9QD/wp8Mp0360AhUjghHIjJYI3XNflTHM7me5+MCNsuHE1V6+p44VXd/PIE5vZubeBjG0P1C6S4LqStvZetnYcYfvuo/ws/gZXzKlg7pxKFtZWs35tHSuX1rJ4YTVVs8pIxkwMQ8+Wm5ThamU5Av0ib8Ujs28FkUSehN7eFGea26k/eIr3jzax471jHDzcSEtrF44ztBU8Go3y2c9+locffphly5ZN93OYJogRp9CBmonQBGXlflhtCB0qHHIhoKfSFvsOnqT+/dNomj8TipkRFs6vYunCOX6BbunS3Z3i9JlWms6167btaUN4MjqBX6riZHspIBQigcuB5eH1WHDjDTOCKyW25VCaTPDvPnMzH7txDa9tqedXr+5i+84jdKmiVwGklDiupKc3xaG+FIeON6Npgid/s43ysgS1c2dRN7+ahfOqqJ1XSU11OVXlpVRWJkkmTQxdy0ZHCeG7FTRdC+p44EkP1/VwXT8Joau7n8MNZ3lr11F27m2g8WwbGdvxDWpDpEIKIZg7dy4333wzd999N3feeSezZs0a+926hBDUf5Sj7CX9EgxEBmdR2cCPlcb4RiApJREpPS249bbtsP9wIwePNiKkX3I2VAYn3wbQCWwG/l7lqk+5RM54UYgEToaLfQeIRiPZ0dGTHo7rIKVGbW0l//5zt/DJ2z/AWzsP88rmfbx34CTHGppp7+zL8fMFa96AbOdauznX2s3eAydVD60RMQzi8QiJWISSRIxo1AyKivqicIAe0dAEaOggfMuoX+bEpT9t0dnVRyptj5q7XFlZyV133cVXv/pVrrnmGkzTnH5j8HRijNce1CyqKIsTj+XEhFSq9vMV4DHgI8A1wBqgRsWEC6TUPHfQVIpQskYfsFUZqTZfLHWNiaAQCWwG8rIBBBrxqK/RJN2Q4qLn4VoSQ9eorixh4x0f4LZb1nK+rZu3dh3l2effZve+Bto7+0ilM8OubT1PqiR5X2i9P5WmbYouLhqNUlFRwZo1a/jiF7/Ixo0bqaysnIQjXwIQ+qiGcKE6TOlK5tZUsGLZPI40ZCs66sA6tfx6BXhdEXohcIsiclSFglar/aUibZfSZjugwj3fUe8VNAqRwIMc/UJIYlEToWm4+QZKKbN5s4ahkYiZLF1Yw+IFNdx+81reqz/B9l1HeXvPGZpaOmht76C9o4t0+uIYEIUQJJNJampqWL9+PYsXL+bWW2/l2muvZe7cuej6qBk0lxHGVl1Oeh6uJ6koS7BofhURVaVQLZGvA/4t8MNQGmSHMkBFVQ+RUJ6O4GTByJsKZSXNCBQigQdlGuiGzuyqcnQBzggLJNv2skWsIobB3Nnl/NFHr+KWG1bT7synM13K0UP72LZ9J2/v2E1T8zn6+1P096dIZzJkMtaEUhR1Xc/Kz5imSUVFBfPmzaOkpITq6mrWrVvHTTfdxKpVqygpKSGRSIz7HJcQhrdQeRZ4Y+OOxCMS0SktiaNrGjZZAs8FqoYYyt1Qnm7vmE4yA1CIBB6Uh5eImyxbMgdtlISFwErseZCxbCzbwdB9A9iCRctYoNex7qoPcfudf8LZs420NJ+l8WwTZxqbOH++laazTTQ0HMey0pSVltLd00tnZ7cfs6z50rau6+C6HolEgoqKCiorK1m4cCHl5eVIKamsrGTVqlUsW7aMWCxGPB6nvLycWCw2hku/LDAkeSUSz7PwpDeGUVjgeRJdCGpmlxOJ6KQHqndItWYtrPC7KUIhEjiS/5DLy+IsqavBc8eWcRSuQGjZDpblkOhqJ1q5AIRGSWkFy1dUsHzFGgAcxyKTztDXl6Kjsx3PdTBNk4xl0dbWhmM7GEYE3TBwHBvLsqmoqMgSs6SkJGcEnmixr8sdUnpjqtkuhF9MzDANVl05n3jMpKc3ayAWedPjSxqFSOBBptt4PEZlecmIkivDQRMChMR1+odtGYZhYpSYJEtKqZlTM93XX8QoEAJcxwNTY2ldDfGY6YWmzFJNkS+LEbgQ0wn783WJDM2PUZ1wnyphsPWriMLDOGQlpc/kWCziGboWTn7xVLXLy+KBFyKBA8mVLDIZh/6UdYFzootfN6eI8UEgx17IV2VAep4XVBENS/eUFWjbnnQU4kV2KNG0LFIZm66u/mxSQBGXIJSk0HhnvkOUANZUKO5l4Z8rRAJ3KWd6ttSb67nYKgpqwigyv6AhkEjPnogLVstrx0KF414WD7wQCWwrEg9EWkgl/D1mPfd8yKFyX4soOEyKFr8G1BZH4OmDq6JhsotWK+PQ1dWXjUkeDkIYCC0wrIfYLgBtqhRiipgMSIRS8Rw37/IlVzSlqXZZ5GEWIoG9/HC2VCpNw6lWhDbaGlgMc0lCJWwXUbAQQRnCCX07u3gWAlcIDo1WYeFSQSH6gQmVAAHAcl3OnG1VYZTDe/olrlKcHIrlRQIXPsSYAjlGgQTOT5dK5MVGoRI4R9TOdT1ON7dhWza6EMM7hLI6KfktQFyEagxFXAiECrqZIH+zi2dllS4tBnJMLzrDPajnSc40ttPV3TdaBcoiZjQmVB80v9cO/MCXRUspVAKfUgW/s2g5301XTwptRAaPUCTvsuiPLwGM384YGDjCgRxV+cLxlyoKlcDtQFP4jdaObtrbeyfozpV4Mn25zKpmLsa5zJECNF1DiEF+4Eo1jb7kUagETgFnwq6knp4Up86cVz7h8RxKIKXAS7fjeZeFYXLmwht7JJaUEiFB1zT/AeeiXy3DLnkUOoGz0Vi24/L+0SYVbjcOBguB0ARephPPvmh1lycbQXz4JdsDSQme06+e7+gwdB08OHqshb7UIIOzc7HLfE4XCpXAGaAt3GCllDSf78SbSFKCBDwH5IxMUJGqMQbRaZfkOkBIBydzDqQ7agfteR7RqIErJZu27ae7J4erQUL/ZZG9UqhupEG+PE9KWjt6cGxX9TvjbcdSKf7LmRaRFcT2ukrwb0b9+LHC8yxcq2PMl6frGumMw5mzbVhWTsfsKiPojNG1uhAU6ggM0BjWLvI8yYlT5+nsTqFP4FdLJNItOFnfscLMLzdz6UEixljZNJDedV0X6cnBB/Iz2i7JmUo+CpnAx4E94TdSKV/nanxGLPUchXZpt/9LAL5c0kgPd4CTrisRQjC7qiS/OoNU9oLiFHqa0QL8gxBcJSXL41HTvn3DOrfKr2DvALGglJ2U0hVCcxDCf2hS+h2TpkkhQUpbaJGKfj1W2QgiqIOrhQT0RCiQOv+9oEXpea9FaN9wR6gN8d3hXjNMCs5IrXi0Fi5G2G+484i8QIj8z+UQ+zPCemQ8nysYQmjR0f34wq/KYFkWEV1nw02reeL57ZxtakdKbMf1zgK7LpcptJiIjGr2y1OfY6sDtwH3rFpWe+6R//Ofm69aUyfSltOE9G4FrpVSdoM4IDT9kKbp7Qhdk9KrQHqm0M1eKTVbev01ZumyY/GaGw6GQrkCoul5pNPziCny/ie0DyHS5wcT6EN0BGIEgmtDvGaYTkAbgYx66PfpoU2oDi//PT1vC1+7nncteuhah9s3v2MbqlPUQ5+rmp+enm57d3am4706MDyEsH22SoEQroZpCSGk52VMiacLdCcSiXr9GVts237Aajh15uTTL2z//dYdh7dIKf8wkyV1xsPJQh6BUb3o74HXDUOXsZjpqU7DU4WVS4UQlpSk1HtK1lBo6q+qPCY0hOaq0XeqcCG92US+O9bvjGckHus58gMnROj98GgdJq7M21/kj8RCj9WA9hGhGZ1CM9qCinJapKxfN2f1Cs2Qrt2ZlK5lCj2e1oyEVVKq84k752ecTGPb717f05WfCHOpo9AJjCKm5dfzzXkumREyTtwhjjHVuJBGc9k0uOHvgAvQKT0nI9B6pfR6/duiSSLCwV8iSYRuIAwNofuvlVSprk8ojnrGYyYQuIjLAJme40jPksL3dbuhTleG833z3r/8GJuHC1oDF1FEEdOLQnYjFVFEEaOgSOAiipjBKBK4iCJmMIoELqKIGYwigYsoYgajSOAiipjBKBK4iCJmMIoELqKIGYwigYsoYgajSOAiipjBKBK4iCJmMIoELqKIGYz/D+u3YL8+Ute1AAAAGXRFWHRTb2Z0d2FyZQBBZG9iZSBJbWFnZVJlYWR5ccllPAAAAABJRU5ErkJggg==;" parent="1" vertex="1">
          <mxGeometry x="90" y="870" width="130" height="130" as="geometry" />
        </mxCell>
        <mxCell id="K3zmsh9aibyrLAJEjabf-16" value="" style="rounded=1;whiteSpace=wrap;html=1;fillColor=none;dashed=1;strokeWidth=2;" parent="1" vertex="1">
          <mxGeometry x="350" y="1195" width="310" height="320" as="geometry" />
        </mxCell>
        <mxCell id="K3zmsh9aibyrLAJEjabf-17" value="1.GET&amp;nbsp;&amp;nbsp;&lt;span style=&quot;color: rgb(51 , 51 , 51) ; font-family: &amp;#34;open sans&amp;#34; , &amp;#34;clear sans&amp;#34; , &amp;#34;helvetica neue&amp;#34; , &amp;#34;helvetica&amp;#34; , &amp;#34;arial&amp;#34; , sans-serif ; text-align: left&quot;&gt;Connection: close&lt;/span&gt;" style="shape=flexArrow;endArrow=classic;html=1;strokeColor=#788AA3;fillColor=#B2C9AB;fontSize=16;fontColor=#000000;" parent="1" edge="1">
          <mxGeometry width="50" height="50" relative="1" as="geometry">
            <mxPoint x="350" y="1035" as="sourcePoint" />
            <mxPoint x="649" y="1105" as="targetPoint" />
          </mxGeometry>
        </mxCell>
        <mxCell id="K3zmsh9aibyrLAJEjabf-18" value="SYN" style="shape=flexArrow;endArrow=classic;html=1;strokeColor=#d79b00;fillColor=#ffe6cc;fontSize=16;fontColor=#000000;" parent="1" edge="1">
          <mxGeometry width="50" height="50" relative="1" as="geometry">
            <mxPoint x="360" y="785" as="sourcePoint" />
            <mxPoint x="659" y="865" as="targetPoint" />
          </mxGeometry>
        </mxCell>
        <mxCell id="K3zmsh9aibyrLAJEjabf-19" value="ACK" style="shape=flexArrow;endArrow=classic;html=1;strokeColor=#d79b00;fillColor=#ffe6cc;fontSize=16;fontColor=#000000;" parent="1" edge="1">
          <mxGeometry width="50" height="50" relative="1" as="geometry">
            <mxPoint x="360" y="915" as="sourcePoint" />
            <mxPoint x="659" y="985" as="targetPoint" />
          </mxGeometry>
        </mxCell>
        <mxCell id="K3zmsh9aibyrLAJEjabf-20" value="SYN+ACK" style="shape=flexArrow;endArrow=classic;html=1;strokeColor=#d79b00;fillColor=#ffe6cc;fontSize=16;fontColor=#000000;" parent="1" edge="1">
          <mxGeometry width="50" height="50" relative="1" as="geometry">
            <mxPoint x="659" y="885" as="sourcePoint" />
            <mxPoint x="360" y="885" as="targetPoint" />
          </mxGeometry>
        </mxCell>
        <mxCell id="K3zmsh9aibyrLAJEjabf-21" value="" style="rounded=1;whiteSpace=wrap;html=1;fillColor=none;dashed=1;strokeWidth=2;" parent="1" vertex="1">
          <mxGeometry x="350" y="760" width="310" height="255" as="geometry" />
        </mxCell>
        <mxCell id="K3zmsh9aibyrLAJEjabf-22" value="&lt;font style=&quot;font-size: 18px&quot;&gt;&lt;b&gt;三次握手&lt;/b&gt;&lt;/font&gt;" style="text;html=1;strokeColor=none;fillColor=none;align=center;verticalAlign=middle;whiteSpace=wrap;rounded=0;dashed=1;" parent="1" vertex="1">
          <mxGeometry x="441.25" y="765" width="127.5" height="20" as="geometry" />
        </mxCell>
        <mxCell id="K3zmsh9aibyrLAJEjabf-23" value="2. 返回《&lt;span&gt;猫猫的诱惑&lt;/span&gt;》+&amp;nbsp;&amp;nbsp;&lt;span style=&quot;color: rgb(51 , 51 , 51) ; font-family: &amp;#34;open sans&amp;#34; , &amp;#34;clear sans&amp;#34; , &amp;#34;helvetica neue&amp;#34; , &amp;#34;helvetica&amp;#34; , &amp;#34;arial&amp;#34; , sans-serif ; text-align: left&quot;&gt;Connection: close&lt;/span&gt;" style="shape=flexArrow;endArrow=classic;html=1;strokeColor=#788AA3;fillColor=#B2C9AB;fontSize=16;fontColor=#000000;" parent="1" edge="1">
          <mxGeometry width="50" height="50" relative="1" as="geometry">
            <mxPoint x="649" y="1165" as="sourcePoint" />
            <mxPoint x="350" y="1095" as="targetPoint" />
          </mxGeometry>
        </mxCell>
        <mxCell id="K3zmsh9aibyrLAJEjabf-24" value="FIN" style="shape=flexArrow;endArrow=classic;html=1;strokeColor=#d79b00;fillColor=#ffe6cc;fontSize=16;fontColor=#000000;" parent="1" edge="1">
          <mxGeometry width="50" height="50" relative="1" as="geometry">
            <mxPoint x="360" y="1220" as="sourcePoint" />
            <mxPoint x="659" y="1300" as="targetPoint" />
          </mxGeometry>
        </mxCell>
        <mxCell id="K3zmsh9aibyrLAJEjabf-25" value="ACK" style="shape=flexArrow;endArrow=classic;html=1;strokeColor=#d79b00;fillColor=#ffe6cc;fontSize=16;fontColor=#000000;" parent="1" edge="1">
          <mxGeometry width="50" height="50" relative="1" as="geometry">
            <mxPoint x="361" y="1395" as="sourcePoint" />
            <mxPoint x="660" y="1465" as="targetPoint" />
          </mxGeometry>
        </mxCell>
        <mxCell id="K3zmsh9aibyrLAJEjabf-26" value="ACK" style="shape=flexArrow;endArrow=classic;html=1;strokeColor=#d79b00;fillColor=#ffe6cc;fontSize=16;fontColor=#000000;" parent="1" edge="1">
          <mxGeometry width="50" height="50" relative="1" as="geometry">
            <mxPoint x="654.5" y="1325" as="sourcePoint" />
            <mxPoint x="355.5" y="1325" as="targetPoint" />
          </mxGeometry>
        </mxCell>
        <mxCell id="K3zmsh9aibyrLAJEjabf-27" value="&lt;font style=&quot;font-size: 18px&quot;&gt;&lt;b&gt;四次握手&lt;/b&gt;&lt;/font&gt;" style="text;html=1;strokeColor=none;fillColor=none;align=center;verticalAlign=middle;whiteSpace=wrap;rounded=0;dashed=1;" parent="1" vertex="1">
          <mxGeometry x="441.25" y="1200" width="127.5" height="20" as="geometry" />
        </mxCell>
        <mxCell id="K3zmsh9aibyrLAJEjabf-28" value="FIN" style="shape=flexArrow;endArrow=classic;html=1;strokeColor=#d79b00;fillColor=#ffe6cc;fontSize=16;fontColor=#000000;" parent="1" edge="1">
          <mxGeometry width="50" height="50" relative="1" as="geometry">
            <mxPoint x="654.5" y="1375" as="sourcePoint" />
            <mxPoint x="355.5" y="1375" as="targetPoint" />
          </mxGeometry>
        </mxCell>
        <mxCell id="K3zmsh9aibyrLAJEjabf-29" value="" style="line;strokeWidth=2;html=1;dashed=1;fillColor=none;" parent="1" vertex="1">
          <mxGeometry x="60" y="720" width="890" height="10" as="geometry" />
        </mxCell>
        <mxCell id="K3zmsh9aibyrLAJEjabf-30" value="还想再来一份&lt;span style=&quot;background-color: rgb(255 , 255 , 255)&quot;&gt;《猫猫的诱惑》！&lt;/span&gt;" style="shape=callout;whiteSpace=wrap;html=1;perimeter=calloutPerimeter;rounded=1;shadow=0;dashed=1;labelBackgroundColor=none;sketch=0;strokeWidth=2;fontSize=16;" parent="1" vertex="1">
          <mxGeometry x="40" y="790" width="240" height="80" as="geometry" />
        </mxCell>
        <mxCell id="K3zmsh9aibyrLAJEjabf-31" value="" style="shape=singleArrow;direction=south;whiteSpace=wrap;html=1;rounded=1;shadow=0;dashed=1;labelBackgroundColor=none;sketch=0;strokeColor=#82B366;strokeWidth=2;fillColor=#B2C9AB;fontSize=16;fontColor=#000000;arrowWidth=0.36666666666666664;arrowSize=0.015841584158415842;" parent="1" vertex="1">
          <mxGeometry x="667.69" y="-60" width="50" height="2530" as="geometry" />
        </mxCell>
        <mxCell id="3oiF2rvLH_tYz8wV3Ybr-1" value="" style="fontColor=#0066CC;verticalAlign=top;verticalLabelPosition=bottom;labelPosition=center;align=center;html=1;outlineConnect=0;fillColor=#CCCCCC;strokeColor=#6881B3;gradientColor=none;gradientDirection=north;strokeWidth=2;shape=mxgraph.networks.server;rounded=1;shadow=0;dashed=1;labelBackgroundColor=none;sketch=0;" vertex="1" parent="1">
          <mxGeometry x="755.3800000000001" y="900" width="90" height="100" as="geometry" />
        </mxCell>
        <mxCell id="3oiF2rvLH_tYz8wV3Ybr-2" value="&lt;font style=&quot;font-size: 24px&quot;&gt;后端服务器&lt;/font&gt;" style="text;html=1;strokeColor=none;fillColor=none;align=center;verticalAlign=middle;whiteSpace=wrap;rounded=0;shadow=0;dashed=1;labelBackgroundColor=none;sketch=0;fontSize=16;fontColor=#000000;" vertex="1" parent="1">
          <mxGeometry x="745.3800000000001" y="870" width="130" height="20" as="geometry" />
        </mxCell>
        <mxCell id="3oiF2rvLH_tYz8wV3Ybr-3" value="又是你，还得握手挥手一遍" style="shape=callout;whiteSpace=wrap;html=1;perimeter=calloutPerimeter;rounded=1;shadow=0;dashed=1;labelBackgroundColor=none;sketch=0;strokeWidth=2;fontSize=16;" vertex="1" parent="1">
          <mxGeometry x="727.69" y="765" width="202.31" height="90" as="geometry" />
        </mxCell>
        <mxCell id="3oiF2rvLH_tYz8wV3Ybr-5" value="" style="rounded=1;whiteSpace=wrap;html=1;fillColor=none;dashed=1;strokeWidth=2;" vertex="1" parent="1">
          <mxGeometry x="360" y="2075" width="310" height="320" as="geometry" />
        </mxCell>
        <mxCell id="3oiF2rvLH_tYz8wV3Ybr-6" value="1.GET&amp;nbsp;&amp;nbsp;&lt;span style=&quot;color: rgb(51 , 51 , 51) ; font-family: &amp;#34;open sans&amp;#34; , &amp;#34;clear sans&amp;#34; , &amp;#34;helvetica neue&amp;#34; , &amp;#34;helvetica&amp;#34; , &amp;#34;arial&amp;#34; , sans-serif ; text-align: left&quot;&gt;Connection: close&lt;/span&gt;" style="shape=flexArrow;endArrow=classic;html=1;strokeColor=#788AA3;fillColor=#B2C9AB;fontSize=16;fontColor=#000000;" edge="1" parent="1">
          <mxGeometry width="50" height="50" relative="1" as="geometry">
            <mxPoint x="360" y="1915" as="sourcePoint" />
            <mxPoint x="659" y="1985" as="targetPoint" />
          </mxGeometry>
        </mxCell>
        <mxCell id="3oiF2rvLH_tYz8wV3Ybr-7" value="SYN" style="shape=flexArrow;endArrow=classic;html=1;strokeColor=#d79b00;fillColor=#ffe6cc;fontSize=16;fontColor=#000000;" edge="1" parent="1">
          <mxGeometry width="50" height="50" relative="1" as="geometry">
            <mxPoint x="370" y="1665" as="sourcePoint" />
            <mxPoint x="669" y="1745" as="targetPoint" />
          </mxGeometry>
        </mxCell>
        <mxCell id="3oiF2rvLH_tYz8wV3Ybr-8" value="ACK" style="shape=flexArrow;endArrow=classic;html=1;strokeColor=#d79b00;fillColor=#ffe6cc;fontSize=16;fontColor=#000000;" edge="1" parent="1">
          <mxGeometry width="50" height="50" relative="1" as="geometry">
            <mxPoint x="370" y="1795" as="sourcePoint" />
            <mxPoint x="669" y="1865" as="targetPoint" />
          </mxGeometry>
        </mxCell>
        <mxCell id="3oiF2rvLH_tYz8wV3Ybr-9" value="SYN+ACK" style="shape=flexArrow;endArrow=classic;html=1;strokeColor=#d79b00;fillColor=#ffe6cc;fontSize=16;fontColor=#000000;" edge="1" parent="1">
          <mxGeometry width="50" height="50" relative="1" as="geometry">
            <mxPoint x="669" y="1765" as="sourcePoint" />
            <mxPoint x="370" y="1765" as="targetPoint" />
          </mxGeometry>
        </mxCell>
        <mxCell id="3oiF2rvLH_tYz8wV3Ybr-10" value="" style="rounded=1;whiteSpace=wrap;html=1;fillColor=none;dashed=1;strokeWidth=2;" vertex="1" parent="1">
          <mxGeometry x="360" y="1640" width="310" height="255" as="geometry" />
        </mxCell>
        <mxCell id="3oiF2rvLH_tYz8wV3Ybr-11" value="&lt;font style=&quot;font-size: 18px&quot;&gt;&lt;b&gt;三次握手&lt;/b&gt;&lt;/font&gt;" style="text;html=1;strokeColor=none;fillColor=none;align=center;verticalAlign=middle;whiteSpace=wrap;rounded=0;dashed=1;" vertex="1" parent="1">
          <mxGeometry x="451.25" y="1645" width="127.5" height="20" as="geometry" />
        </mxCell>
        <mxCell id="3oiF2rvLH_tYz8wV3Ybr-12" value="2. 返回《&lt;span&gt;进击的猫猫&lt;/span&gt;》+&amp;nbsp;&amp;nbsp;&lt;span style=&quot;color: rgb(51 , 51 , 51) ; font-family: &amp;#34;open sans&amp;#34; , &amp;#34;clear sans&amp;#34; , &amp;#34;helvetica neue&amp;#34; , &amp;#34;helvetica&amp;#34; , &amp;#34;arial&amp;#34; , sans-serif ; text-align: left&quot;&gt;Connection: close&lt;/span&gt;" style="shape=flexArrow;endArrow=classic;html=1;strokeColor=#788AA3;fillColor=#B2C9AB;fontSize=16;fontColor=#000000;" edge="1" parent="1">
          <mxGeometry width="50" height="50" relative="1" as="geometry">
            <mxPoint x="659" y="2045" as="sourcePoint" />
            <mxPoint x="360" y="1975" as="targetPoint" />
          </mxGeometry>
        </mxCell>
        <mxCell id="3oiF2rvLH_tYz8wV3Ybr-13" value="FIN" style="shape=flexArrow;endArrow=classic;html=1;strokeColor=#d79b00;fillColor=#ffe6cc;fontSize=16;fontColor=#000000;" edge="1" parent="1">
          <mxGeometry width="50" height="50" relative="1" as="geometry">
            <mxPoint x="370" y="2100" as="sourcePoint" />
            <mxPoint x="669" y="2180" as="targetPoint" />
          </mxGeometry>
        </mxCell>
        <mxCell id="3oiF2rvLH_tYz8wV3Ybr-14" value="ACK" style="shape=flexArrow;endArrow=classic;html=1;strokeColor=#d79b00;fillColor=#ffe6cc;fontSize=16;fontColor=#000000;" edge="1" parent="1">
          <mxGeometry width="50" height="50" relative="1" as="geometry">
            <mxPoint x="371" y="2275" as="sourcePoint" />
            <mxPoint x="670" y="2345" as="targetPoint" />
          </mxGeometry>
        </mxCell>
        <mxCell id="3oiF2rvLH_tYz8wV3Ybr-15" value="ACK" style="shape=flexArrow;endArrow=classic;html=1;strokeColor=#d79b00;fillColor=#ffe6cc;fontSize=16;fontColor=#000000;" edge="1" parent="1">
          <mxGeometry width="50" height="50" relative="1" as="geometry">
            <mxPoint x="664.5" y="2205" as="sourcePoint" />
            <mxPoint x="365.5" y="2205" as="targetPoint" />
          </mxGeometry>
        </mxCell>
        <mxCell id="3oiF2rvLH_tYz8wV3Ybr-16" value="&lt;font style=&quot;font-size: 18px&quot;&gt;&lt;b&gt;四次握手&lt;/b&gt;&lt;/font&gt;" style="text;html=1;strokeColor=none;fillColor=none;align=center;verticalAlign=middle;whiteSpace=wrap;rounded=0;dashed=1;" vertex="1" parent="1">
          <mxGeometry x="451.25" y="2080" width="127.5" height="20" as="geometry" />
        </mxCell>
        <mxCell id="3oiF2rvLH_tYz8wV3Ybr-17" value="FIN" style="shape=flexArrow;endArrow=classic;html=1;strokeColor=#d79b00;fillColor=#ffe6cc;fontSize=16;fontColor=#000000;" edge="1" parent="1">
          <mxGeometry width="50" height="50" relative="1" as="geometry">
            <mxPoint x="664.5" y="2255" as="sourcePoint" />
            <mxPoint x="365.5" y="2255" as="targetPoint" />
          </mxGeometry>
        </mxCell>
        <mxCell id="3oiF2rvLH_tYz8wV3Ybr-18" value="" style="line;strokeWidth=2;html=1;dashed=1;fillColor=none;" vertex="1" parent="1">
          <mxGeometry x="70" y="1600" width="890" height="10" as="geometry" />
        </mxCell>
        <mxCell id="3oiF2rvLH_tYz8wV3Ybr-19" value="那个...再来一个&lt;span style=&quot;background-color: rgb(255 , 255 , 255)&quot;&gt;《进击的猫猫》！&lt;/span&gt;" style="shape=callout;whiteSpace=wrap;html=1;perimeter=calloutPerimeter;rounded=1;shadow=0;dashed=1;labelBackgroundColor=none;sketch=0;strokeWidth=2;fontSize=16;" vertex="1" parent="1">
          <mxGeometry x="40" y="1660" width="250" height="90" as="geometry" />
        </mxCell>
        <mxCell id="3oiF2rvLH_tYz8wV3Ybr-20" value="" style="fontColor=#0066CC;verticalAlign=top;verticalLabelPosition=bottom;labelPosition=center;align=center;html=1;outlineConnect=0;fillColor=#CCCCCC;strokeColor=#6881B3;gradientColor=none;gradientDirection=north;strokeWidth=2;shape=mxgraph.networks.server;rounded=1;shadow=0;dashed=1;labelBackgroundColor=none;sketch=0;" vertex="1" parent="1">
          <mxGeometry x="765.3800000000001" y="1780" width="90" height="100" as="geometry" />
        </mxCell>
        <mxCell id="3oiF2rvLH_tYz8wV3Ybr-21" value="&lt;font style=&quot;font-size: 24px&quot;&gt;后端服务器&lt;/font&gt;" style="text;html=1;strokeColor=none;fillColor=none;align=center;verticalAlign=middle;whiteSpace=wrap;rounded=0;shadow=0;dashed=1;labelBackgroundColor=none;sketch=0;fontSize=16;fontColor=#000000;" vertex="1" parent="1">
          <mxGeometry x="755.3800000000001" y="1750" width="130" height="20" as="geometry" />
        </mxCell>
        <mxCell id="3oiF2rvLH_tYz8wV3Ybr-22" value="又叒是你，还得握手挥手一遍" style="shape=callout;whiteSpace=wrap;html=1;perimeter=calloutPerimeter;rounded=1;shadow=0;dashed=1;labelBackgroundColor=none;sketch=0;strokeWidth=2;fontSize=16;" vertex="1" parent="1">
          <mxGeometry x="737.69" y="1645" width="202.31" height="90" as="geometry" />
        </mxCell>
      </root>
    </mxGraphModel>
  </diagram>
</mxfile>
